<?xml version="1.0" encoding="UTF-8"?>
<svg id="Layer_1" xmlns="http://www.w3.org/2000/svg" viewBox="0 0 30 30">
  <g id="Layer_12">
    <path d="M14.3,7.2c-.7,0-1.4.5-1.5,1.3v.9c-.2,0-.2.2-.4.3-.3.1-.5.3-.8.5-.1,0-.3.1-.4,0l-.8-.3c-.7-.3-1.5,0-1.8.7l-.7,1.3c-.4.6-.2,1.4.3,1.9l.7.6s.1.2.1.3v.9c0,.2,0,.3-.1.3l-.7.6c-.6.5-.7,1.3-.3,1.9l.7,1.3c.4.6,1.1.9,1.8.7l.8-.3h.4c.2.2.5.3.8.5.1,0,.2.2.2.3v.9c.3.7.9,1.3,1.6,1.3h1.5c.7,0,1.4-.5,1.5-1.3v-.9c.2,0,.2-.2.4-.3.3-.1.5-.3.8-.5.1,0,.3-.1.4,0l.8.3c.7.3,1.5,0,1.8-.7l.7-1.3c.4-.6.2-1.4-.3-1.9l-.7-.6s-.1-.2-.1-.3v-.9c0-.2,0-.3.1-.3l.7-.6c.6-.5.7-1.3.3-1.9l-.7-1.3c-.4-.6-1.1-.9-1.8-.7l-.8.3h-.4c-.3-.2-.5-.3-.8-.5-.1,0-.2-.2-.2-.3v-.9c-.3-.7-.9-1.3-1.6-1.3,0,0-1.5,0-1.5,0ZM15,18c1.7,0,3-1.3,3-3s-1.3-3-3-3-3,1.3-3,3,1.3,3,3,3Z" fill="#fff" fill-rule="evenodd"/>
  </g>
</svg>