<?xml version="1.0" encoding="UTF-8"?>
<svg id="Layer_1" xmlns="http://www.w3.org/2000/svg" width="24.6868" height="23.1125" viewBox="0 0 24.6868 23.1125">
  <path d="M15.8068,15.2853c.2489-1.3029.307-2.6609.3206-3.9764.0063-.6096-.5401-1.0488-1.1406-.944-.8814.1538-1.7628.2307-2.6442.2307-.8879,0-1.7758,0-2.6636-.1645-.5908-.1095-1.1274.3413-1.1205.9422.0148,1.2954.075,2.6304.3199,3.9121.0776.4064.429.72.8401.7665,1.7494.1978,3.4988.1978,5.2483,0,.4111-.0465.7625-.3601.8401-.7665Z" fill="#072334"/>
  <path d="M10.9093,18.104c.9555.0402,1.911.0402,2.8665,0,.6942-.0292,1.1811.6435.9344,1.2931-.4198,1.105-.9325,2.1891-1.5382,3.2018-.378.632-1.281.632-1.659,0-.6057-1.0127-1.1184-2.0968-1.5382-3.2018-.2467-.6495.2402-1.3223.9344-1.2931Z" fill="#072334"/>
  <g>
    <path d="M24.2872,12.6957c.2436-.1633.3858-.448.3944-.7412.046-1.5634-.2185-3.1152-.7377-4.543-.2225-.6119-.9855-.8437-1.4868-.4281-1.1993.9943-2.5418,1.766-3.9714,2.3714-.3677.1557-.5949.5187-.577.9177.0582,1.2963-.0064,2.5419-.1521,3.8201-.0793.6958.6049,1.232,1.2619.9895,1.5765-.582,4.0239-1.5518,5.2687-2.3863Z" fill="#072334"/>
    <path d="M22.0795,16.0412c.8306-.3714,1.642.5312,1.2158,1.3351-1.3617,2.5684-3.6068,4.573-6.348,5.6695-.7807.3123-1.5163-.5318-1.165-1.2958.5277-1.1478.9672-2.3307,1.3493-3.5183.1012-.3145.3509-.5652.6741-.6336,1.215-.2572,2.9224-.9526,4.2739-1.5569Z" fill="#072334"/>
    <path d="M17.0093.0748c1.9072.7767,3.5747,2.0148,4.9124,3.6692.309.3822.2572.9672-.1121,1.2915-.9193.8072-1.9005,1.4467-2.9437,1.9962-.5697.3001-1.2516-.0206-1.3874-.65-.3701-1.7148-.9216-3.4132-1.6895-5.0252-.3761-.7896.4104-1.6116,1.2204-1.2818Z" fill="#072334"/>
  </g>
  <g>
    <path d="M5.6682,15.082c.6569.2425,1.3412-.2937,1.2619-.9895-.1457-1.2782-.2103-2.5238-.1521-3.8201.0179-.3989-.2092-.762-.577-.9177-1.4297-.6053-2.7722-1.3771-3.9714-2.3714-.5013-.4156-1.2643-.1838-1.4868.4281C.2237,8.8394-.0409,10.3911.0051,11.9546c.0086.2932.1508.5779.3944.7412,1.2448.8345,3.6921,1.8043,5.2687,2.3863Z" fill="#072334"/>
    <path d="M6.8812,17.5981c.3232.0684.5729.3192.6741.6336.382,1.1875.8216,2.3705,1.3493,3.5183.3512.764-.3843,1.6081-1.165,1.2958-2.7413-1.0965-4.9863-3.1011-6.348-5.6695-.4262-.8039.3853-1.7065,1.2158-1.3351,1.3515.6044,3.0589,1.2997,4.2739,1.5569Z" fill="#072334"/>
    <path d="M8.8979,1.3565c-.7679,1.612-1.3195,3.3104-1.6895,5.0252-.1358.6294-.8177.9501-1.3874.65-1.0432-.5495-2.0245-1.189-2.9437-1.9962-.3693-.3243-.4212-.9093-.1121-1.2915C4.1028,2.0895,5.7703.8515,7.6775.0748c.81-.3299,1.5965.4922,1.2204,1.2818Z" fill="#072334"/>
  </g>
  <path d="M13.2058.5752c1.2216,2.1026,2.0203,4.4247,2.4612,6.7712.0974.5182-.2666,1.0024-.784,1.1042-.8493.167-1.7367.2506-2.5405.2506-.815,0-1.7159,0-2.5759-.19-.5058-.1117-.8536-.602-.7554-1.1107.456-2.3612,1.339-4.6992,2.5165-6.8153.3669-.6594,1.2989-.6626,1.678-.0101Z" fill="#072334"/>
</svg>