<?xml version="1.0" encoding="UTF-8"?>
<svg id="Data_-_collection" xmlns="http://www.w3.org/2000/svg" viewBox="0 0 223.6489 169.3987">
  <path d="M91.2072,128.2403c0-.781-.1474-1.5536-.4349-2.2799-.3115-.7869-.7808-1.5014-1.3792-2.0999-.5985-.5985-1.313-1.0678-2.0999-1.3793-.7264-.2875-1.499-.435-2.2801-.435s-1.5536.1474-2.2799.4349c-.7869.3115-1.5014.7808-2.0999,1.3793s-1.0678,1.313-1.3793,2.0999c-.2875.7263-.4349,1.4989-.4349,2.28s.1473,1.5537.4348,2.28c.3115.7869.7808,1.5013,1.3793,2.0998s1.313,1.0678,2.0999,1.3794c.7263.2875,1.4989.4349,2.28.4349s1.5537-.1474,2.28-.4349c.7869-.3115,1.5013-.7808,2.0998-1.3793.5985-.5983,1.0678-1.3129,1.3794-2.0998.2875-.7264.4349-1.499.4349-2.2801h0Z" fill="#010101" stroke="#3bc2d2" stroke-miterlimit="10" stroke-width=".5"/>
  <path d="M33.5123,162.5903c0-.7742-.3063-1.5136-.8537-2.0611-.5475-.5475-1.2869-.8538-2.0612-.8538s-1.5136.3063-2.061.8537-.8538,1.2869-.8538,2.0612.3063,1.5136.8537,2.0611c.5475.5474,1.2869.8537,2.0611.8537s1.5137-.3062,2.0611-.8537c.5475-.5474.8538-1.2869.8538-2.0611Z" fill="#002235" stroke="#3bc2d2" stroke-miterlimit="10" stroke-width=".5"/>
  <path d="M61.6037,162.5903c0-.5973-.1126-1.1881-.3325-1.7435-.2383-.6017-.5971-1.1481-1.0547-1.6057s-1.004-.8166-1.6057-1.0548c-.5555-.2198-1.1463-.3325-1.7436-.3325s-1.188.1127-1.7434.3325c-.6017.2383-1.1482.5971-1.6058,1.0547s-.8166,1.004-1.0547,1.6058c-.2199.5554-.3326,1.1462-.3326,1.7435s.1127,1.1881.3325,1.7435c.2383.6017.5971,1.1481,1.0547,1.6057s1.0041.8166,1.6058,1.0547c.5554.2199,1.1462.3326,1.7435.3326s1.1881-.1127,1.7435-.3325c.6017-.2383,1.1481-.5971,1.6057-1.0547s.8166-1.004,1.0548-1.6058c.2198-.5554.3325-1.1462.3325-1.7435Z" fill="#010101" stroke="#3bc2d2" stroke-miterlimit="10" stroke-width=".25"/>
  <path d="M61.6037,128.2403c0-.5973-.1126-1.188-.3325-1.7434-.2383-.6017-.5971-1.1482-1.0547-1.6058s-1.004-.8166-1.6057-1.0547c-.5555-.2199-1.1463-.3326-1.7436-.3326s-1.188.1127-1.7434.3325c-.6017.2383-1.1482.5971-1.6058,1.0547s-.8166,1.0041-1.0547,1.6058c-.2199.5554-.3326,1.1462-.3326,1.7435s.1127,1.1881.3325,1.7435c.2383.6017.5971,1.1481,1.0547,1.6057s1.0041.8166,1.6058,1.0548c.5554.2198,1.1462.3325,1.7435.3325s1.1881-.1126,1.7435-.3325c.6017-.2383,1.1481-.5971,1.6057-1.0547s.8166-1.004,1.0548-1.6057c.2198-.5555.3325-1.1463.3325-1.7436h0Z" fill="#002235" stroke="#3bc2d2" stroke-miterlimit="10"/>
  <path d="M72.8075,90.4555c0-.827-.156-1.645-.4604-2.414-.3298-.8332-.8267-1.5897-1.4604-2.2234s-1.3902-1.1305-2.2234-1.4605c-.769-.3044-1.587-.4604-2.4141-.4604s-1.6451.156-2.4141.4604c-.8331.3298-1.5897.8267-2.2233,1.4604-.6337.6336-1.1307,1.3902-1.4606,2.2234-.3044.769-.4604,1.587-.4604,2.4141s.156,1.6451.4604,2.4141c.3298.8331.8268,1.5897,1.4604,2.2233s1.3902,1.1307,2.2234,1.4605c.769.3045,1.587.4605,2.4142.4605s1.645-.156,2.414-.4604c.8332-.3298,1.5897-.8268,2.2234-1.4604.6337-.6337,1.1305-1.3902,1.4605-2.2234.3044-.769.4604-1.587.4604-2.4142Z" fill="#002235"/>
  <path d="M19.6203,59.5406c0-.6774-.2681-1.3244-.7471-1.8035-.479-.479-1.1261-.7471-1.8035-.7471s-1.3244.2681-1.8035.7471c-.479.479-.747,1.1261-.747,1.8035s.268,1.3244.747,1.8035c.479.479,1.1261.747,1.8035.747s1.3244-.268,1.8035-.747c.479-.479.7471-1.1261.7471-1.8035Z" fill="#010101" stroke="#3bc2d2" stroke-miterlimit="10"/>
  <path d="M39.2533,42.3657c0-.7743-.3063-1.5137-.8537-2.0611s-1.2869-.8538-2.0612-.8538-1.5136.3063-2.0611.8537c-.5474.5475-.8537,1.2869-.8537,2.0612s.3062,1.5136.8537,2.061c.5474.5475,1.2869.8538,2.0611.8538s1.5136-.3063,2.0611-.8537.8538-1.2869.8538-2.0611Z" fill="#002235" stroke="#3bc2d2" stroke-miterlimit="10"/>
  <path d="M26.8458,8.0158c0-.6774-.268-1.3244-.747-1.8035-.479-.479-1.1261-.747-1.8035-.747s-1.3244.268-1.8035.747c-.479.479-.7471,1.1261-.7471,1.8035s.2681,1.3244.7471,1.8035c.479.479,1.1261.747,1.8035.747s1.3244-.268,1.8035-.747c.479-.479.747-1.1261.747-1.8035Z" fill="#010101" stroke="#3bc2d2" stroke-miterlimit="10" stroke-width=".5"/>
  <path d="M71.4358,25.1907c0-.827-.156-1.645-.4604-2.414-.3298-.8332-.8267-1.5897-1.4604-2.2234s-1.3902-1.1305-2.2234-1.4605c-.769-.3044-1.587-.4604-2.4141-.4604s-1.6451.156-2.4141.4604c-.8331.3298-1.5897.8267-2.2233,1.4604-.6337.6336-1.1307,1.3902-1.4606,2.2234-.3044.769-.4604,1.587-.4604,2.4141s.156,1.6451.4604,2.4141c.3298.8331.8268,1.5897,1.4604,2.2233s1.3902,1.1307,2.2234,1.4605c.769.3045,1.587.4605,2.4142.4605s1.645-.156,2.414-.4604c.8332-.3298,1.5897-.8268,2.2234-1.4604.6337-.6337,1.1305-1.3902,1.4605-2.2234.3044-.769.4604-1.587.4604-2.4142Z" fill="none" stroke="#002235" stroke-miterlimit="10"/>
  <path d="M33.5123,128.2403c0-.7742-.3063-1.5136-.8537-2.0611-.5475-.5474-1.2869-.8537-2.0612-.8537s-1.5136.3062-2.061.8537c-.5475.5474-.8538,1.2869-.8538,2.0611s.3063,1.5136.8537,2.0611c.5475.5475,1.2869.8538,2.0611.8538s1.5137-.3063,2.0611-.8537.8538-1.2869.8538-2.0612Z" fill="none" stroke="#002235" stroke-miterlimit="10"/>
  <path d="M33.5123,90.4555c0-.7742-.3063-1.5136-.8537-2.061s-1.2869-.8538-2.0612-.8538-1.5136.3062-2.061.8537c-.5475.5474-.8538,1.2869-.8538,2.0611s.3063,1.5137.8537,2.0611,1.2869.8538,2.0611.8538,1.5137-.3063,2.0611-.8537.8538-1.2869.8538-2.0612Z" fill="#002235"/>
  <path d="M41.579,76.7155c0-.7742-.3063-1.5136-.8537-2.0611-.5475-.5474-1.2869-.8537-2.0612-.8537s-1.5136.3062-2.061.8537c-.5475.5474-.8538,1.2869-.8538,2.0611s.3062,1.5137.8537,2.0611c.5474.5475,1.2869.8538,2.0611.8538s1.5137-.3063,2.0611-.8537.8538-1.2869.8538-2.0612Z" fill="#002235" isolation="isolate" opacity=".5"/>
  <path d="M91.5716,141.9803c0-.827-.156-1.6451-.4604-2.414-.3298-.8332-.8268-1.5897-1.4604-2.2234-.6337-.6337-1.3902-1.1305-2.2234-1.4605-.769-.3044-1.587-.4604-2.4142-.4604s-1.6451.156-2.414.4604c-.8332.3298-1.5897.8267-2.2234,1.4604-.6337.6336-1.1307,1.3902-1.4605,2.2234-.3044.769-.4604,1.587-.4604,2.4141s.156,1.6451.4604,2.4141c.3298.8331.8267,1.5897,1.4604,2.2233.6336.6337,1.3902,1.1307,2.2234,1.4605.769.3045,1.587.4605,2.4141.4605s1.6451-.156,2.4141-.4604c.8331-.3298,1.5897-.8268,2.2233-1.4604s1.1307-1.3902,1.4605-2.2234c.3045-.769.4605-1.587.4605-2.4142h0Z" fill="#3bc2d2" stroke="#002235" stroke-miterlimit="10"/>
  <path d="M42.5299,162.5903c0-.6774-.268-1.3244-.747-1.8035-.479-.479-1.1261-.7471-1.8035-.7471s-1.3245.2681-1.8035.7471-.7471,1.1261-.7471,1.8035.2681,1.3244.7471,1.8034c.479.4791,1.1261.7471,1.8035.7471s1.3244-.268,1.8034-.747c.4791-.479.7471-1.1261.7471-1.8035h0Z" fill="#002235" isolation="isolate" opacity=".5"/>
  <path d="M33.5123,107.6305c0-.7743-.3063-1.5137-.8537-2.0611s-1.2869-.8538-2.0612-.8538-1.5136.3063-2.061.8537-.8538,1.2869-.8538,2.0612.3063,1.5136.8537,2.061,1.2869.8538,2.0611.8538,1.5137-.3063,2.0611-.8537c.5475-.5474.8538-1.2869.8538-2.0611Z" fill="#3bc2d2" stroke="#002235" stroke-miterlimit="10" stroke-width=".25"/>
  <path d="M72.8075,107.6305c0-.827-.156-1.6451-.4604-2.4141-.3298-.8331-.8267-1.5897-1.4604-2.2233-.6337-.6337-1.3902-1.1307-2.2234-1.4605-.769-.3045-1.587-.4605-2.4141-.4605s-1.6451.156-2.4141.4604c-.8331.3298-1.5897.8268-2.2233,1.4604s-1.1307,1.3902-1.4606,2.2234c-.3044.769-.4604,1.587-.4604,2.4142s.156,1.645.4604,2.414c.3298.8332.8268,1.5897,1.4604,2.2234.6337.6337,1.3902,1.1305,2.2234,1.4605.769.3044,1.587.4604,2.4142.4604s1.645-.156,2.414-.4604c.8332-.3298,1.5897-.8267,2.2234-1.4604s1.1305-1.3902,1.4605-2.2234c.3044-.769.4604-1.587.4604-2.4141h0Z" fill="#3bc2d2" stroke="#002235" stroke-miterlimit="10" stroke-width=".5"/>
  <path d="M51.8574,90.4555c0-.5513-.1041-1.0967-.307-1.6093-.2198-.5555-.5511-1.0598-.9735-1.4822s-.9268-.7538-1.4823-.9737c-.5126-.2029-1.058-.307-1.6094-.307s-1.0967.1041-1.6094.307c-.5554.2199-1.0598.5512-1.4822.9736s-.7537.9267-.9736,1.4822c-.2029.5127-.307,1.0581-.307,1.6094s.1039,1.0968.307,1.6094c.2198.5554.5511,1.0598.9735,1.4822s.9268.7538,1.4823.9736c.5126.203,1.058.307,1.6094.307s1.0967-.1039,1.6093-.3069c.5555-.2199,1.0598-.5512,1.4823-.9736.4224-.4224.7537-.9268.9736-1.4823.2029-.5126.307-1.058.307-1.6094Z" fill="#3bc2d2" stroke="#002235" stroke-miterlimit="10" stroke-width=".5"/>
  <path d="M32.7659,59.5406c0-.5513-.1041-1.0967-.307-1.6094-.2199-.5554-.5512-1.0598-.9736-1.4822s-.9267-.7537-1.4822-.9736c-.5127-.2029-1.0581-.307-1.6094-.307s-1.0967.1041-1.6094.307c-.5554.2198-1.0598.5511-1.4822.9735s-.7537.9268-.9736,1.4823c-.203.5126-.307,1.058-.307,1.6094s.1039,1.0967.3069,1.6093c.2199.5555.5512,1.0599.9736,1.4823s.9268.7537,1.4823.9736c.5126.2029,1.058.307,1.6094.307s1.0967-.1041,1.6093-.307c.5555-.2198,1.0598-.5511,1.4822-.9735.4225-.4224.7538-.9268.9737-1.4823.2029-.5126.307-1.058.307-1.6094Z" fill="#3bc2d2" stroke="#002235" stroke-miterlimit="10" stroke-width=".5"/>
  <path d="M76.688,59.5406c0-.7351-.1386-1.4623-.4092-2.1458-.2932-.7407-.7349-1.4131-1.2981-1.9764-.5633-.5633-1.2358-1.005-1.9764-1.2982-.6836-.2707-1.4108-.4094-2.1459-.4094s-1.4623.1387-2.1459.4094c-.7405.2932-1.413.7348-1.9763,1.2981s-1.005,1.2357-1.2982,1.9764c-.2707.6835-.4094,1.4107-.4094,2.1459s.1387,1.4623.4092,2.1458c.2932.7407.7349,1.4131,1.2982,1.9764s1.2357,1.005,1.9763,1.2982c.6836.2707,1.4108.4094,2.146.4094s1.4623-.1387,2.1458-.4094c.7405-.2932,1.413-.7348,1.9763-1.2981s1.005-1.2357,1.2983-1.9764c.2705-.6836.4092-1.4108.4092-2.1459h0Z" fill="#3bc2d2" stroke="#002235" stroke-miterlimit="10"/>
  <path d="M49.1139,25.1907c0-.5513-.1041-1.0967-.307-1.6093-.2198-.5555-.5511-1.0598-.9735-1.4822s-.9268-.7538-1.4823-.9737c-.5126-.2029-1.0581-.307-1.6094-.307s-1.0967.1041-1.6094.307c-.5554.2199-1.0598.5512-1.4822.9736s-.7537.9267-.9736,1.4822c-.2029.5127-.307,1.0581-.307,1.6094s.1039,1.0968.307,1.6094c.2198.5554.5511,1.0598.9735,1.4822s.9268.7537,1.4823.9736c.5126.203,1.058.307,1.6094.307s1.0967-.1039,1.6093-.3069c.5555-.2199,1.0598-.5512,1.4823-.9736.4224-.4224.7537-.9268.9736-1.4823.2029-.5126.307-1.058.307-1.6094Z" fill="#3bc2d2" stroke="#002235" stroke-miterlimit="10" stroke-width=".5"/>
  <path d="M14.5606,8.0158c0-.7742-.3062-1.5136-.8537-2.0611-.5474-.5475-1.2868-.8537-2.0611-.8537s-1.5136.3062-2.0611.8537c-.5475.5474-.8537,1.2868-.8537,2.0611s.3062,1.5136.8537,2.0611c.5474.5475,1.2868.8537,2.0611.8537s1.5136-.3062,2.0611-.8537c.5475-.5474.8537-1.2868.8537-2.0611Z" fill="#002235" isolation="isolate" opacity=".5"/>
  <path d="M210.0322,85.303c-3.1625.1829-6.3242.3718-9.4826.6198-2.9463.2313-5.8844.5139-8.8154.8988-6.1316.8054-12.0032,2.0309-17.8598,4.0881-5.8385,2.0509-11.1986,4.7698-16.3747,8.1407-5.1288,3.3401-9.9061,7.2095-14.4237,11.3166-4.5078,4.0982-8.8383,8.509-13.0006,12.9501-4.1879,4.4684-8.2665,9.0343-12.3612,13.5866-2.0713,2.3028-4.1464,4.6021-6.244,6.8809-2.0464,2.2231-4.1127,4.426-6.2244,6.5877-2.2193,2.2719-4.533,4.5431-6.891,6.6728-2.1483,1.9403-4.4302,3.852-6.7832,5.545" fill="none" stroke="#002235" stroke-miterlimit="10"/>
  <path d="M210.0322,85.303c-5.0199.0843-10.0505.172-15.0689.3299-5.0205.1579-10.0339.3879-15.0435.77-10.3095.7865-19.6738,2.147-29.7544,4.4781-4.9193,1.1376-9.7156,2.4379-14.5562,3.8692-4.8163,1.4243-9.5973,2.9563-14.3754,4.5011-4.6949,1.518-9.6351,3.1289-14.3601,4.553-4.7453,1.4302-9.7163,2.8097-14.5733,3.8262" fill="none" stroke="#002235" stroke-miterlimit="10"/>
  <path d="M210.0322,38.8621c-5.0531.0655-10.1058.1331-15.1578.266-5.0502.1329-10.0945.3324-15.136.6742-10.3712.7031-19.8136,1.9457-29.989,4.1047-4.969,1.0544-9.8163,2.2638-14.7157,3.6-4.8736,1.3292-9.7155,2.7628-14.5548,4.2091-4.7555,1.4213-9.7585,2.93-14.5409,4.2612-4.805,1.3376-9.8269,2.6224-14.7307,3.5632" fill="none" stroke="#002235" stroke-miterlimit="10"/>
  <path d="M210.0322,131.7439c-9.7702-.0397-19.9608-.0841-29.7304-.2081-10.1629-.1289-19.5515-.3375-29.7093-.6916-10.1887-.3553-19.5122-.7976-29.6944-1.2948-9.4736-.4625-20.2098-1.0008-29.6908-1.3091" fill="none" stroke="#000" stroke-linecap="round" stroke-linejoin="round" stroke-width=".1"/>
  <path d="M210.0322,131.7439c-2.7695-.1314-5.5387-.2668-8.3069-.4232-2.6011-.1469-5.2004-.3123-7.798-.5126-5.3677-.4141-10.705-.9771-16.0233-1.8391-5.3413-.8657-10.5011-2.0051-15.696-3.5273-5.1943-1.522-10.1781-3.3551-15.1477-5.4927-4.9445-2.1266-9.7522-4.503-14.5048-7.0219-4.7502-2.5177-9.4248-5.1671-14.097-7.8241-4.5906-2.6105-9.4346-5.3758-14.1026-7.8491-2.4278-1.2864-4.8743-2.5309-7.3609-3.701-2.3654-1.1132-4.7985-2.1727-7.2452-3.0975" fill="none" stroke="#000" stroke-linecap="round" stroke-linejoin="round" stroke-width=".1"/>
  <path d="M210.0322,131.7439c-3.2981-.3433-6.5937-.6993-9.8817-1.1325-3.068-.4042-6.1207-.8752-9.158-1.4735-6.3772-1.2563-12.3626-3.0131-18.3003-5.7154-5.8882-2.6798-11.2225-6.0629-16.2987-10.0432-2.4496-1.9209-4.7978-3.9479-7.0803-6.0635-2.4202-2.2431-4.7497-4.5701-7.0218-6.962-4.3941-4.6259-8.6161-9.5425-12.6732-14.4607-4.0763-4.9413-8.0497-9.9639-12.0437-14.9708-2.0239-2.537-4.0524-5.0699-6.105-7.5839-1.9987-2.4481-4.0186-4.8773-6.0849-7.2689-2.1795-2.5226-4.453-5.0519-6.7772-7.4436-1.0944-1.1263-2.2087-2.2311-3.3525-3.3074-1.0793-1.0156-2.1811-2.0028-3.319-2.9527" fill="none" stroke="#000" stroke-linecap="round" stroke-linejoin="round" stroke-width=".1"/>
  <g>
    <path d="M210.0322,131.7439c-9.7811.1163-19.982.2466-29.759.6118-10.1748.38-19.5464.9948-29.6769,2.0339-10.1403,1.0401-19.428,2.334-29.5147,3.7777-4.9097.7027-9.8183,1.4134-14.7343,2.0728-4.8705.6532-9.8828,1.2739-14.7758,1.7401" fill="none" stroke="#000" stroke-linecap="round" stroke-linejoin="round" stroke-width=".25"/>
    <path d="M210.0322,131.7439c-3.5103-.4407-7.051-.9038-10.5435-1.4764-3.265-.5354-6.5007-1.1689-9.7087-1.989-6.7796-1.7332-12.9109-4.1711-18.9183-7.8046-2.8332-1.7137-5.5079-3.6138-8.0852-5.6896-2.7646-2.2266-5.3839-4.6301-7.8827-7.1481-2.3329-2.3508-4.5548-4.7936-6.7059-7.3104-2.3033-2.695-4.5125-5.46-6.6627-8.2778-2.0385-2.6712-4.0185-5.3834-5.9617-8.1244-2.0242-2.8553-4.0061-5.739-5.9646-8.6395-3.8344-5.679-7.5756-11.4189-11.3457-17.14-1.9144-2.9051-3.8358-5.8052-5.784-8.6878-1.8887-2.7947-3.8012-5.5719-5.7639-8.3154-2.0886-2.9199-4.2747-5.8584-6.5251-8.6571-1.0498-1.3056-2.1218-2.591-3.2274-3.8499-1.0339-1.1773-2.0939-2.3279-3.1952-3.4431" fill="none" stroke="#000" stroke-linecap="round" stroke-linejoin="round" stroke-width=".25"/>
  </g>
  <path d="M210.0322,131.7439c-3.7817-.5487-7.6024-1.1276-11.355-1.8603-3.5181-.687-6.9852-1.5112-10.4071-2.5931-3.4922-1.1042-6.847-2.4496-10.1123-4.1153-3.377-1.7226-6.5308-3.7199-9.5558-6.0008-2.8245-2.1297-5.4773-4.463-7.995-6.9438-2.7589-2.7183-5.3578-5.6154-7.819-8.6024-2.2744-2.7602-4.4351-5.6002-6.5233-8.5026-2.2454-3.1207-4.3971-6.3008-6.4905-9.5247-1.9773-3.0453-3.8984-6.1242-5.7843-9.2266-1.9633-3.2298-3.8866-6.4826-5.7885-9.7487-3.7303-6.4063-7.375-12.8612-11.0553-19.2958-1.8715-3.2721-3.7519-6.5387-5.6613-9.7888-1.8454-3.1414-3.7166-6.2661-5.641-9.3599-1.0613-1.7063-2.1383-3.402-3.2381-5.0836-1.0501-1.6056-2.12-3.1969-3.2192-4.7695-1.0364-1.4828-2.0971-2.9465-3.1943-4.3851-1.0202-1.3373-2.0688-2.6492-3.1631-3.927" fill="none" stroke="#000" stroke-linecap="round" stroke-linejoin="round" stroke-width=".1"/>
  <path d="M210.0322,85.303c-2.901.1231-5.8015.25-8.7007.4104-2.7139.1503-5.4247.3299-8.1326.5684-5.625.4953-11.1433,1.2366-16.6607,2.4881-5.5359,1.2558-10.7699,2.9568-15.9778,5.2191-5.1821,2.2511-10.0681,4.9409-14.8297,7.9658-9.4199,5.9842-18.3003,13.2612-26.9048,20.2821-2.1955,1.7914-4.3917,3.5821-6.6042,5.3527-2.1739,1.7398-4.3621,3.4598-6.5851,5.137-2.3041,1.7383-4.6849,3.4597-7.0887,5.0592-2.2438,1.4931-4.59,2.9355-6.9762,4.1945" fill="none" stroke="#000" stroke-linecap="round" stroke-linejoin="round" stroke-width=".25"/>
  <path d="M210.0322,85.303c-9.888.0377-20.2273.0787-30.1145.2444-10.2966.1726-19.799.4713-30.0841.9974-10.3167.5276-19.7421,1.1944-30.0437,1.9454-5.0048.3648-10.0091.7341-15.0157,1.0749-4.9727.3385-10.0452.6556-15.0244.8904" fill="none" stroke="#000" stroke-linecap="round" stroke-linejoin="round" stroke-width=".1"/>
  <path d="M210.0322,85.303c-9.9411-.0629-20.3294-.1315-30.2682-.4094-10.3504-.2894-19.8887-.7904-30.2073-1.6693-10.3393-.8806-19.7893-1.9926-30.0875-3.2398-5.0075-.6064-10.0141-1.2201-15.0263-1.7868-4.9679-.5617-10.0722-1.0916-15.0575-1.4822" fill="none" stroke="#000" stroke-linecap="round" stroke-linejoin="round" stroke-width=".1"/>
  <path d="M210.0322,85.303c-2.9017-.1323-5.803-.2689-8.7028-.4429-2.7098-.1626-5.4161-.3577-8.1187-.6181-5.6228-.5418-11.119-1.3559-16.611-2.7333-5.5075-1.3814-10.6796-3.2464-15.8007-5.6991-5.0863-2.4359-9.8713-5.3329-14.4948-8.5441-4.6021-3.1964-9.0342-6.6978-13.3283-10.2885-4.3124-3.6057-8.5193-7.3297-12.7326-11.0483-2.1255-1.876-4.2521-3.7505-6.3963-5.6052-2.1032-1.8193-4.2217-3.619-6.3771-5.3767-2.2415-1.8281-4.563-3.643-6.9119-5.3328-2.1791-1.5678-4.4667-3.0902-6.8004-4.4232" fill="none" stroke="#000" stroke-linecap="round" stroke-linejoin="round" stroke-width=".25"/>
  <path d="M210.0322,38.8621c-2.8818.0924-5.7633.1873-8.644.3112-2.7005.116-5.399.2575-8.0954.45-5.5918.3992-11.1022,1.0136-16.6151,2.0783-5.534,1.0688-10.8063,2.5401-16.0795,4.5378-5.2481,1.9883-10.2396,4.4034-15.1218,7.1567-9.7044,5.4726-18.8055,12.1849-27.7308,18.7605-4.4094,3.2486-9.0807,6.6931-13.6096,9.7776-2.3625,1.609-4.7971,3.1967-7.2497,4.6665-2.305,1.3813-4.7044,2.7062-7.1365,3.8548" fill="none" stroke="#000" stroke-linecap="round" stroke-linejoin="round" stroke-width=".1"/>
  <path d="M210.0322,38.8621c-9.6903.0214-19.8594.0443-29.5494.1527-10.104.1131-19.4296.3133-29.5282.6714-10.1325.3593-19.3859.8162-29.5112,1.332-9.4084.4793-20.0905,1.0393-29.5075,1.3475" fill="none" stroke="#000" stroke-linecap="round" stroke-linejoin="round" stroke-width=".25"/>
  <path d="M210.0322,131.7439c-2.6523.0949-5.3045.193-7.9561.3053-2.4929.1056-4.9851.224-7.4763.3664-5.1408.2937-10.2664.6897-15.3821,1.2937-10.5403,1.2445-20.0076,3.2509-30.1239,6.4792-4.9232,1.5712-9.7137,3.3401-14.5116,5.2539-4.7803,1.9066-9.5076,3.9343-14.2318,5.9735-4.6459,2.0054-9.5387,4.1308-14.2331,6.0234-2.4277.9788-4.8671,1.9227-7.3318,2.8055-2.3825.8531-4.7806,1.6469-7.2138,2.3456" fill="none" stroke="#3bc2d2" stroke-linecap="round" stroke-linejoin="round" stroke-width=".75"/>
  <path d="M210.0322,85.303c-2.6306-.0505-5.2613-.1026-7.8917-.166-2.4742-.0597-4.948-.1295-7.4214-.2192-5.1019-.1853-10.194-.4556-15.2811-.9051-10.476-.9257-19.9467-2.525-30.1171-5.2319-4.9562-1.3192-9.7834-2.8223-14.639-4.4676-4.8345-1.6381-9.6249-3.3941-14.412-5.1628-4.702-1.7372-9.6539-3.581-14.3948-5.2126-4.758-1.6374-9.7663-3.2254-14.668-4.397" fill="none" stroke="#3bc2d2" stroke-linecap="round" stroke-linejoin="round" stroke-width=".75"/>
  <path d="M210.0322,85.303c-2.7501-.0885-5.5001-.1798-8.2494-.2929-2.5791-.1062-5.1569-.2317-7.7332-.3957-5.3292-.3393-10.6242-.8425-15.9028-1.6855-5.301-.8466-10.4031-2.0051-15.5339-3.5938-5.1276-1.5877-10.0267-3.5259-14.8889-5.79-4.8398-2.2538-9.5207-4.7736-14.1396-7.4423-4.6133-2.6654-9.1414-5.4666-13.6678-8.2737-4.452-2.761-9.1611-5.691-13.7036-8.3043-2.3685-1.3626-4.7587-2.68-7.1961-3.9167-2.3029-1.1683-4.6823-2.2804-7.0807-3.2424" fill="none" stroke="#3bc2d2" stroke-linecap="round" stroke-linejoin="round" stroke-width=".75"/>
  <path d="M210.0322,38.8621c-3.8685.3005-7.7933.6172-11.6457,1.1015-3.5983.4523-7.1499,1.053-10.6706,1.947-3.5975.9137-7.0471,2.1061-10.4158,3.6743-3.4919,1.6256-6.7443,3.5834-9.8468,5.8598-2.877,2.1109-5.5671,4.4536-8.1082,6.9532-2.8128,2.7668-5.4514,5.734-7.9387,8.7923-2.2828,2.8068-4.4448,5.6966-6.5313,8.6508-2.2532,3.1902-4.408,6.4417-6.5021,9.7377-1.9731,3.1056-3.8881,6.2452-5.7669,9.4083-1.9584,3.2969-3.8758,6.6168-5.7715,9.95-3.7168,6.5349-7.347,13.1179-11.0173,19.6787-1.8686,3.34-3.7472,6.6742-5.6574,9.9907-1.8415,3.1975-3.7107,6.3774-5.6373,9.5247-1.0707,1.7493-2.1587,3.4872-3.272,5.2099-1.0591,1.6388-2.1399,3.2621-3.2532,4.8649-1.0449,1.5042-2.1162,2.9877-3.2285,4.4432-1.028,1.3453-2.087,2.6624-3.1973,3.9412" fill="none" stroke="#3bc2d2" stroke-linecap="round" stroke-linejoin="round" stroke-width=".75"/>
  <path d="M210.0322,38.8621c-3.3495.1875-6.6977.3811-10.0419.655-3.1128.255-6.2127.5794-9.3028,1.0439-6.4986.9767-12.5972,2.5233-18.6595,5.141-6.0132,2.5964-11.4225,6.0068-16.5375,10.0567-2.4596,1.9475-4.8085,4.0083-7.0876,6.1627-2.4301,2.2971-4.7619,4.6827-7.0329,7.136-2.1536,2.3263-4.2442,4.7053-6.2954,7.1221-2.1387,2.5201-4.2306,5.077-6.2964,7.6568-4.046,5.0525-7.9862,10.1864-11.9501,15.3026-2.0108,2.5952-4.0272,5.1858-6.0699,7.7562-1.9845,2.4974-3.9921,4.9749-6.0501,7.4126-2.1803,2.5825-4.463,5.1745-6.8031,7.6154-1.0965,1.1437-2.2145,2.2639-3.3656,3.353-1.0809,1.0227-2.1865,2.0142-3.3323,2.9642" fill="none" stroke="#3bc2d2" stroke-linecap="round" stroke-linejoin="round" stroke-width=".75"/>
  <path d="M210.0322,38.8621c-2.7565.0647-5.513.1311-8.269.216-2.5899.0798-5.1788.1758-7.7668.3045-5.3474.266-10.6706.6715-15.9832,1.3689-5.3347.7003-10.5007,1.673-15.7106,3.0286-5.2117,1.3562-10.2163,3.0305-15.218,5.0192-4.9749,1.978-9.8153,4.2162-14.6024,6.6048-4.7845,2.3873-9.4934,4.9136-14.1995,7.4488-4.6209,2.4895-9.5042,5.1324-14.2011,7.4794-2.4436,1.2211-4.9051,2.3983-7.4063,3.498-2.3815,1.0469-4.8296,2.0356-7.29,2.8852" fill="none" stroke="#3bc2d2" stroke-linecap="round" stroke-linejoin="round" stroke-width=".75"/>
  <path d="M210.0322,38.8621c-4.8922-.0425-9.7843-.0865-14.676-.172-4.8895-.0853-9.7765-.2129-14.6623-.4315-10.0387-.4491-19.2454-1.2448-29.1986-2.6554-4.8723-.6905-9.6346-1.4868-14.4742-2.3752-4.8097-.8828-9.6039-1.8412-14.3967-2.81-4.7139-.9529-9.6629-1.9637-14.3891-2.8548-4.7535-.8963-9.6782-1.749-14.4777-2.3726" fill="none" stroke="#3bc2d2" stroke-linecap="round" stroke-linejoin="round" stroke-width=".75"/>
  <path d="M210.0322,131.7439c-5.0333-.1417-10.078-.2908-15.1086-.5141-5.033-.2235-10.0574-.5233-15.076-.9795-10.3267-.9386-19.6985-2.4547-29.7695-4.95-4.9142-1.2176-9.7064-2.5964-14.538-4.1046-4.8085-1.5011-9.5805-3.1083-14.3497-4.7277-4.6875-1.5917-9.6155-3.2781-14.3344-4.777-4.7373-1.5047-9.7017-2.9635-14.5557-4.0605" fill="none" stroke="#002235" stroke-miterlimit="10" stroke-width=".75"/>
  <path d="M210.0322,131.7439c-3.0786-.2577-6.1558-.5243-9.229-.8416-2.8736-.2966-5.7396-.6376-8.5976-1.0627-5.9609-.8868-11.7084-2.1151-17.4415-4.0243-5.7314-1.9085-11.049-4.3658-16.2498-7.4293-5.1577-3.0382-9.9926-6.5522-14.6168-10.3349-4.6092-3.7703-9.0468-7.8397-13.3326-11.9664-4.3071-4.1473-8.5084-8.3988-12.7205-12.6407-2.1272-2.1423-4.2569-4.2821-6.4063-6.4023-2.1038-2.0753-4.2252-4.1311-6.3869-6.1465-2.2572-2.1046-4.5994-4.2028-6.9766-6.1727-2.1912-1.8156-4.5005-3.5965-6.8673-5.182" fill="none" stroke="#002235" stroke-miterlimit="10" stroke-width=".75"/>
  <path d="M210.0322,38.8621c-3.5415.2293-7.1202.4693-10.6533.8173-3.2951.3244-6.5682.7446-9.8251,1.3567-6.8921,1.2952-13.1706,3.3563-19.3576,6.7276-2.9122,1.5867-5.6567,3.3828-8.3039,5.3768-2.8457,2.1435-5.5365,4.4862-8.0991,6.9571-2.3857,2.3005-4.6527,4.7026-6.8452,7.1864-2.3558,2.6684-4.6105,5.414-6.8028,8.2172-2.0729,2.6505-4.0838,5.3452-6.056,8.0711-2.0578,2.8443-4.0707,5.7191-6.059,8.6122-3.8895,5.6595-7.6809,11.3842-11.5033,17.0885-1.9424,2.8985-3.8924,5.7916-5.871,8.6655-1.9155,2.7824-3.8564,5.5457-5.8511,8.2721-2.1287,2.9097-4.3637,5.8394-6.668,8.6141-1.0715,1.2902-2.1668,2.5577-3.2988,3.7954-1.0554,1.1536-2.1384,2.2771-3.2666,3.3602" fill="none" stroke="#000" stroke-linecap="round" stroke-linejoin="round" stroke-width=".25"/>
  <path d="M210.0322,38.8621c-2.629-.0513-5.2579-.1042-7.8865-.1712-2.4692-.0628-4.9379-.1381-7.4058-.2385-5.0956-.2071-10.1761-.5206-15.2498-1.0602-10.4652-1.1131-19.8247-3.0755-29.8289-6.3654-4.8607-1.5984-9.5834-3.4148-14.303-5.3841-4.702-1.9619-9.3444-4.0534-13.9834-6.1567-4.5633-2.0691-9.3794-4.2671-13.9979-6.2134-2.3925-1.0083-4.7981-1.9786-7.2328-2.8816-2.3348-.8659-4.7232-1.6788-7.115-2.3752" fill="none" stroke="#002235" stroke-miterlimit="10" stroke-width=".75"/>
  <path d="M38.7872,8.0158c0-.5513-.1039-1.0967-.3069-1.6093-.2199-.5555-.5512-1.0599-.9736-1.4823s-.9268-.7537-1.4823-.9736c-.5126-.2029-1.058-.307-1.6094-.307s-1.0967.1041-1.6093.307c-.5555.2198-1.0598.5511-1.4822.9735-.4225.4224-.7538.9268-.9737,1.4823-.2029.5126-.307,1.058-.307,1.6094s.1041,1.0967.307,1.6093c.2199.5555.5512,1.0599.9736,1.4823s.9267.7537,1.4822.9736c.5127.2029,1.0581.307,1.6094.307s1.0968-.1041,1.6094-.307c.5554-.2198,1.0598-.5511,1.4822-.9735s.7538-.9268.9736-1.4823c.203-.5126.307-1.058.307-1.6094Z" fill="#072334" stroke="#3bc2d2" stroke-miterlimit="10"/>
  <path d="M91.5716,162.5903c0-.827-.156-1.6451-.4604-2.4141-.3298-.8331-.8268-1.5896-1.4604-2.2233-.6337-.6337-1.3902-1.1307-2.2234-1.4605-.769-.3045-1.587-.4605-2.4142-.4605s-1.6451.156-2.414.4604c-.8332.3298-1.5897.8268-2.2234,1.4604-.6337.6337-1.1307,1.3903-1.4605,2.2234-.3044.769-.4604,1.587-.4604,2.4142s.156,1.6451.4604,2.4141c.3298.8331.8267,1.5896,1.4604,2.2233.6336.6337,1.3902,1.1307,2.2234,1.4605.769.3044,1.587.4605,2.4141.4605s1.6451-.156,2.4141-.4605c.8331-.3298,1.5897-.8267,2.2233-1.4604.6337-.6336,1.1307-1.3902,1.4605-2.2233.3045-.7691.4605-1.5872.4605-2.4142h0Z" fill="#fff" stroke="#3bc2d2" stroke-linecap="round" stroke-linejoin="round" stroke-width=".5"/>
  <path d="M92.3003,107.6305c0-.919-.1734-1.8279-.5116-2.6823-.3665-.9258-.9186-1.7664-1.6227-2.4704-.704-.7041-1.5446-1.2562-2.4704-1.6227-.8544-.3384-1.7633-.5117-2.6824-.5117s-1.8278.1734-2.6823.5116c-.9257.3665-1.7664.9186-2.4703,1.6226s-1.2563,1.5447-1.6228,2.4704c-.3383.8545-.5116,1.7634-.5116,2.6825s.1734,1.8278.5116,2.6823c.3665.9257.9186,1.7664,1.6226,2.4703s1.5446,1.2563,2.4704,1.6228c.8545.3383,1.7634.5116,2.6824.5116s1.8279-.1734,2.6823-.5116c.9258-.3665,1.7664-.9186,2.4704-1.6226s1.2562-1.5447,1.6227-2.4704c.3384-.8545.5117-1.7634.5117-2.6824Z" fill="#072334" stroke="#3bc2d2" stroke-miterlimit="10"/>
  <path d="M89.3854,76.7155c0-.5513-.1039-1.0967-.3069-1.6093-.2199-.5555-.5512-1.0598-.9736-1.4822-.4224-.4225-.9268-.7538-1.4823-.9737-.5126-.2029-1.058-.307-1.6094-.307s-1.0967.1041-1.6093.307c-.5555.2199-1.0598.5512-1.4822.9736-.4225.4224-.7538.9267-.9737,1.4822-.2029.5127-.307,1.0581-.307,1.6094s.1041,1.0967.307,1.6094c.2199.5554.5512,1.0598.9736,1.4822s.9267.7537,1.4822.9736c.5127.203,1.0581.307,1.6094.307s1.0967-.1039,1.6094-.3069c.5554-.2199,1.0598-.5512,1.4822-.9736s.7537-.9268.9736-1.4823c.203-.5126.307-1.058.307-1.6094Z" fill="#002235"/>
  <path d="M91.2072,59.5406c0-.7811-.1474-1.5536-.4349-2.28-.3115-.7868-.7808-1.5013-1.3792-2.0998-.5985-.5985-1.313-1.0678-2.0999-1.3794-.7264-.2875-1.499-.4349-2.2801-.4349s-1.5536.1474-2.2799.4349c-.7869.3115-1.5014.7808-2.0999,1.3793-.5985.5983-1.0678,1.3129-1.3793,2.0999-.2875.7263-.4349,1.4989-.4349,2.28s.1473,1.5536.4348,2.2799c.3115.7869.7808,1.5014,1.3793,2.0999s1.313,1.0678,2.0999,1.3794c.7263.2875,1.4989.4349,2.28.4349s1.5537-.1474,2.28-.4349c.7869-.3115,1.5013-.7808,2.0998-1.3793s1.0678-1.3129,1.3794-2.0999c.2875-.7263.4349-1.4989.4349-2.28Z" fill="#072334" stroke="#3bc2d2" stroke-miterlimit="10" stroke-width=".5"/>
  <path d="M51.8574,162.5903c0-.5513-.1041-1.0967-.307-1.6094-.2198-.5554-.5511-1.0598-.9735-1.4822-.4225-.4224-.9268-.7537-1.4823-.9736-.5126-.2029-1.058-.307-1.6094-.307s-1.0967.1039-1.6094.307c-.5554.2198-1.0598.5511-1.4822.9735s-.7537.9268-.9736,1.4823c-.2029.5126-.307,1.058-.307,1.6094s.1039,1.0967.307,1.6093c.2198.5555.5511,1.0598.9735,1.4823.4224.4224.9268.7537,1.4823.9736.5126.2029,1.058.307,1.6094.307s1.0967-.1041,1.6093-.307c.5555-.2199,1.0598-.5511,1.4823-.9735.4224-.4225.7537-.9268.9736-1.4823.2029-.5126.307-1.0581.307-1.6094Z" fill="#fff" stroke="#3bc2d2" stroke-linecap="round" stroke-linejoin="round"/>
  <path d="M81.4609,162.5903c0-.7351-.1387-1.4623-.4094-2.1458-.2932-.7407-.7349-1.4131-1.2981-1.9764-.5633-.5633-1.2357-1.005-1.9764-1.2982-.6836-.2707-1.4108-.4094-2.1459-.4094s-1.4623.1387-2.1458.4092c-.7407.2933-1.4131.7349-1.9764,1.2982s-1.005,1.2357-1.2982,1.9764c-.2707.6835-.4094,1.4107-.4094,2.1459s.1387,1.4623.4092,2.1458c.2933.7407.7349,1.4131,1.2982,1.9763.5633.5634,1.2357,1.005,1.9764,1.2983.6835.2707,1.4107.4094,2.1459.4094s1.4623-.1387,2.1458-.4094c.7407-.2932,1.4131-.7349,1.9763-1.2981.5634-.5633,1.005-1.2357,1.2983-1.9764.2707-.6836.4094-1.4108.4094-2.1459h0Z" fill="#072334" stroke="#3bc2d2" stroke-miterlimit="10"/>
  <path d="M33.5123,141.9803c0-.7742-.3063-1.5136-.8537-2.061s-1.2869-.8538-2.0612-.8538-1.5136.3062-2.061.8537c-.5475.5474-.8538,1.2869-.8538,2.0611s.3063,1.5137.8537,2.0611,1.2869.8538,2.0611.8538,1.5137-.3063,2.0611-.8537.8538-1.2869.8538-2.0612h0Z" fill="#3bc2d2" isolation="isolate" opacity=".5"/>
  <path d="M51.8574,141.9803c0-.5513-.1041-1.0967-.307-1.6093-.2198-.5555-.5511-1.0598-.9735-1.4822s-.9268-.7538-1.4823-.9737c-.5126-.2029-1.058-.307-1.6094-.307s-1.0967.1041-1.6094.307c-.5554.2199-1.0598.5512-1.4822.9736s-.7537.9267-.9736,1.4822c-.2029.5127-.307,1.0581-.307,1.6094s.1039,1.0967.307,1.6094c.2198.5554.5511,1.0598.9735,1.4822s.9268.7537,1.4823.9736c.5126.203,1.058.307,1.6094.307s1.0967-.1039,1.6093-.3069c.5555-.2199,1.0598-.5512,1.4823-.9736.4224-.4224.7537-.9268.9736-1.4823.2029-.5126.307-1.058.307-1.6094h0Z" fill="#3bc2d2" stroke="#002235" stroke-miterlimit="10" stroke-width=".5"/>
  <path d="M72.8075,141.9803c0-.827-.156-1.6451-.4604-2.414-.3298-.8332-.8267-1.5897-1.4604-2.2234s-1.3902-1.1305-2.2234-1.4605c-.769-.3044-1.587-.4604-2.4141-.4604s-1.6451.156-2.4141.4604c-.8331.3298-1.5897.8267-2.2233,1.4604-.6337.6336-1.1307,1.3902-1.4606,2.2234-.3044.769-.4604,1.587-.4604,2.4141s.156,1.6451.4604,2.4141c.3298.8331.8268,1.5897,1.4604,2.2233s1.3902,1.1307,2.2234,1.4605c.769.3045,1.587.4605,2.4142.4605s1.645-.156,2.414-.4604c.8332-.3298,1.5897-.8268,2.2234-1.4604.6337-.6337,1.1305-1.3902,1.4605-2.2234.3044-.769.4604-1.587.4604-2.4142h0Z" fill="#fff" stroke="#3bc2d2" stroke-miterlimit="10"/>
  <path d="M51.8574,128.2403c0-.5513-.1041-1.0967-.307-1.6093-.2198-.5555-.5511-1.0598-.9735-1.4822s-.9268-.7538-1.4823-.9737c-.5126-.2029-1.058-.307-1.6094-.307s-1.0967.1041-1.6094.307c-.5554.2199-1.0598.5512-1.4822.9736s-.7537.9267-.9736,1.4822c-.2029.5127-.307,1.0581-.307,1.6094s.1039,1.0967.307,1.6094c.2198.5554.5511,1.0598.9735,1.4822s.9268.7537,1.4823.9736c.5126.203,1.058.307,1.6094.307s1.0967-.1039,1.6093-.3069c.5555-.2199,1.0598-.5512,1.4823-.9736.4224-.4224.7537-.9268.9736-1.4823.2029-.5126.307-1.058.307-1.6094Z" fill="#3bc2d2" isolation="isolate" opacity=".5"/>
  <path d="M51.8574,107.6305c0-.5514-.1041-1.0968-.307-1.6094-.2198-.5554-.5511-1.0598-.9735-1.4822-.4225-.4224-.9268-.7538-1.4823-.9736-.5126-.203-1.058-.307-1.6094-.307s-1.0967.1039-1.6094.3069c-.5554.2199-1.0598.5512-1.4822.9736s-.7537.9268-.9736,1.4823c-.2029.5126-.307,1.058-.307,1.6094s.1039,1.0967.307,1.6093c.2198.5555.5511,1.0598.9735,1.4822.4224.4225.9268.7538,1.4823.9737.5126.2029,1.058.307,1.6094.307s1.0967-.1041,1.6093-.307c.5555-.2199,1.0598-.5512,1.4823-.9736.4224-.4224.7537-.9267.9736-1.4822.2029-.5127.307-1.0581.307-1.6094Z" fill="#002235"/>
  <path d="M42.5299,90.4555c0-.6774-.268-1.3244-.747-1.8034-.479-.4791-1.1261-.7471-1.8035-.7471s-1.3245.268-1.8035.747-.7471,1.1261-.7471,1.8035.2681,1.3245.7471,1.8035,1.1261.7471,1.8035.7471,1.3244-.268,1.8034-.7471c.4791-.479.7471-1.1259.7471-1.8035Z" fill="#fff" stroke="#3bc2d2" stroke-linecap="round" stroke-linejoin="round"/>
  <path d="M57.4206,76.7155c0-.5513-.1039-1.0967-.3069-1.6093-.2199-.5555-.5512-1.0598-.9736-1.4822-.4224-.4225-.9268-.7538-1.4823-.9737-.5126-.2029-1.058-.307-1.6094-.307s-1.0967.1041-1.6093.307c-.5555.2199-1.0598.5512-1.4822.9736-.4225.4224-.7538.9267-.9737,1.4822-.2029.5127-.307,1.0581-.307,1.6094s.1041,1.0967.307,1.6094c.2199.5554.5512,1.0598.9736,1.4822s.9267.7537,1.4822.9736c.5127.203,1.0581.307,1.6094.307s1.0967-.1039,1.6094-.3069c.5554-.2199,1.0598-.5512,1.4822-.9736s.7537-.9268.9736-1.4823c.203-.5126.307-1.058.307-1.6094Z" fill="#3bc2d2"/>
  <path d="M5.8297,59.5406c0-.7742-.3063-1.5136-.8537-2.0611-.5475-.5475-1.2869-.8537-2.0612-.8537s-1.5136.3062-2.061.8536-.8538,1.2869-.8538,2.0612.3063,1.5136.8537,2.0611c.5475.5475,1.2869.8537,2.0611.8537s1.5137-.3062,2.0611-.8537c.5475-.5474.8538-1.2869.8538-2.0611Z" fill="#3bc2d2"/>
  <path d="M63.2619,59.5406c0-.827-.156-1.6451-.4605-2.4141-.3298-.8331-.8267-1.5896-1.4603-2.2233-.6337-.6337-1.3903-1.1307-2.2234-1.4605-.7691-.3045-1.5872-.4605-2.4142-.4605s-1.6451.156-2.4141.4604c-.8331.3299-1.5896.8268-2.2233,1.4604-.6337.6337-1.1307,1.3903-1.4605,2.2234-.3045.769-.4605,1.5872-.4605,2.4142s.156,1.6451.4605,2.4141c.3298.8331.8267,1.5896,1.4603,2.2233.6337.6337,1.3903,1.1307,2.2234,1.4605.7691.3044,1.5872.4605,2.4142.4605s1.6451-.156,2.4141-.4605c.8331-.3298,1.5896-.8267,2.2233-1.4603.6337-.6337,1.1307-1.3903,1.4605-2.2234.3045-.7691.4605-1.5872.4605-2.4142Z" fill="#fff" stroke="#3bc2d2" stroke-linecap="round" stroke-linejoin="round" stroke-width=".5"/>
  <path d="M55.8167,42.3657c0-.5514-.1041-1.0968-.307-1.6094-.2199-.5554-.5512-1.0598-.9736-1.4822s-.9268-.7538-1.4822-.9736c-.5127-.203-1.0581-.307-1.6094-.307s-1.0968.1039-1.6094.3069c-.5555.2199-1.0598.5512-1.4822.9736s-.7538.9268-.9737,1.4823c-.2029.5126-.307,1.058-.307,1.6094s.1041,1.0967.307,1.6093c.2199.5555.5512,1.0598.9736,1.4822.4224.4225.9268.7538,1.4822.9737.5127.2029,1.0581.307,1.6095.307s1.0967-.1041,1.6093-.307c.5555-.2199,1.0598-.5512,1.4822-.9736s.7538-.9267.9737-1.4822c.2029-.5127.307-1.0581.307-1.6094Z" fill="#002235"/>
  <path d="M29.5342,25.1907c0-.7742-.3062-1.5136-.8537-2.061-.5474-.5475-1.2869-.8538-2.0611-.8538s-1.5136.3062-2.0611.8537c-.5475.5474-.8538,1.2869-.8538,2.0611s.3063,1.5137.8537,2.0611,1.2869.8538,2.0612.8538,1.5136-.3063,2.0611-.8537c.5474-.5475.8537-1.2869.8537-2.0612Z" fill="#3bc2d2" isolation="isolate" opacity=".5"/>
  <path d="M223.1489,38.8621c0-1.1027-.2081-2.1934-.614-3.2186-.4398-1.111-1.1022-2.1196-1.947-2.9644s-1.8537-1.5076-2.9646-1.9475c-1.0253-.4059-2.1162-.614-3.2189-.614s-2.1934.2081-3.2189.614c-1.1108.4398-2.1196,1.1024-2.9644,1.9472s-1.5074,1.8534-1.9472,2.9644c-.4061,1.0255-.614,2.1162-.614,3.2189s.2079,2.1936.614,3.2189c.4396,1.1108,1.1022,2.1196,1.947,2.9644s1.8537,1.5076,2.9646,1.9472c1.0253.4061,2.116.614,3.2189.614s2.1934-.2079,3.2186-.6138c1.111-.4398,2.1196-1.1024,2.9646-1.9472.8448-.8448,1.5074-1.8537,1.9472-2.9646.4059-1.0253.614-2.116.614-3.2189,0,0,.0001,0,.0001,0Z" fill="#3bc2d2" stroke="#002235" stroke-miterlimit="10"/>
  <path d="M223.1489,85.3029c0-1.1027-.2081-2.1934-.614-3.2186-.4398-1.111-1.1022-2.1196-1.947-2.9644s-1.8537-1.5076-2.9646-1.9475c-1.0253-.4059-2.1162-.614-3.2189-.614s-2.1934.2081-3.2189.614c-1.1108.4398-2.1196,1.1024-2.9644,1.9472s-1.5074,1.8537-1.9472,2.9644c-.4061,1.0255-.614,2.1162-.614,3.2189s.2079,2.1936.614,3.2189c.4396,1.1108,1.1022,2.1196,1.947,2.9644s1.8537,1.5076,2.9646,1.9472c1.0253.4061,2.116.6142,3.2189.6142s2.1934-.2081,3.2186-.614c1.111-.4398,2.1196-1.1024,2.9646-1.9472.8448-.8448,1.5074-1.8537,1.9472-2.9644.4059-1.0255.614-2.1162.614-3.2191h.0001Z" fill="#fff" stroke="#3bc2d2" stroke-miterlimit="10"/>
  <path d="M223.1489,131.744c0-1.1029-.2081-2.1936-.614-3.2189-.4398-1.111-1.1022-2.1196-1.947-2.9644-.845-.8448-1.8537-1.5076-2.9646-1.9475-1.0253-.4059-2.1162-.614-3.2189-.614s-2.1934.2081-3.2189.614c-1.1108.4398-2.1196,1.1024-2.9644,1.9472s-1.5074,1.8537-1.9472,2.9644c-.4061,1.0255-.614,2.1162-.614,3.2191s.2079,2.1934.614,3.2186c.4396,1.111,1.1022,2.1196,1.947,2.9644s1.8537,1.5076,2.9646,1.9475c1.0253.4059,2.116.614,3.2189.614s2.1934-.2081,3.2186-.614c1.111-.4398,2.1196-1.1024,2.9646-1.9472.8448-.8448,1.5074-1.8537,1.9472-2.9644.4059-1.0255.614-2.1162.614-3.2189h.0001Z" fill="#002235" stroke="#3bc2d2" stroke-miterlimit="10"/>
  <path d="M93.0291,8.0158c0-1.0109-.1908-2.0107-.5628-2.9506-.4032-1.0183-1.0105-1.943-1.7849-2.7174-.7744-.7745-1.6991-1.3819-2.7175-1.785-.9399-.3721-1.9397-.5628-2.9507-.5628s-2.0106.1907-2.9505.5627c-1.0183.4032-1.943,1.0105-2.7175,1.7849-.7744.7745-1.3819,1.6992-1.785,2.7175-.3721.94-.5628,1.9398-.5628,2.9507s.1907,2.0107.5628,2.9505c.4031,1.0184,1.0104,1.9431,1.7848,2.7175s1.6992,1.3819,2.7176,1.785c.9399.3721,1.9397.5628,2.9506.5628s2.0107-.1907,2.9506-.5627c1.0183-.4032,1.943-1.0105,2.7174-1.7849s1.3819-1.6992,1.785-2.7175c.3721-.94.5629-1.9398.5629-2.9507Z" fill="#002235"/>
  <path d="M93.7577,25.1907c0-1.1027-.208-2.1934-.6139-3.2187-.4398-1.1109-1.1023-2.1196-1.9471-2.9644s-1.8537-1.5075-2.9646-1.9474c-1.0253-.4059-2.1161-.614-3.2189-.614s-2.1934.208-3.2187.614c-1.1109.4397-2.1196,1.1023-2.9644,1.9471-.8449.8448-1.5075,1.8537-1.9474,2.9645-.4059,1.0254-.614,2.1161-.614,3.2189s.208,2.1935.614,3.2187c.4397,1.1109,1.1023,2.1196,1.9471,2.9645.8448.8448,1.8535,1.5075,2.9645,1.9472,1.0254.406,2.1161.6141,3.2189.6141s2.1935-.2081,3.2187-.614c1.1109-.4397,2.1196-1.1023,2.9645-1.9471.8448-.8449,1.5075-1.8537,1.9472-2.9645.406-1.0254.614-2.1161.614-3.219h.0001Z" fill="#fff" stroke="#3bc2d2" stroke-miterlimit="10" stroke-width=".5"/>
  <path d="M91.936,42.3657c0-.8731-.1647-1.7365-.4861-2.5482-.3482-.8795-.8727-1.6781-1.5415-2.3469-.6689-.6688-1.4675-1.1934-2.3469-1.5416-.8117-.3214-1.6752-.4861-2.5483-.4861s-1.7364.1647-2.5482.4861c-.8794.3482-1.6779.8726-2.3468,1.5415-.6689.6688-1.1934,1.4675-1.5416,2.3469-.3214.8117-.4861,1.6752-.4861,2.5483s.1647,1.7364.486,2.5482c.3482.8794.8727,1.6779,1.5415,2.3468.6689.6689,1.4675,1.1934,2.3469,1.5416.8117.3214,1.6752.4861,2.5483.4861s1.7364-.1647,2.5482-.486c.8795-.3482,1.6781-.8727,2.3469-1.5415.6688-.6689,1.1934-1.4675,1.5416-2.3469.3214-.8117.4861-1.6752.4861-2.5483Z" fill="#3bc2d2" stroke="#002235" stroke-miterlimit="10"/>
  <path d="M89.7498,90.4555c0-.5972-.1126-1.188-.3325-1.7434-.2381-.6017-.5971-1.1482-1.0547-1.6058s-1.004-.8165-1.6057-1.0547c-.5555-.2199-1.1463-.3326-1.7436-.3326s-1.188.1127-1.7434.3325c-.6017.2383-1.1482.5971-1.6058,1.0547s-.8166,1.0041-1.0547,1.6058c-.2199.5554-.3326,1.1462-.3326,1.7435s.1127,1.1881.3325,1.7435c.2383.6017.5971,1.1481,1.0547,1.6057s1.0041.8166,1.6058,1.0548c.5554.2199,1.1462.3325,1.7435.3325s1.1881-.1126,1.7435-.3325c.6017-.2381,1.1481-.5971,1.6057-1.0547s.8166-1.004,1.0548-1.6057c.2198-.5555.3325-1.1463.3325-1.7436Z" fill="#010101" stroke="#3bc2d2" stroke-miterlimit="10" stroke-width=".5"/>
  <path d="M65.7762,76.7155c0-.5973-.1127-1.188-.3325-1.7434-.2383-.6017-.5971-1.1482-1.0547-1.6058s-1.004-.8166-1.6058-1.0547c-.5554-.2199-1.1462-.3326-1.7435-.3326s-1.1881.1127-1.7435.3325c-.6017.2383-1.1481.5971-1.6057,1.0547s-.8166,1.0041-1.0548,1.6058c-.2198.5554-.3325,1.1462-.3325,1.7435s.1127,1.1881.3325,1.7435c.2383.6017.5971,1.1481,1.0547,1.6057s1.004.8166,1.6058,1.0548c.5554.2198,1.1462.3325,1.7435.3325s1.1881-.1126,1.7435-.3325c.6017-.2381,1.1481-.5971,1.6057-1.0547s.8166-1.004,1.0548-1.6057c.2198-.5555.3325-1.1463.3325-1.7436Z" fill="#010101" stroke="#3bc2d2" stroke-miterlimit="10"/>
  <path d="M78.1933,8.0158c0-.7351-.1387-1.4623-.4092-2.1458-.2933-.7407-.7349-1.4131-1.2982-1.9764s-1.2357-1.005-1.9764-1.2982c-.6835-.2707-1.4107-.4094-2.1459-.4094s-1.4623.1387-2.1458.4094c-.7405.2932-1.413.7348-1.9763,1.2981s-1.005,1.2357-1.2983,1.9764c-.2707.6835-.4094,1.4108-.4094,2.1459s.1387,1.4623.4094,2.1458c.2932.7407.7349,1.4131,1.2981,1.9764.5633.5633,1.2357,1.005,1.9764,1.2982.6836.2707,1.4108.4094,2.1459.4094s1.4623-.1387,2.1459-.4094c.7405-.2932,1.413-.7348,1.9763-1.2981s1.005-1.2357,1.2982-1.9764c.2707-.6835.4094-1.4108.4094-2.1459h0Z" fill="#3bc2d2" stroke="#002235" stroke-miterlimit="10"/>
</svg>