<?xml version="1.0" encoding="UTF-8"?>
<svg id="Layer_3" xmlns="http://www.w3.org/2000/svg" width="188.5097" height="183.2372" viewBox="0 0 188.5097 183.2372">
  <polygon points="174.7046 135.7013 187.9595 127.8916 169.9767 120.097 151.9938 113.749 134.0109 111.9312 116.0281 107.3231 98.0452 98.7791 80.0623 92.6865 66.8074 100.9717 53.5525 105.1218 40.2976 121.6594 27.0427 131.9975 13.7877 138.572 .5328 147.0801 18.5157 154.7332 36.4986 160.8893 54.4814 166.5337 72.4643 172.0638 90.4472 177.7256 108.43 182.961 121.685 172.4072 134.9399 162.6128 148.1948 153.925 161.4497 144.7561 174.7046 135.7013" fill="#2bc6d6"/>
  <line x1="108.3651" y1="89.0821" x2="108.4832" y2="89.0671" fill="none" stroke="#fff" stroke-linecap="round" stroke-linejoin="round" stroke-width=".2"/>
  <g>
    <line x1="84.7675" y1="108.8917" x2="98.0467" y2="98.8997" fill="none" stroke="#fff" stroke-linecap="round" stroke-linejoin="round" stroke-width=".25"/>
    <line x1="66.7883" y1="100.9645" x2="98.0467" y2="98.8997" fill="none" stroke="#fff" stroke-linecap="round" stroke-linejoin="round" stroke-width=".25"/>
    <line x1="66.7883" y1="100.9645" x2="84.7675" y2="108.8917" fill="none" stroke="#fff" stroke-linecap="round" stroke-linejoin="round" stroke-width=".25"/>
    <line x1="102.7508" y1="115.6903" x2="116.0301" y2="107.3932" fill="none" stroke="#fff" stroke-linecap="round" stroke-linejoin="round" stroke-width=".25"/>
    <line x1="84.7675" y1="108.8917" x2="102.7508" y2="115.6903" fill="none" stroke="#fff" stroke-linecap="round" stroke-linejoin="round" stroke-width=".25"/>
    <line x1="98.0467" y1="98.8997" x2="102.7508" y2="115.6903" fill="none" stroke="#fff" stroke-linecap="round" stroke-linejoin="round" stroke-width=".25"/>
    <line x1="71.5333" y1="117.7237" x2="84.7675" y2="108.8917" fill="none" stroke="#fff" stroke-linecap="round" stroke-linejoin="round" stroke-width=".25"/>
    <line x1="66.7883" y1="100.9645" x2="71.5333" y2="117.7237" fill="none" stroke="#fff" stroke-linecap="round" stroke-linejoin="round" stroke-width=".25"/>
    <line x1="53.5541" y1="105.2767" x2="71.5333" y2="117.7237" fill="none" stroke="#fff" stroke-linecap="round" stroke-linejoin="round" stroke-width=".25"/>
    <line x1="116.0301" y1="107.3932" x2="120.7341" y2="122.4889" fill="none" stroke="#fff" stroke-linecap="round" stroke-linejoin="round" stroke-width=".25"/>
    <line x1="102.7508" y1="115.6903" x2="120.7341" y2="122.4889" fill="none" stroke="#fff" stroke-linecap="round" stroke-linejoin="round" stroke-width=".25"/>
    <line x1="120.7341" y1="122.4889" x2="134.0133" y2="111.9319" fill="none" stroke="#fff" stroke-linecap="round" stroke-linejoin="round" stroke-width=".25"/>
    <line x1="89.5166" y1="125.0873" x2="102.7508" y2="115.6903" fill="none" stroke="#fff" stroke-linecap="round" stroke-linejoin="round" stroke-width=".25"/>
    <line x1="84.7675" y1="108.8917" x2="89.5166" y2="125.0873" fill="none" stroke="#fff" stroke-linecap="round" stroke-linejoin="round" stroke-width=".25"/>
    <line x1="71.5333" y1="117.7237" x2="89.5166" y2="125.0873" fill="none" stroke="#fff" stroke-linecap="round" stroke-linejoin="round" stroke-width=".25"/>
    <line x1="134.0133" y1="111.9319" x2="138.7174" y2="125.3325" fill="none" stroke="#fff" stroke-linecap="round" stroke-linejoin="round" stroke-width=".25"/>
    <line x1="120.7341" y1="122.4889" x2="138.7174" y2="125.3325" fill="none" stroke="#fff" stroke-linecap="round" stroke-linejoin="round" stroke-width=".25"/>
    <line x1="40.3199" y1="121.4534" x2="58.2991" y2="128.2507" fill="none" stroke="#fff" stroke-linecap="round" stroke-linejoin="round" stroke-width=".25"/>
    <line x1="58.2991" y1="128.2507" x2="71.5333" y2="117.7237" fill="none" stroke="#fff" stroke-linecap="round" stroke-linejoin="round" stroke-width=".25"/>
    <line x1="138.7174" y1="125.3325" x2="151.9966" y2="113.6456" fill="none" stroke="#fff" stroke-linecap="round" stroke-linejoin="round" stroke-width=".25"/>
    <line x1="53.5541" y1="105.2767" x2="58.2991" y2="128.2507" fill="none" stroke="#fff" stroke-linecap="round" stroke-linejoin="round" stroke-width=".25"/>
    <line x1="89.5166" y1="125.0873" x2="107.4999" y2="130.7559" fill="none" stroke="#fff" stroke-linecap="round" stroke-linejoin="round" stroke-width=".25"/>
    <line x1="89.5166" y1="125.0873" x2="120.7341" y2="122.4889" fill="none" stroke="#fff" stroke-linecap="round" stroke-linejoin="round" stroke-width=".25"/>
    <line x1="107.4999" y1="130.7559" x2="120.7341" y2="122.4889" fill="none" stroke="#fff" stroke-linecap="round" stroke-linejoin="round" stroke-width=".25"/>
    <line x1="138.7174" y1="125.3325" x2="156.7007" y2="132.6961" fill="none" stroke="#fff" stroke-linecap="round" stroke-linejoin="round" stroke-width=".25"/>
    <line x1="76.2824" y1="134.4843" x2="89.5166" y2="125.0873" fill="none" stroke="#fff" stroke-linecap="round" stroke-linejoin="round" stroke-width=".25"/>
    <line x1="58.2991" y1="128.2507" x2="76.2824" y2="134.4843" fill="none" stroke="#fff" stroke-linecap="round" stroke-linejoin="round" stroke-width=".25"/>
    <line x1="58.2991" y1="128.2507" x2="89.5166" y2="125.0873" fill="none" stroke="#fff" stroke-linecap="round" stroke-linejoin="round" stroke-width=".25"/>
    <line x1="138.7174" y1="125.3325" x2="169.9799" y2="119.8792" fill="none" stroke="#fff" stroke-linecap="round" stroke-linejoin="round" stroke-width=".25"/>
    <line x1="156.7007" y1="132.6961" x2="169.9799" y2="119.8792" fill="none" stroke="#fff" stroke-linecap="round" stroke-linejoin="round" stroke-width=".25"/>
    <line x1="107.4999" y1="130.7559" x2="125.4832" y2="136.4245" fill="none" stroke="#fff" stroke-linecap="round" stroke-linejoin="round" stroke-width=".25"/>
    <line x1="125.4832" y1="136.4245" x2="138.7174" y2="125.3325" fill="none" stroke="#fff" stroke-linecap="round" stroke-linejoin="round" stroke-width=".25"/>
    <line x1="107.4999" y1="130.7559" x2="138.7174" y2="125.3325" fill="none" stroke="#fff" stroke-linecap="round" stroke-linejoin="round" stroke-width=".25"/>
    <line x1="27.0407" y1="132.0104" x2="58.2991" y2="128.2507" fill="none" stroke="#fff" stroke-linecap="round" stroke-linejoin="round" stroke-width=".25"/>
    <line x1="45.0199" y1="136.5477" x2="58.2991" y2="128.2507" fill="none" stroke="#fff" stroke-linecap="round" stroke-linejoin="round" stroke-width=".25"/>
    <line x1="27.0407" y1="132.0104" x2="45.0199" y2="136.5477" fill="none" stroke="#fff" stroke-linecap="round" stroke-linejoin="round" stroke-width=".25"/>
    <line x1="76.2824" y1="134.4843" x2="94.2657" y2="140.1528" fill="none" stroke="#fff" stroke-linecap="round" stroke-linejoin="round" stroke-width=".25"/>
    <line x1="76.2824" y1="134.4843" x2="107.4999" y2="130.7559" fill="none" stroke="#fff" stroke-linecap="round" stroke-linejoin="round" stroke-width=".25"/>
    <line x1="94.2657" y1="140.1528" x2="107.4999" y2="130.7559" fill="none" stroke="#fff" stroke-linecap="round" stroke-linejoin="round" stroke-width=".25"/>
    <line x1="156.7007" y1="132.6961" x2="174.684" y2="135.5398" fill="none" stroke="#fff" stroke-linecap="round" stroke-linejoin="round" stroke-width=".25"/>
    <line x1="169.9799" y1="119.8792" x2="174.684" y2="135.5398" fill="none" stroke="#fff" stroke-linecap="round" stroke-linejoin="round" stroke-width=".25"/>
    <line x1="125.4832" y1="136.4245" x2="156.7007" y2="132.6961" fill="none" stroke="#fff" stroke-linecap="round" stroke-linejoin="round" stroke-width=".25"/>
    <line x1="143.4665" y1="140.9631" x2="156.7007" y2="132.6961" fill="none" stroke="#fff" stroke-linecap="round" stroke-linejoin="round" stroke-width=".25"/>
    <line x1="125.4832" y1="136.4245" x2="143.4665" y2="140.9631" fill="none" stroke="#fff" stroke-linecap="round" stroke-linejoin="round" stroke-width=".25"/>
    <line x1="63.0032" y1="143.3463" x2="76.2824" y2="134.4843" fill="none" stroke="#fff" stroke-linecap="round" stroke-linejoin="round" stroke-width=".25"/>
    <line x1="45.0199" y1="136.5477" x2="63.0032" y2="143.3463" fill="none" stroke="#fff" stroke-linecap="round" stroke-linejoin="round" stroke-width=".25"/>
    <line x1="45.0199" y1="136.5477" x2="76.2824" y2="134.4843" fill="none" stroke="#fff" stroke-linecap="round" stroke-linejoin="round" stroke-width=".25"/>
    <line x1="94.2657" y1="140.1528" x2="112.249" y2="145.8214" fill="none" stroke="#fff" stroke-linecap="round" stroke-linejoin="round" stroke-width=".25"/>
    <line x1="112.249" y1="145.8214" x2="125.4832" y2="136.4245" fill="none" stroke="#fff" stroke-linecap="round" stroke-linejoin="round" stroke-width=".25"/>
    <line x1="107.4999" y1="130.7559" x2="112.249" y2="145.8214" fill="none" stroke="#fff" stroke-linecap="round" stroke-linejoin="round" stroke-width=".25"/>
    <line x1="13.8065" y1="138.5825" x2="45.0199" y2="136.5477" fill="none" stroke="#fff" stroke-linecap="round" stroke-linejoin="round" stroke-width=".25"/>
    <line x1="13.8065" y1="138.5825" x2="31.7857" y2="143.6848" fill="none" stroke="#fff" stroke-linecap="round" stroke-linejoin="round" stroke-width=".25"/>
    <line x1="31.7857" y1="143.6848" x2="45.0199" y2="136.5477" fill="none" stroke="#fff" stroke-linecap="round" stroke-linejoin="round" stroke-width=".25"/>
    <line x1="63.0032" y1="143.3463" x2="94.2657" y2="140.1528" fill="none" stroke="#fff" stroke-linecap="round" stroke-linejoin="round" stroke-width=".25"/>
    <line x1="156.7007" y1="132.6961" x2="161.4498" y2="144.9368" fill="none" stroke="#fff" stroke-linecap="round" stroke-linejoin="round" stroke-width=".25"/>
    <line x1="143.4665" y1="140.9631" x2="161.4498" y2="144.9368" fill="none" stroke="#fff" stroke-linecap="round" stroke-linejoin="round" stroke-width=".25"/>
    <line x1="63.0032" y1="143.3463" x2="80.9865" y2="145.625" fill="none" stroke="#fff" stroke-linecap="round" stroke-linejoin="round" stroke-width=".25"/>
    <line x1="80.9865" y1="145.625" x2="94.2657" y2="140.1528" fill="none" stroke="#fff" stroke-linecap="round" stroke-linejoin="round" stroke-width=".25"/>
    <line x1="112.249" y1="145.8214" x2="130.2323" y2="148.6652" fill="none" stroke="#fff" stroke-linecap="round" stroke-linejoin="round" stroke-width=".25"/>
    <line x1="125.4832" y1="136.4245" x2="130.2323" y2="148.6652" fill="none" stroke="#fff" stroke-linecap="round" stroke-linejoin="round" stroke-width=".25"/>
    <line x1="130.2323" y1="148.6652" x2="143.4665" y2="140.9631" fill="none" stroke="#fff" stroke-linecap="round" stroke-linejoin="round" stroke-width=".25"/>
    <line x1="45.0199" y1="136.5477" x2="49.769" y2="149.9184" fill="none" stroke="#fff" stroke-linecap="round" stroke-linejoin="round" stroke-width=".25"/>
    <line x1="49.769" y1="149.9184" x2="63.0032" y2="143.3463" fill="none" stroke="#fff" stroke-linecap="round" stroke-linejoin="round" stroke-width=".25"/>
    <line x1="31.7857" y1="143.6848" x2="49.769" y2="149.9184" fill="none" stroke="#fff" stroke-linecap="round" stroke-linejoin="round" stroke-width=".25"/>
    <line x1="98.9698" y1="152.4236" x2="112.249" y2="145.8214" fill="none" stroke="#fff" stroke-linecap="round" stroke-linejoin="round" stroke-width=".25"/>
    <line x1="80.9865" y1="145.625" x2="98.9698" y2="152.4236" fill="none" stroke="#fff" stroke-linecap="round" stroke-linejoin="round" stroke-width=".25"/>
    <line x1="80.9865" y1="145.625" x2="112.249" y2="145.8214" fill="none" stroke="#fff" stroke-linecap="round" stroke-linejoin="round" stroke-width=".25"/>
    <line x1=".5273" y1="146.8795" x2="31.7857" y2="143.6848" fill="none" stroke="#fff" stroke-linecap="round" stroke-linejoin="round" stroke-width=".25"/>
    <line x1="18.5065" y1="154.8068" x2="31.7857" y2="143.6848" fill="none" stroke="#fff" stroke-linecap="round" stroke-linejoin="round" stroke-width=".25"/>
    <line x1="143.4665" y1="140.9631" x2="148.2156" y2="153.7688" fill="none" stroke="#fff" stroke-linecap="round" stroke-linejoin="round" stroke-width=".25"/>
    <line x1="130.2323" y1="148.6652" x2="148.2156" y2="153.7688" fill="none" stroke="#fff" stroke-linecap="round" stroke-linejoin="round" stroke-width=".25"/>
    <line x1="63.0032" y1="143.3463" x2="67.7523" y2="156.1519" fill="none" stroke="#fff" stroke-linecap="round" stroke-linejoin="round" stroke-width=".25"/>
    <line x1="49.769" y1="149.9184" x2="67.7523" y2="156.1519" fill="none" stroke="#fff" stroke-linecap="round" stroke-linejoin="round" stroke-width=".25"/>
    <line x1="67.7523" y1="156.1519" x2="80.9865" y2="145.625" fill="none" stroke="#fff" stroke-linecap="round" stroke-linejoin="round" stroke-width=".25"/>
    <line x1="98.9698" y1="152.4236" x2="116.9531" y2="156.9622" fill="none" stroke="#fff" stroke-linecap="round" stroke-linejoin="round" stroke-width=".25"/>
    <line x1="116.9531" y1="156.9622" x2="130.2323" y2="148.6652" fill="none" stroke="#fff" stroke-linecap="round" stroke-linejoin="round" stroke-width=".25"/>
    <line x1="112.249" y1="145.8214" x2="116.9531" y2="156.9622" fill="none" stroke="#fff" stroke-linecap="round" stroke-linejoin="round" stroke-width=".25"/>
    <line x1="36.4898" y1="161.0404" x2="49.769" y2="149.9184" fill="none" stroke="#fff" stroke-linecap="round" stroke-linejoin="round" stroke-width=".25"/>
    <line x1="31.7857" y1="143.6848" x2="36.4898" y2="161.0404" fill="none" stroke="#fff" stroke-linecap="round" stroke-linejoin="round" stroke-width=".25"/>
    <line x1="67.7523" y1="156.1519" x2="85.7356" y2="162.3855" fill="none" stroke="#fff" stroke-linecap="round" stroke-linejoin="round" stroke-width=".25"/>
    <line x1="67.7523" y1="156.1519" x2="98.9698" y2="152.4236" fill="none" stroke="#fff" stroke-linecap="round" stroke-linejoin="round" stroke-width=".25"/>
    <line x1="85.7356" y1="162.3855" x2="98.9698" y2="152.4236" fill="none" stroke="#fff" stroke-linecap="round" stroke-linejoin="round" stroke-width=".25"/>
    <line x1="116.9531" y1="156.9622" x2="134.9364" y2="162.6308" fill="none" stroke="#fff" stroke-linecap="round" stroke-linejoin="round" stroke-width=".25"/>
    <line x1="116.9531" y1="156.9622" x2="148.2156" y2="153.7688" fill="none" stroke="#fff" stroke-linecap="round" stroke-linejoin="round" stroke-width=".25"/>
    <line x1="54.4731" y1="166.709" x2="67.7523" y2="156.1519" fill="none" stroke="#fff" stroke-linecap="round" stroke-linejoin="round" stroke-width=".25"/>
    <line x1="36.4898" y1="161.0404" x2="67.7523" y2="156.1519" fill="none" stroke="#fff" stroke-linecap="round" stroke-linejoin="round" stroke-width=".25"/>
    <line x1="85.7356" y1="162.3855" x2="103.7189" y2="166.9242" fill="none" stroke="#fff" stroke-linecap="round" stroke-linejoin="round" stroke-width=".25"/>
    <line x1="98.9698" y1="152.4236" x2="103.7189" y2="166.9242" fill="none" stroke="#fff" stroke-linecap="round" stroke-linejoin="round" stroke-width=".25"/>
    <line x1="103.7189" y1="166.9242" x2="116.9531" y2="156.9622" fill="none" stroke="#fff" stroke-linecap="round" stroke-linejoin="round" stroke-width=".25"/>
    <line x1="54.4731" y1="166.709" x2="85.7356" y2="162.3855" fill="none" stroke="#fff" stroke-linecap="round" stroke-linejoin="round" stroke-width=".25"/>
    <line x1="72.4563" y1="171.8126" x2="85.7356" y2="162.3855" fill="none" stroke="#fff" stroke-linecap="round" stroke-linejoin="round" stroke-width=".25"/>
    <line x1="103.7189" y1="166.9242" x2="121.7022" y2="172.5928" fill="none" stroke="#fff" stroke-linecap="round" stroke-linejoin="round" stroke-width=".25"/>
    <line x1="116.9531" y1="156.9622" x2="121.7022" y2="172.5928" fill="none" stroke="#fff" stroke-linecap="round" stroke-linejoin="round" stroke-width=".25"/>
    <line x1="85.7356" y1="162.3855" x2="90.4397" y2="177.4812" fill="none" stroke="#fff" stroke-linecap="round" stroke-linejoin="round" stroke-width=".25"/>
    <line x1="90.4397" y1="177.4812" x2="103.7189" y2="166.9242" fill="none" stroke="#fff" stroke-linecap="round" stroke-linejoin="round" stroke-width=".25"/>
    <line x1="90.4397" y1="177.4812" x2="121.7022" y2="172.5928" fill="none" stroke="#fff" stroke-linecap="round" stroke-linejoin="round" stroke-width=".25"/>
  </g>
  <g>
    <polygon points="130.2323 91.9017 125.4832 79.661 138.7174 68.5691 156.7007 75.9326 143.4665 84.1997 130.2323 91.9017" fill="#002235"/>
    <g>
      <line x1="125.4832" y1="79.661" x2="156.7007" y2="75.9326" fill="none" stroke="#fff" stroke-linecap="round" stroke-linejoin="round" stroke-width=".25"/>
      <line x1="125.4832" y1="79.661" x2="143.4665" y2="84.1997" fill="none" stroke="#fff" stroke-linecap="round" stroke-linejoin="round" stroke-width=".25"/>
    </g>
  </g>
  <polygon points="49.814 149.9184 45.0649 136.5477 58.3441 128.2507 89.5616 125.0873 107.5449 130.7559 94.3107 140.1528 81.0315 145.625 67.7973 156.1519 49.814 149.9184" fill="#002235" isolation="isolate" opacity=".3"/>
  <g>
    <polygon points="49.814 71.8551 45.0649 58.4845 58.3441 50.1875 89.5616 47.024 107.5449 52.6926 94.3107 62.0896 81.0315 67.5618 67.7973 78.0887 49.814 71.8551" fill="#002235"/>
    <line x1="76.3274" y1="56.421" x2="89.5616" y2="47.024" fill="none" stroke="#fff" stroke-linecap="round" stroke-linejoin="round" stroke-width=".25"/>
    <line x1="58.3441" y1="50.1875" x2="76.3274" y2="56.421" fill="none" stroke="#fff" stroke-linecap="round" stroke-linejoin="round" stroke-width=".25"/>
    <line x1="58.3441" y1="50.1875" x2="89.5616" y2="47.024" fill="none" stroke="#fff" stroke-linecap="round" stroke-linejoin="round" stroke-width=".25"/>
    <line x1="45.0649" y1="58.4845" x2="58.3441" y2="50.1875" fill="none" stroke="#fff" stroke-linecap="round" stroke-linejoin="round" stroke-width=".25"/>
    <line x1="76.3274" y1="56.421" x2="94.3107" y2="62.0896" fill="none" stroke="#fff" stroke-linecap="round" stroke-linejoin="round" stroke-width=".25"/>
    <line x1="76.3274" y1="56.421" x2="107.5449" y2="52.6926" fill="none" stroke="#fff" stroke-linecap="round" stroke-linejoin="round" stroke-width=".25"/>
    <line x1="63.0482" y1="65.2831" x2="76.3274" y2="56.421" fill="none" stroke="#fff" stroke-linecap="round" stroke-linejoin="round" stroke-width=".25"/>
    <line x1="45.0649" y1="58.4845" x2="63.0482" y2="65.2831" fill="none" stroke="#fff" stroke-linecap="round" stroke-linejoin="round" stroke-width=".25"/>
    <line x1="45.0649" y1="58.4845" x2="76.3274" y2="56.421" fill="none" stroke="#fff" stroke-linecap="round" stroke-linejoin="round" stroke-width=".25"/>
    <line x1="63.0482" y1="65.2831" x2="94.3107" y2="62.0896" fill="none" stroke="#fff" stroke-linecap="round" stroke-linejoin="round" stroke-width=".25"/>
    <line x1="63.0482" y1="65.2831" x2="81.0315" y2="67.5618" fill="none" stroke="#fff" stroke-linecap="round" stroke-linejoin="round" stroke-width=".25"/>
    <line x1="81.0315" y1="67.5618" x2="94.3107" y2="62.0896" fill="none" stroke="#fff" stroke-linecap="round" stroke-linejoin="round" stroke-width=".25"/>
    <line x1="45.0649" y1="58.4845" x2="49.814" y2="71.8551" fill="none" stroke="#fff" stroke-linecap="round" stroke-linejoin="round" stroke-width=".25"/>
    <line x1="49.814" y1="71.8551" x2="63.0482" y2="65.2831" fill="none" stroke="#fff" stroke-linecap="round" stroke-linejoin="round" stroke-width=".25"/>
    <line x1="63.0482" y1="65.2831" x2="67.7973" y2="78.0887" fill="none" stroke="#fff" stroke-linecap="round" stroke-linejoin="round" stroke-width=".25"/>
    <line x1="49.814" y1="71.8551" x2="67.7973" y2="78.0887" fill="none" stroke="#fff" stroke-linecap="round" stroke-linejoin="round" stroke-width=".25"/>
    <line x1="67.7973" y1="78.0887" x2="81.0315" y2="67.5618" fill="none" stroke="#fff" stroke-linecap="round" stroke-linejoin="round" stroke-width=".25"/>
  </g>
  <polygon points="174.7046 135.7013 187.9595 127.8916 169.9767 120.097 151.9938 113.749 134.0109 111.9312 116.0281 107.3231 98.0452 98.7791 80.0623 92.6865 66.8074 100.9717 53.5525 105.1218 40.2976 121.6594 27.0427 131.9975 13.7877 138.572 .5328 147.0801 18.5157 154.7332 36.4986 160.8893 54.4814 166.5337 72.4643 172.0638 90.4472 177.7256 108.43 182.961 121.685 172.4072 134.9399 162.6128 148.1948 153.925 161.4497 144.7561 174.7046 135.7013" fill="none" stroke="#002235" stroke-miterlimit="10" stroke-width=".5"/>
  <polygon points="130.2323 148.6652 125.4832 136.4245 138.7174 125.3325 156.7007 132.6961 143.4665 140.9631 130.2323 148.6652" fill="#002235" isolation="isolate" opacity=".3"/>
  <path d="M97.0144,7.8263c1.6223.6774,4.27,1.1223,6.8325,1.0358,2.5625-.0865,5.0396-.7044,6.4283-1.4834,1.4769-.7441,2.447-1.9585,2.2584-3.1338s-1.5359-2.3114-3.2343-2.9483c-1.6223-.6774-4.27-1.1223-6.8325-1.0359-2.5625.0865-5.0396.7045-6.4283,1.4834-1.4769.7441-2.447,1.9585-2.2584,3.1338.1886,1.1752,1.5358,2.3114,3.2343,2.9483h0Z" fill="#2bc6d6" stroke="#002235" stroke-miterlimit="10" stroke-width=".5"/>
  <path d="M71.7592,21.2772c1.0539.4401,2.774.7291,4.4388.6729,1.6647-.0562,3.274-.4576,4.1762-.9637.9595-.4834,1.5897-1.2723,1.4672-2.0359s-.9978-1.5016-2.1012-1.9154c-1.0539-.4401-2.7741-.7291-4.4388-.6729-1.6647.0562-3.274.4576-4.1761.9637-.9595.4834-1.5897,1.2723-1.4672,2.0359.1225.7635.9978,1.5016,2.1012,1.9154h-.0001Z" fill="#002235"/>
  <path d="M71.7592,122.5098c1.0539.4401,2.774.7291,4.4388.6729,1.6647-.0562,3.274-.4576,4.1762-.9637.9595-.4834,1.5897-1.2723,1.4672-2.0359s-.9978-1.5016-2.1012-1.9154c-1.0539-.4401-2.7741-.7291-4.4388-.6729-1.6647.0562-3.274.4576-4.1761.9637-.9595.4834-1.5897,1.2723-1.4672,2.0359.1225.7635.9978,1.5016,2.1012,1.9154h-.0001Z" fill="#002235" isolation="isolate" opacity=".3"/>
  <path d="M97.0144,118.2059c1.6223.6774,4.27,1.1223,6.8325,1.0358s5.0396-.7044,6.4283-1.4834c1.4769-.7441,2.447-1.9585,2.2584-3.1338s-1.5359-2.3114-3.2343-2.9483c-1.6223-.6774-4.27-1.1223-6.8325-1.0359-2.5625.0865-5.0396.7045-6.4283,1.4834-1.4769.7441-2.447,1.9585-2.2584,3.1338.1886,1.1752,1.5358,2.3114,3.2343,2.9483h0Z" fill="#002235" isolation="isolate" opacity=".3"/>
  <path d="M141.3898,30.4887c1.7314.3365,4.3838-.3057,4.755-1.1512.7336-.7941-.6664-2.0106-2.5098-2.1809-1.7314-.3365-4.3838.3057-4.755,1.1512-.7336.7941.6665,2.0107,2.5099,2.1809h-.0001Z" fill="#002235"/>
  <path d="M141.3898,138.9846c1.7314.3365,4.3838-.3057,4.755-1.1512.7336-.7941-.6664-2.0106-2.5098-2.1809-1.7314-.3365-4.3838.3057-4.755,1.1512-.7336.7941.6665,2.0107,2.5099,2.1809h-.0001Z" fill="#002235" isolation="isolate" opacity=".3"/>
  <path d="M40.4042,40.3608c1.7833-.3572,3.5276-1.1794,4.3028-2.1623.7752-.983.5813-2.1267-.2912-2.9245-.7788-.8179-2.5714-1.618-4.7146-1.9735-2.1431-.3556-4.6368-.2666-6.3762.1335-1.7833.3572-3.5276,1.1794-4.3028,2.1623-.7752.983-.5813,2.1267.2911,2.9245.7788.8179,2.5714,1.6179,4.7146,1.9735s4.6368.2666,6.3762-.1335h0Z" fill="#2bc6d6" stroke="#002235" stroke-miterlimit="10"/>
  <path d="M40.4042,146.3523c1.7833-.3572,3.5276-1.1794,4.3028-2.1623.7752-.983.5813-2.1267-.2912-2.9245-.7788-.8179-2.5714-1.618-4.7146-1.9735-2.1431-.3556-4.6368-.2666-6.3762.1335-1.7833.3572-3.5276,1.1794-4.3028,2.1623-.7752.983-.5813,2.1267.2911,2.9245.7788.8179,2.5714,1.6179,4.7146,1.9735s4.6368.2666,6.3762-.1335h0Z" fill="#002235" isolation="isolate" opacity=".3"/>
  <path d="M103.7972,35.0065c.9844-.0488,2.1043-.3262,2.8071-.7492.7028-.4231.9885-.9919.8298-1.4402-.0699-.9621-2.7327-1.8926-4.7736-1.6681-.9844.0488-2.1043.3261-2.8071.7492-.7028.4231-.9885.9919-.8298,1.4402.0699.9621,2.7326,1.8926,4.7735,1.6681h0Z" fill="#072334" stroke="#2bc6d6" stroke-miterlimit="10"/>
  <path d="M119.7781,44.1584c.6729-.0334,1.4383-.2229,1.9187-.5121.4803-.2892.6756-.678.5672-.9844-.0478-.6576-1.8678-1.2936-3.2627-1.1401-.6729.0334-1.4383.2229-1.9186.5121s-.6756.678-.5672.9844c.0477.6576,1.8677,1.2936,3.2627,1.1401h0Z" fill="#2bc6d6"/>
  <path d="M119.7781,130.3326c.6729-.0334,1.4383-.2229,1.9187-.5121.4803-.2892.6756-.678.5672-.9844-.0478-.6576-1.8678-1.2936-3.2627-1.1401-.6729.0334-1.4383.2229-1.9186.5121-.4803.2892-.6756.678-.5672.9844.0477.6576,1.8677,1.2936,3.2627,1.1401h0Z" fill="#002235" isolation="isolate" opacity=".3"/>
  <path d="M103.7972,150.5939c.9844-.0488,2.1043-.3262,2.8071-.7492.7028-.4231.9885-.9919.8298-1.4402-.0699-.9621-2.7327-1.8926-4.7736-1.6681-.9844.0488-2.1043.3261-2.8071.7492s-.9885.9919-.8298,1.4402c.0699.9621,2.7326,1.8926,4.7735,1.6681h0Z" fill="#002235" isolation="isolate" opacity=".3"/>
  <path d="M162.5722,52.2019c2.2112-.1097,4.7267-.7326,6.3053-1.6829s2.2203-2.228,1.864-3.2349c-.1569-2.161-6.138-4.2511-10.7223-3.7468-2.2112.1097-4.7267.7325-6.3053,1.6829s-2.2203,2.228-1.864,3.2349c.1569,2.161,6.138,4.2511,10.7223,3.7468Z" fill="#002235" stroke="#2bc6d6" stroke-miterlimit="10" stroke-width=".5"/>
  <path d="M162.5722,136.7315c2.2112-.1097,4.7267-.7326,6.3053-1.6829s2.2203-2.228,1.864-3.2349c-.1569-2.161-6.138-4.2511-10.7223-3.7468-2.2112.1097-4.7267.7325-6.3053,1.6829s-2.2203,2.228-1.864,3.2349c.1569,2.161,6.138,4.2511,10.7223,3.7468Z" fill="#002235" isolation="isolate" opacity=".3"/>
</svg>