<?xml version="1.0" encoding="UTF-8"?>
<svg id="Layer_1" xmlns="http://www.w3.org/2000/svg" width="22.2383" height="24.974" viewBox="0 0 22.2383 24.974">
  <path d="M21.5261,9.2127l-9.722,6.8054c-.4556.3189-1.0621.3189-1.5177,0L.5644,9.2127c-.7526-.5268-.7526-1.6414,0-2.1682L10.2864.2392c.4556-.3189,1.0621-.3189,1.5177,0l9.722,6.8054c.7526.5268.7526,1.6414,0,2.1682h0Z" fill="#072334"/>
  <path d="M18.1628,13.9409l-6.2108,4.3475c-.4556.3189-1.0621.3189-1.5177,0l-6.2108-4.3475c-.2734-.1914-.6373-.1914-.9106,0l-2.6005,1.8204c-.7525.5268-.7525,1.6413,0,2.1681l9.722,6.8054c.4556.3189,1.0621.3189,1.5177,0l9.722-6.8054c.7526-.5268.7526-1.6413,0-2.1681l-2.6005-1.8204c-.2734-.1914-.6373-.1914-.9106,0Z" fill="#072334"/>
</svg>