<?xml version="1.0" encoding="UTF-8"?>
<svg id="Layer_2" xmlns="http://www.w3.org/2000/svg" width="136.0727mm" height="29.3649mm" viewBox="0 0 385.7178 83.239">
  <path d="M381.3167,49.9126l-26.5648-10.6259-26.5648,10.6259c-.6795.2364-1.2246,1.0416-1.1917,1.7603-.0329.7187.5123,1.5239,1.1917,1.7602l26.5648,10.6259,26.5648-10.6259c.6794-.2364,1.2246-1.0416,1.1917-1.7602.0329-.7187-.5123-1.5239-1.1917-1.7603Z" fill="#fff"/>
  <g>
    <path d="M385.7173,44.3516V10.5963S359.5636.1348,359.5636.1348c-.5479-.2355-1.2818-.1564-1.767.1904-.5022.3217-.8481.9737-.833,1.5699v33.7554s26.1537,10.4615,26.1537,10.4615c.5479.2355,1.2818.1564,1.767-.1904.5022-.3217.8482-.9737.833-1.5699Z" fill="#2bc6d6"/>
    <path d="M352.5401,1.8951v33.7554s-26.1537,10.4615-26.1537,10.4615c-.5479.2355-1.2818.1564-1.767-.1904-.5022-.3217-.8481-.9737-.833-1.5699V10.5963S349.9401.1348,349.9401.1348c.5479-.2355,1.2818-.1564,1.7669.1904.5022.3217.8482.9737.833,1.5699Z" fill="#2bc6d6"/>
  </g>
  <g>
    <line x1="352.54" y1="35.6504" x2="323.7864" y2="10.5963" fill="none" stroke="#062334" stroke-miterlimit="10" stroke-width=".4"/>
    <line x1="333.371" y1="6.7625" x2="333.371" y2="43.3181" fill="none" stroke="#062334" stroke-miterlimit="10" stroke-width=".4"/>
    <line x1="323.7864" y1="22.7815" x2="352.54" y2="11.28" fill="none" stroke="#062334" stroke-miterlimit="10" stroke-width=".4"/>
    <line x1="323.7864" y1="34.9667" x2="352.54" y2="23.4652" fill="none" stroke="#062334" stroke-miterlimit="10" stroke-width=".4"/>
    <line x1="342.9555" y1="2.9287" x2="342.9555" y2="39.4842" fill="none" stroke="#062334" stroke-miterlimit="10" stroke-width=".4"/>
    <line x1="352.54" y1="23.4652" x2="333.371" y2="6.7625" fill="none" stroke="#062334" stroke-miterlimit="10" stroke-width=".4"/>
    <line x1="333.371" y1="43.3181" x2="323.7864" y2="34.9667" fill="none" stroke="#062334" stroke-miterlimit="10" stroke-width=".4"/>
    <line x1="342.9555" y1="39.4842" x2="323.7864" y2="22.7815" fill="none" stroke="#062334" stroke-miterlimit="10" stroke-width=".4"/>
    <line x1="352.54" y1="11.28" x2="342.9555" y2="2.9287" fill="none" stroke="#062334" stroke-miterlimit="10" stroke-width=".4"/>
  </g>
  <g>
    <rect x="64.1985" y="67.9844" width="174.7401" height="15.2012" fill="none"/>
    <path d="M72.6875,68.8547h-6.3896v3.855h5.9844v.855h-5.9844v4.2295h6.4502v.8701h-7.4697v-10.6797h7.4092v.8701Z" fill="#fff"/>
    <path d="M80.7725,78.6194c-.2295.0801-.4795.1201-.75.1201-.4092,0-.6797-.125-.8096-.375s-.1953-.5952-.1953-1.0352c-.6494,1.0298-1.6191,1.5449-2.9092,1.5449-.79,0-1.4082-.1899-1.8525-.5698-.4453-.3799-.668-.9102-.668-1.5898,0-1.3901.9551-2.1851,2.8652-2.3853.0996-.0098.2402-.0225.4199-.0376.1797-.0146.3125-.0273.3975-.0371.085-.0103.1953-.0225.3301-.0376s.2354-.0273.2998-.0376c.0654-.0098.1455-.0249.2402-.0449s.1699-.04.2246-.0601c.0557-.02.1123-.0425.1729-.0674.0596-.0249.1152-.0527.165-.0825.1797-.1201.2695-.3652.2695-.7349,0-.6104-.1699-1.04-.5098-1.29s-.8398-.375-1.5-.375c-.6494,0-1.1475.1475-1.4922.4424s-.5479.7524-.6074,1.3726h-.9004c.04-.8301.3301-1.4702.8701-1.9199.54-.4502,1.2852-.6753,2.2354-.6753.8799,0,1.5723.1904,2.0771.5703s.7578.9297.7578,1.6499v4.1997c0,.2002.0049.3428.0146.4277s.0527.165.127.2397c.0752.0752.1982.1128.3682.1128.1299,0,.25-.0151.3594-.0454v.7202ZM78.5303,74.7121c-.2051.0649-.3926.1123-.5625.1421-.1699.0303-.46.0703-.8701.1201-.0996.0103-.1748.02-.2246.0303-.3203.04-.582.085-.7871.1348-.2051.0503-.4404.1323-.7051.2476-.2656.1147-.4648.2749-.6006.48-.1348.2051-.2021.4575-.2021.7573,0,.4502.1602.8076.4795,1.0728.3203.2646.75.3975,1.29.3975.7305,0,1.3506-.2178,1.8604-.6528.5098-.4346.7646-1.0073.7646-1.7173v-1.2598c-.0898.1001-.2373.1821-.4424.2476Z" fill="#fff"/>
    <path d="M86.4277,73.2043c-.0898-1.1196-.7852-1.6797-2.085-1.6797-.5498,0-.9873.1147-1.3125.3447s-.4873.54-.4873.9302c0,.1899.0352.355.1045.4951.0703.1396.1504.2524.2402.3374s.248.1675.4727.2476.4199.1426.585.1875.4326.1074.8027.1875c.3301.0801.5947.145.7949.1948s.4473.1377.7422.2627.5273.2598.6973.4048.3174.3398.4424.585.1875.5225.1875.8325c0,.71-.2822,1.2822-.8467,1.7173-.5654.4351-1.3027.6528-2.2129.6528-.9902,0-1.7598-.2402-2.3096-.7202s-.835-1.1602-.8555-2.04h.915c0,.6401.2002,1.1299.6006,1.4702.3994.3398.96.5098,1.6797.5098.6299,0,1.1377-.1372,1.5225-.4126.3848-.2749.5771-.6372.5771-1.0874,0-.2397-.0625-.4497-.1875-.6299s-.292-.3223-.502-.4272-.418-.1904-.623-.2554-.4219-.1221-.6523-.1724c-.0703-.0098-.1201-.02-.1504-.0298-.0693-.02-.2295-.0576-.4795-.1128-.25-.0547-.4248-.0947-.5254-.1196-.0996-.0254-.2598-.0728-.4795-.1426-.2197-.0703-.3799-.1353-.4805-.1953-.0996-.0601-.2275-.145-.3818-.2549-.1553-.1099-.2705-.2275-.3457-.3525-.0742-.125-.1396-.2725-.1943-.4424-.0557-.1699-.083-.3599-.083-.5698,0-.6699.2529-1.2002.7578-1.5898.5049-.3901,1.1973-.5854,2.0771-.5854s1.585.2104,2.1152.6304.7949,1.0298.7949,1.8296h-.915Z" fill="#fff"/>
    <path d="M92.0078,78.9494c-.3799,1.02-.71,1.7148-.9902,2.085-.2793.3696-.71.5547-1.29.5547-.25,0-.5244-.0249-.8242-.0747v-.8252c.2793.0698.5049.105.6748.105.3799,0,.667-.1401.8623-.4199s.417-.7651.667-1.4551c.0107-.04.0205-.0674.0303-.0825.0098-.0146.0205-.0376.0303-.0674s.0195-.0576.0303-.0825c.0098-.0249.0195-.0522.0293-.0825l-3.1045-7.6494h1.0352l2.085,5.3096c.0801.21.2344.665.4648,1.3647.2598-.8496.415-1.3398.4648-1.4697l1.9053-5.2046h.96l-3.0303,7.9946Z" fill="#fff"/>
    <path d="M108.8525,78.6643h-1.125l-1.29-3.3599h-4.8896l-1.3047,3.3599h-1.0947l4.3193-10.7095h1.125l4.2598,10.7095ZM104.0225,68.9148l-2.1592,5.5645h4.2598l-2.1006-5.5645Z" fill="#fff"/>
    <path d="M115.0693,78.072c-.5645.5449-1.3018.8174-2.2119.8174-1.0801,0-1.9453-.3652-2.5947-1.0952-.6504-.73-.9756-1.6997-.9756-2.9097,0-1.2603.3281-2.2676.9824-3.0225.6553-.7549,1.5273-1.1323,2.6172-1.1323.8906,0,1.6133.2349,2.168.7051.5547.4697.8877,1.1196.9971,1.9497h-.96c-.25-1.25-.9795-1.875-2.1895-1.875-.8105,0-1.4521.2974-1.9277.8926-.4746.5947-.7119,1.3975-.7119,2.4072s.2295,1.8125.6895,2.4077c.46.5947,1.0801.8921,1.8604.8921.6494,0,1.1797-.1924,1.5898-.5771.4102-.3853.665-.9277.7646-1.6274h.9453c-.1299.8999-.4775,1.6221-1.043,2.1675Z" fill="#fff"/>
    <path d="M122.8701,78.072c-.5654.5449-1.3027.8174-2.2129.8174-1.0801,0-1.9443-.3652-2.5947-1.0952s-.9746-1.6997-.9746-2.9097c0-1.2603.3271-2.2676.9824-3.0225.6543-.7549,1.5273-1.1323,2.6172-1.1323.8896,0,1.6123.2349,2.167.7051.5557.4697.8877,1.1196.998,1.9497h-.96c-.25-1.25-.9805-1.875-2.1904-1.875-.8096,0-1.4521.2974-1.9268.8926-.4756.5947-.7129,1.3975-.7129,2.4072s.2305,1.8125.6904,2.4077c.46.5947,1.0791.8921,1.8594.8921.6504,0,1.1797-.1924,1.5898-.5771.4102-.3853.665-.9277.7656-1.6274h.9443c-.1299.8999-.4775,1.6221-1.042,2.1675Z" fill="#fff"/>
    <path d="M130.5576,78.177c-.5703.4946-1.2998.7422-2.1895.7422-1.0703,0-1.9277-.3647-2.5732-1.0947-.6445-.73-.9668-1.7051-.9668-2.9248s.3271-2.2178.9824-2.9927c.6543-.7749,1.502-1.1626,2.542-1.1626,1.0898,0,1.9277.3853,2.5127,1.1553s.877,1.7246.877,2.8647v.27h-5.9541c0,.8901.2168,1.6323.6523,2.2275.4346.5947,1.0869.8926,1.957.8926,1.2705,0,2.0557-.6753,2.3555-2.0249h.915c-.1699.8696-.54,1.5522-1.1104,2.0474ZM130.0625,72.2522c-.4395-.4854-1.0195-.7275-1.7402-.7275-.7793,0-1.3721.2549-1.7773.7651-.4043.5098-.6572,1.1699-.7568,1.9795h5.0098c-.0498-.8599-.2949-1.5322-.7354-2.0171Z" fill="#fff"/>
    <path d="M137.668,73.2043c-.0908-1.1196-.7852-1.6797-2.085-1.6797-.5508,0-.9883.1147-1.3125.3447-.3252.23-.4883.54-.4883.9302,0,.1899.0352.355.1055.4951.0703.1396.1504.2524.2402.3374s.2471.1675.4727.2476c.2246.0801.4199.1426.585.1875.1641.0449.4316.1074.8018.1875.3301.0801.5957.145.7949.1948.2002.0498.4482.1377.7432.2627s.5273.2598.6973.4048.3174.3398.4424.585.1875.5225.1875.8325c0,.71-.2822,1.2822-.8477,1.7173-.5645.4351-1.3027.6528-2.2119.6528-.9902,0-1.7607-.2402-2.3105-.7202s-.835-1.1602-.8545-2.04h.915c0,.6401.1992,1.1299.5996,1.4702.4004.3398.96.5098,1.6797.5098.6299,0,1.1377-.1372,1.5225-.4126.3857-.2749.5781-.6372.5781-1.0874,0-.2397-.0625-.4497-.1875-.6299s-.293-.3223-.5029-.4272-.417-.1904-.6221-.2554-.4229-.1221-.6523-.1724c-.0703-.0098-.1201-.02-.1504-.0298-.0703-.02-.2305-.0576-.4805-.1128-.25-.0547-.4248-.0947-.5244-.1196-.1006-.0254-.2598-.0728-.4805-.1426-.2197-.0703-.3799-.1353-.4795-.1953-.1006-.0601-.2275-.145-.3828-.2549s-.2695-.2275-.3447-.3525-.1396-.2725-.1953-.4424c-.0547-.1699-.082-.3599-.082-.5698,0-.6699.252-1.2002.7568-1.5898.5059-.3901,1.1982-.5854,2.0781-.5854s1.585.2104,2.1143.6304c.5303.4199.7949,1.0298.7949,1.8296h-.9141Z" fill="#fff"/>
    <path d="M144.8975,73.2043c-.0898-1.1196-.7852-1.6797-2.085-1.6797-.5498,0-.9873.1147-1.3125.3447s-.4873.54-.4873.9302c0,.1899.0352.355.1045.4951.0703.1396.1504.2524.2402.3374s.248.1675.4727.2476.4199.1426.585.1875.4326.1074.8027.1875c.3301.0801.5947.145.7949.1948s.4473.1377.7422.2627.5273.2598.6973.4048.3174.3398.4424.585.1875.5225.1875.8325c0,.71-.2822,1.2822-.8467,1.7173-.5654.4351-1.3027.6528-2.2129.6528-.9902,0-1.7598-.2402-2.3096-.7202s-.835-1.1602-.8555-2.04h.915c0,.6401.2002,1.1299.6006,1.4702.3994.3398.96.5098,1.6797.5098.6299,0,1.1377-.1372,1.5225-.4126.3848-.2749.5771-.6372.5771-1.0874,0-.2397-.0625-.4497-.1875-.6299s-.292-.3223-.502-.4272-.418-.1904-.623-.2554-.4219-.1221-.6523-.1724c-.0703-.0098-.1201-.02-.1504-.0298-.0693-.02-.2295-.0576-.4795-.1128-.25-.0547-.4248-.0947-.5254-.1196-.0996-.0254-.2598-.0728-.4795-.1426-.2197-.0703-.3799-.1353-.4805-.1953-.0996-.0601-.2275-.145-.3818-.2549-.1553-.1099-.2705-.2275-.3457-.3525-.0742-.125-.1396-.2725-.1943-.4424-.0557-.1699-.083-.3599-.083-.5698,0-.6699.2529-1.2002.7578-1.5898.5049-.3901,1.1973-.5854,2.0771-.5854s1.585.2104,2.1152.6304.7949,1.0298.7949,1.8296h-.915Z" fill="#fff"/>
    <path d="M154.7676,71.7195h-1.5898v4.8901c0,.2598.0049.4424.0146.5474s.043.23.0977.375.1523.2422.293.2925c.1396.0498.3301.0747.5693.0747.1406,0,.3457-.0146.6152-.0449v.8101c-.3096.04-.585.0601-.8252.0601-.9297,0-1.4648-.2949-1.6045-.8853-.0605-.25-.0898-.8149-.0898-1.6948v-4.4248h-1.3652v-.7646h1.3652v-2.355h.9297v2.355h1.5898v.7646Z" fill="#fff"/>
    <path d="M162.0791,71.8396c.6553.7397.9824,1.7397.9824,3,0,1.25-.3242,2.2373-.9746,2.9624-.6494.7246-1.5352,1.0874-2.6543,1.0874-1.1201,0-2.0127-.3677-2.6777-1.1025s-.998-1.7275-.998-2.9775c0-1.2397.333-2.23.998-2.9697s1.5576-1.1099,2.6777-1.1099c1.1094,0,1.9922.3701,2.6465,1.1099ZM157.4521,72.4172c-.4902.5947-.7354,1.3921-.7354,2.3921,0,1.02.2432,1.8252.7275,2.415.4854.5898,1.1533.8848,2.0029.8848.8203,0,1.4697-.2949,1.9502-.8848.4795-.5898.7197-1.3901.7197-2.3999s-.2451-1.8125-.7354-2.4072c-.4893-.5952-1.1445-.8926-1.9648-.8926-.8193,0-1.4746.2974-1.9648.8926Z" fill="#fff"/>
    <path d="M176.9746,69.2898c.9346,1.04,1.4023,2.395,1.4023,4.0649,0,1.6597-.4648,3.002-1.3945,4.0273-.9307,1.0249-2.1504,1.5371-3.6602,1.5371-1.5,0-2.71-.5146-3.6299-1.5449-.9199-1.0298-1.3799-2.3799-1.3799-4.0498s.4619-3.02,1.3877-4.0498c.9248-1.0298,2.1367-1.5449,3.6367-1.5449,1.4902,0,2.7021.52,3.6377,1.5601ZM170.4346,69.9045c-.7344.8599-1.1025,1.9902-1.1025,3.3901,0,1.4297.3652,2.5771,1.0957,3.4424.7295.8647,1.6992,1.2974,2.9092,1.2974s2.1826-.4302,2.918-1.29c.7344-.8599,1.1025-1.9951,1.1025-3.4048s-.3701-2.5498-1.1104-3.4199-1.7148-1.3052-2.9248-1.3052c-1.1904,0-2.1523.4302-2.8877,1.29Z" fill="#fff"/>
    <path d="M180.7168,72.4397c.5605-1.1401,1.4805-1.71,2.7607-1.71,1.0498,0,1.8916.375,2.5273,1.125.6348.75.9521,1.7446.9521,2.9849,0,1.2197-.3154,2.2021-.9453,2.9473s-1.4648,1.1177-2.5049,1.1177c-1.2998,0-2.21-.5552-2.7295-1.665v4.3047h-.915v-10.5894h.8545v1.4849ZM181.4443,72.3947c-.4648.5898-.6973,1.3999-.6973,2.4297,0,1.0098.2373,1.8101.7129,2.3999.4746.5898,1.1172.8848,1.9268.8848.79,0,1.4229-.2974,1.8975-.8921.4756-.5952.7129-1.3877.7129-2.3774,0-1.0103-.2373-1.8174-.7129-2.4224-.4746-.605-1.1172-.9077-1.9268-.9077-.8105,0-1.4482.2949-1.9131.8853Z" fill="#fff"/>
    <path d="M193.752,78.177c-.5703.4946-1.3008.7422-2.1904.7422-1.0703,0-1.9277-.3647-2.5723-1.0947-.6455-.73-.9678-1.7051-.9678-2.9248s.3281-2.2178.9824-2.9927c.6553-.7749,1.5029-1.1626,2.543-1.1626,1.0898,0,1.9268.3853,2.5117,1.1553s.8779,1.7246.8779,2.8647v.27h-5.9551c0,.8901.2178,1.6323.6523,2.2275.4355.5947,1.0879.8926,1.958.8926,1.2695,0,2.0547-.6753,2.3545-2.0249h.915c-.1699.8696-.54,1.5522-1.1094,2.0474ZM193.2568,72.2522c-.4404-.4854-1.0205-.7275-1.7402-.7275-.7803,0-1.3721.2549-1.7773.7651-.4053.5098-.6572,1.1699-.7578,1.9795h5.0098c-.0498-.8599-.2949-1.5322-.7344-2.0171Z" fill="#fff"/>
    <path d="M197.127,72.4094c.3203-.5698.6924-.9897,1.1172-1.2598s.9629-.4053,1.6123-.4053c.8008,0,1.4453.2202,1.9355.6602s.7344,1.1099.7344,2.0098v5.25h-.9443v-4.9497c0-1.4302-.6553-2.145-1.9648-2.145-.7402,0-1.3301.2476-1.7705.7427-.4395.4946-.6602,1.2222-.6602,2.1821v4.1699h-.9443v-7.7095h.8848v1.4546Z" fill="#fff"/>
    <path d="M212.5312,67.9846c1.5996,0,2.7949.4624,3.585,1.3877.79.9248,1.1846,2.1772,1.1846,3.7573,0,1.6196-.3848,2.9473-1.1543,3.9824-.7705,1.0347-1.9453,1.5522-3.5254,1.5522h-3.96v-10.6797h3.8701ZM209.6816,77.7942h2.6846c2.6104,0,3.915-1.5347,3.915-4.6045,0-1.3604-.3223-2.4224-.9678-3.1875-.6445-.7651-1.5723-1.1475-2.7822-1.1475h-2.8496v8.9395Z" fill="#fff"/>
    <path d="M225.5508,78.6194c-.2295.0801-.4795.1201-.75.1201-.4092,0-.6797-.125-.8096-.375s-.1953-.5952-.1953-1.0352c-.6494,1.0298-1.6191,1.5449-2.9092,1.5449-.79,0-1.4082-.1899-1.8525-.5698-.4453-.3799-.668-.9102-.668-1.5898,0-1.3901.9551-2.1851,2.8652-2.3853.0996-.0098.2402-.0225.4199-.0376.1797-.0146.3125-.0273.3975-.0371.085-.0103.1953-.0225.3301-.0376s.2354-.0273.2998-.0376c.0654-.0098.1455-.0249.2402-.0449s.1699-.04.2246-.0601c.0557-.02.1123-.0425.1729-.0674.0596-.0249.1152-.0527.165-.0825.1797-.1201.2695-.3652.2695-.7349,0-.6104-.1699-1.04-.5098-1.29s-.8398-.375-1.5-.375c-.6494,0-1.1475.1475-1.4922.4424s-.5479.7524-.6074,1.3726h-.9004c.04-.8301.3301-1.4702.8701-1.9199.54-.4502,1.2852-.6753,2.2354-.6753.8799,0,1.5723.1904,2.0771.5703s.7578.9297.7578,1.6499v4.1997c0,.2002.0049.3428.0146.4277s.0527.165.127.2397c.0752.0752.1982.1128.3682.1128.1299,0,.25-.0151.3594-.0454v.7202ZM223.3086,74.7121c-.2051.0649-.3926.1123-.5625.1421-.1699.0303-.46.0703-.8701.1201-.0996.0103-.1748.02-.2246.0303-.3203.04-.582.085-.7871.1348-.2051.0503-.4404.1323-.7051.2476-.2656.1147-.4648.2749-.6006.48-.1348.2051-.2021.4575-.2021.7573,0,.4502.1602.8076.4795,1.0728.3203.2646.75.3975,1.29.3975.7305,0,1.3506-.2178,1.8604-.6528.5098-.4346.7646-1.0073.7646-1.7173v-1.2598c-.0898.1001-.2373.1821-.4424.2476Z" fill="#fff"/>
    <path d="M229.6611,71.7195h-1.5898v4.8901c0,.2598.0059.4424.0156.5474s.042.23.0977.375c.0547.145.1523.2422.292.2925.1396.0498.3301.0747.5703.0747.1396,0,.3447-.0146.6143-.0449v.8101c-.3096.04-.585.0601-.8242.0601-.9307,0-1.4648-.2949-1.6055-.8853-.0596-.25-.0898-.8149-.0898-1.6948v-4.4248h-1.3652v-.7646h1.3652v-2.355h.9297v2.355h1.5898v.7646Z" fill="#fff"/>
    <path d="M237.8066,78.6194c-.2305.0801-.4805.1201-.75.1201-.4102,0-.6797-.125-.8096-.375-.1309-.25-.1953-.5952-.1953-1.0352-.6504,1.0298-1.6201,1.5449-2.9102,1.5449-.79,0-1.4072-.1899-1.8525-.5698-.4443-.3799-.667-.9102-.667-1.5898,0-1.3901.9551-2.1851,2.8643-2.3853.1006-.0098.2402-.0225.4199-.0376.1807-.0146.3125-.0273.3975-.0371.0859-.0103.1953-.0225.3301-.0376.1357-.0151.2354-.0273.3008-.0376.0645-.0098.1445-.0249.2393-.0449.0957-.02.1699-.04.2256-.0601.0547-.02.1123-.0425.1719-.0674.0605-.0249.1152-.0527.165-.0825.1807-.1201.2705-.3652.2705-.7349,0-.6104-.1699-1.04-.5098-1.29-.3408-.25-.8408-.375-1.5-.375-.6504,0-1.1475.1475-1.4932.4424-.3447.2949-.5469.7524-.6074,1.3726h-.8994c.04-.8301.3301-1.4702.8701-1.9199.54-.4502,1.2842-.6753,2.2344-.6753.8799,0,1.5723.1904,2.0771.5703.5059.3799.7578.9297.7578,1.6499v4.1997c0,.2002.0049.3428.0146.4277.0107.085.0527.165.1279.2397.0752.0752.1973.1128.3672.1128.1299,0,.25-.0151.3604-.0454v.7202ZM235.5645,74.7121c-.2051.0649-.3926.1123-.5625.1421-.1699.0303-.46.0703-.8701.1201-.1006.0103-.1748.02-.2256.0303-.3193.04-.582.085-.7871.1348-.2051.0503-.4395.1323-.7051.2476-.2646.1147-.4648.2749-.5996.48s-.2031.4575-.2031.7573c0,.4502.1602.8076.4805,1.0728.3203.2646.75.3975,1.29.3975.7295,0,1.3496-.2178,1.8594-.6528.5107-.4346.7656-1.0073.7656-1.7173v-1.2598c-.0898.1001-.2373.1821-.4424.2476Z" fill="#fff"/>
  </g>
  <g>
    <rect x=".0002" y="10.5963" width="303.1367" height="43.0879" fill="none"/>
    <path d="M19.7393,10.5974c6.3999,0,11.1797,1.8501,14.3394,5.5498s4.7397,8.7095,4.7397,15.0293c0,6.48-1.54,11.7896-4.6196,15.9292-3.0801,4.1401-7.7798,6.21-14.0996,6.21H4.2598V10.5974h15.4795ZM8.3398,49.8357h10.7393c10.4399,0,15.6597-6.1396,15.6597-18.4189,0-5.4399-1.29-9.6899-3.8701-12.7495-2.5796-3.0601-6.2896-4.5898-11.1294-4.5898h-11.3994v35.7583Z" fill="#fff"/>
    <path d="M49.8604,53.3156h-4.0806V10.5974h4.0806v42.7183Z" fill="#fff"/>
    <path d="M95.5186,53.3156h-2.7002l-.7197-6.0596-.1201-1.9199c-1.2803,2.8398-3.2305,5.0498-5.8496,6.6294-2.6201,1.5801-5.6699,2.3701-9.1504,2.3701-5.959,0-10.7988-2.0298-14.5186-6.0898-3.7207-4.0596-5.5801-9.3496-5.5801-15.8691,0-6.7197,1.8701-12.1797,5.6094-16.3794,3.7402-4.2002,8.6299-6.2998,14.6699-6.2998,4.5996,0,8.5391,1.25,11.8193,3.75,3.2793,2.4995,5.2598,5.9497,5.9395,10.3496h-3.8994c-.6006-3.2803-2.1904-5.8701-4.7705-7.77-2.5791-1.8999-5.5889-2.8496-9.0293-2.8496-4.96,0-8.9199,1.7397-11.8789,5.2197-2.96,3.48-4.4404,8.1196-4.4404,13.9194,0,5.6396,1.4902,10.1494,4.4697,13.5293,2.9805,3.3799,6.9102,5.0698,11.79,5.0698,3.7998,0,7.0293-1.1099,9.6895-3.3301,2.6602-2.2197,4.2695-5.1694,4.8301-8.8496.1592-1.1196.2393-2.3799.2393-3.7798h-14.6387v-3.3599h18.2393v21.7192Z" fill="#fff"/>
    <path d="M144.8379,53.3156h-3.8994v-25.7988c0-4.1602.1592-8.6396.4795-13.4395-.8398,2.6396-1.7803,5.2197-2.8193,7.7397l-12.5996,31.4985h-3.6602l-12.7793-31.1387c-.8799-2.1201-1.8203-4.7397-2.8203-7.8599.3203,4.6802.4805,9.0396.4805,13.0796v25.9189h-3.9004V10.5974h5.5205l12.4189,30.479c.4004.9995,1.3799,3.6797,2.9404,8.0396.1992-.52.6191-1.7202,1.2598-3.6001.6396-1.8799,1.1602-3.3198,1.5596-4.3198l12.2393-30.5986h5.5801v42.7183Z" fill="#fff"/>
    <path d="M185.8477,15.8171c3.7402,4.1597,5.6104,9.5796,5.6104,16.2593,0,6.6396-1.8604,12.0098-5.5801,16.1094-3.7197,4.1001-8.5996,6.1499-14.6396,6.1499-6,0-10.8398-2.0601-14.5195-6.1797-3.6797-4.1201-5.5195-9.5195-5.5195-16.1997s1.8496-12.0791,5.5498-16.1992c3.7002-4.1196,8.5498-6.1797,14.5498-6.1797,5.959,0,10.8096,2.0801,14.5488,6.2397ZM159.6885,18.2771c-2.9395,3.4399-4.4092,7.9595-4.4092,13.5596,0,5.7197,1.46,10.3096,4.3799,13.7695,2.9199,3.4595,6.7998,5.1895,11.6396,5.1895s8.7295-1.7197,11.6689-5.1597c2.9404-3.4399,4.4102-7.9795,4.4102-13.6196s-1.4805-10.1992-4.4395-13.6792c-2.96-3.48-6.8604-5.2197-11.7002-5.2197-4.7598,0-8.6094,1.7197-11.5498,5.1597Z" fill="#fff"/>
    <path d="M213.3584,10.5974c6.3994,0,11.1797,1.8501,14.3389,5.5498,3.1602,3.6997,4.7402,8.7095,4.7402,15.0293,0,6.48-1.54,11.7896-4.6201,15.9292-3.0801,4.1401-7.7793,6.21-14.0996,6.21h-15.8389V10.5974h15.4795ZM201.959,49.8357h10.7393c10.4395,0,15.6592-6.1396,15.6592-18.4189,0-5.4399-1.29-9.6899-3.8701-12.7495-2.5791-3.0601-6.2891-4.5898-11.1289-4.5898h-11.3994v35.7583Z" fill="#fff"/>
    <path d="M268.7383,14.0774h-25.5596v15.4194h23.9395v3.4194h-23.9395v16.9194h25.7988v3.48h-29.8779V10.5974h29.6387v3.48Z" fill="#fff"/>
    <path d="M302.877,53.3156h-28.0791V10.5974h4.0801v39.2383h23.999v3.48Z" fill="#fff"/>
  </g>
</svg>