<?xml version="1.0" encoding="UTF-8"?>
<svg xmlns="http://www.w3.org/2000/svg" viewBox="0 0 248.4806 64.3512">
  <g id="Layer_1">
    <path d="M210.8814,17.1477v16.8777s-13.0768,5.2307-13.0768,5.2307c-.2739.1178-.6409.0782-.8835-.0952-.2511-.1608-.4241-.4868-.4165-.7849v-16.8777s13.0768-5.2307,13.0768-5.2307c.274-.1178.6409-.0782.8835.0952.2511.1608.4241.4868.4165.7849Z" fill="#2bc6d6"/>
    <path d="M225.2697,41.1565l-13.2824-5.313-13.2824,5.313c-.3397.1182-.6123.5208-.5959.8801-.0164.3593.2561.7619.5959.8801l13.2824,5.313,13.2824-5.313c.3397-.1182.6123-.5208.5959-.8801.0164-.3593-.2562-.7619-.5959-.8801Z" fill="#002235"/>
    <path d="M227.47,38.376v-16.8777s-13.0768-5.2307-13.0768-5.2307c-.274-.1178-.6409-.0782-.8835.0952-.2511.1608-.4241.4868-.4165.7849v16.8777s13.0768,5.2307,13.0768,5.2307c.274.1178.6409.0782.8835-.0952.2511-.1608.4241-.4868.4165-.7849Z" fill="#2bc6d6"/>
    <g>
      <line x1="201.2969" y1="19.5815" x2="201.2969" y2="37.8592" fill="#fff" stroke="#fff" stroke-miterlimit="10" stroke-width=".2"/>
      <line x1="196.5046" y1="33.6835" x2="210.8814" y2="27.9328" fill="#fff" stroke="#fff" stroke-miterlimit="10" stroke-width=".2"/>
      <line x1="206.0891" y1="17.6645" x2="206.0891" y2="35.9423" fill="#fff" stroke="#fff" stroke-miterlimit="10" stroke-width=".2"/>
      <line x1="196.5046" y1="27.591" x2="210.8814" y2="21.8402" fill="#fff" stroke="#fff" stroke-miterlimit="10" stroke-width=".2"/>
      <line x1="201.2969" y1="37.8592" x2="196.5046" y2="33.6835" fill="#fff" stroke="#fff" stroke-miterlimit="10" stroke-width=".2"/>
      <line x1="206.0891" y1="35.9423" x2="196.5046" y2="27.591" fill="#fff" stroke="#fff" stroke-miterlimit="10" stroke-width=".2"/>
      <line x1="210.8814" y1="21.8402" x2="206.0891" y2="17.6645" fill="#fff" stroke="#fff" stroke-miterlimit="10" stroke-width=".2"/>
      <line x1="210.8814" y1="27.9328" x2="201.2969" y2="19.5815" fill="#fff" stroke="#fff" stroke-miterlimit="10" stroke-width=".2"/>
      <line x1="210.8814" y1="34.0254" x2="196.5046" y2="21.4984" fill="#fff" stroke="#fff" stroke-miterlimit="10" stroke-width=".2"/>
    </g>
    <g>
      <rect x="34.7024" y="21.3133" width="151.4379" height="23.4608" fill="none"/>
      <path d="M44.5715,21.3137c3.1992,0,5.5898.9253,7.1689,2.7749,1.5801,1.8501,2.3701,4.355,2.3701,7.5151,0,3.2397-.7695,5.8945-2.3096,7.9644s-3.8896,3.105-7.0498,3.105h-7.9199v-21.3594h7.7402ZM38.8713,40.9333h5.3701c5.2197,0,7.8291-3.0698,7.8291-9.21,0-2.7197-.6445-4.8447-1.9346-6.3745s-3.1445-2.2949-5.5645-2.2949h-5.7002v17.8794Z" fill="#002235"/>
      <path d="M59.631,42.6731h-2.04v-21.3594h2.04v21.3594Z" fill="#002235"/>
      <path d="M82.4602,42.6731h-1.3496l-.3604-3.0298-.0596-.96c-.6406,1.4199-1.6152,2.5249-2.9248,3.3149-1.3105.79-2.835,1.1846-4.5752,1.1846-2.9795,0-5.3994-1.0146-7.2598-3.0444-1.8594-2.0303-2.79-4.6748-2.79-7.9351,0-3.3599.9355-6.0898,2.8047-8.1895,1.8701-2.1001,4.3154-3.1499,7.335-3.1499,2.2998,0,4.2705.625,5.9102,1.875s2.6299,2.9746,2.9697,5.1748h-1.9502c-.2998-1.6401-1.0947-2.9351-2.3848-3.8848-1.29-.9502-2.7949-1.4253-4.5146-1.4253-2.4795,0-4.46.8701-5.9395,2.6099-1.4805,1.7402-2.2207,4.0601-2.2207,6.96,0,2.8198.7451,5.0747,2.2354,6.7646s3.4551,2.5347,5.8945,2.5347c1.9004,0,3.5146-.5547,4.8447-1.6646s2.1348-2.585,2.415-4.4248c.0801-.5601.1201-1.1899.1201-1.8901h-7.3193v-1.6797h9.1191v10.8594Z" fill="#002235"/>
      <path d="M107.1203,42.6731h-1.9502v-12.8994c0-2.0801.0801-4.3198.2402-6.7197-.4199,1.3198-.8906,2.6099-1.4102,3.8696l-6.2998,15.7495h-1.8301l-6.3896-15.5693c-.4404-1.0601-.9102-2.3701-1.4102-3.9297.1602,2.3398.2402,4.5195.2402,6.5396v12.9595h-1.9502v-21.3594h2.7598l6.21,15.2397c.2002.5.6904,1.8398,1.4697,4.0195.1006-.2598.3105-.8599.6299-1.7998.3203-.9399.5801-1.6597.7803-2.1597l6.1201-15.2998h2.79v21.3594Z" fill="#002235"/>
      <path d="M127.6252,23.924c1.8701,2.0796,2.8047,4.7896,2.8047,8.1294,0,3.3198-.9297,6.0049-2.79,8.0547-1.8594,2.0498-4.2998,3.0747-7.3193,3.0747-3,0-5.4199-1.0298-7.2598-3.0898-1.8398-2.0596-2.7598-4.7598-2.7598-8.0996s.9248-6.0396,2.7744-8.0996c1.8506-2.0601,4.2754-3.0898,7.2754-3.0898,2.9795,0,5.4043,1.04,7.2744,3.1201ZM114.5461,25.1535c-1.4707,1.7202-2.2051,3.98-2.2051,6.7798,0,2.8599.7295,5.1548,2.1895,6.8848s3.4004,2.5952,5.8203,2.5952,4.3643-.8604,5.834-2.5801c1.4707-1.7197,2.2051-3.9897,2.2051-6.8096s-.7393-5.1001-2.2197-6.8398c-1.4795-1.7397-3.4297-2.6099-5.8496-2.6099-2.3799,0-4.3047.8599-5.7744,2.5796Z" fill="#002235"/>
      <path d="M141.3801,21.3137c3.2002,0,5.5898.9253,7.1699,2.7749,1.5801,1.8501,2.3701,4.355,2.3701,7.5151,0,3.2397-.7705,5.8945-2.3105,7.9644-1.5391,2.0698-3.8896,3.105-7.0488,3.105h-7.9199v-21.3594h7.7393ZM135.6809,40.9333h5.3691c5.2197,0,7.8301-3.0698,7.8301-9.21,0-2.7197-.6455-4.8447-1.9346-6.3745-1.29-1.5298-3.1455-2.2949-5.5654-2.2949h-5.6992v17.8794Z" fill="#002235"/>
      <path d="M169.0705,23.0539h-12.7803v7.7095h11.9697v1.71h-11.9697v8.46h12.8994v1.7397h-14.9395v-21.3594h14.8203v1.7402Z" fill="#002235"/>
      <path d="M186.1398,42.6731h-14.04v-21.3594h2.04v19.6196h12v1.7397Z" fill="#002235"/>
    </g>
    <g>
      <rect x="66.6425" y="50.4131" width="87.5576" height="6.6391" fill="none"/>
      <path d="M70.8918,50.8435h-3.1982v1.9292h2.9951v.4277h-2.9951v2.1172h3.2285v.4355h-3.7393v-5.3452h3.709v.4355Z" fill="#002235"/>
      <path d="M74.9338,55.7307c-.1152.04-.2402.0601-.376.0601-.2051,0-.3398-.0625-.4053-.188-.0654-.125-.0977-.2974-.0977-.5176-.3252.5151-.8105.7729-1.4561.7729-.3955,0-.7051-.0952-.9277-.2852s-.334-.4556-.334-.7959c0-.6958.4785-1.0933,1.4346-1.1934.0498-.0054.1201-.0112.21-.019.0898-.0073.1562-.0137.1992-.0186.042-.0049.0967-.0112.165-.019.0674-.0073.1172-.0137.1494-.0186.0332-.0049.0732-.0127.1201-.0225.0479-.0103.0859-.02.1133-.0303.0273-.0098.0557-.021.0859-.0337s.0576-.0264.083-.041c.0898-.0605.1348-.1831.1348-.3682,0-.3052-.085-.5205-.2549-.6455-.1709-.125-.4209-.1875-.751-.1875-.3252,0-.5742.0737-.7471.2212s-.2744.3765-.3037.687h-.4512c.0205-.4155.166-.7358.4355-.9609.2705-.2251.6436-.3379,1.1191-.3379.4404,0,.7871.0952,1.0391.2852.2529.1904.3799.4658.3799.8262v2.1016c0,.1006.002.1719.0068.2144s.0264.0825.0645.1201c.0371.0376.0986.0562.1836.0562.0654,0,.125-.0073.1807-.0225v.3604ZM73.8107,53.7751c-.1025.0322-.1963.0562-.2812.0713s-.2305.0347-.4355.0601c-.0498.0049-.0879.0098-.1123.0146-.1602.0205-.292.043-.3945.0679s-.2197.0664-.3525.124c-.1328.0571-.2324.1372-.3008.2402-.0674.1025-.1006.229-.1006.3789,0,.2251.0801.4043.2402.5366.1602.1328.375.1992.6455.1992.3652,0,.6758-.1089.9307-.3267s.3828-.5044.3828-.8599v-.6304c-.0449.0503-.1191.0913-.2217.124Z" fill="#002235"/>
      <path d="M77.76,53.0207c-.0449-.5605-.3926-.8408-1.043-.8408-.2754,0-.4941.0571-.6572.1724s-.2441.2705-.2441.4653c0,.0952.0176.1777.0527.248.0352.0698.0752.1265.1201.1689s.124.0835.2363.1235.21.0713.293.0942c.083.0225.2168.0537.4014.0938.165.04.2979.0723.3984.0977.0996.0249.2236.0688.3711.1313s.2646.1299.3496.2026c.085.0723.1582.1699.2207.2925.0635.123.0947.2617.0947.417,0,.355-.1416.6416-.4248.8594-.2822.2178-.6514.3267-1.1074.3267-.4951,0-.8809-.1201-1.1562-.3604-.2744-.2402-.418-.5806-.4277-1.021h.458c0,.3203.1006.5654.3008.7358.2002.1699.4805.2549.8408.2549.3154,0,.5693-.0684.7617-.2061s.2891-.3193.2891-.5444c0-.1201-.0312-.2251-.0938-.3154-.0625-.0898-.1465-.1611-.252-.2139-.1045-.0527-.209-.0952-.3115-.1274-.1025-.0327-.2109-.0615-.3262-.0864-.0352-.0049-.0605-.0103-.0752-.0151-.0352-.0098-.1152-.0288-.2402-.0562-.125-.0278-.2129-.0479-.2627-.0601-.0498-.0127-.1299-.0361-.2402-.0713s-.1904-.0679-.2402-.0977c-.0498-.0303-.1143-.0728-.1914-.1279-.0781-.0547-.1348-.1138-.1729-.1763-.0371-.0625-.0703-.1362-.0977-.2212-.0273-.0854-.041-.1802-.041-.2856,0-.335.126-.6006.3789-.7954.2529-.1953.5996-.293,1.04-.293s.793.105,1.0586.3154c.2646.21.3975.5156.3975.916h-.458Z" fill="#002235"/>
      <path d="M80.549,55.8957c-.1904.5107-.3555.8584-.4951,1.0435-.1406.1851-.3555.2778-.6455.2778-.126,0-.2627-.0127-.4131-.0376v-.4126c.1396.0347.2529.0522.3379.0522.1895,0,.334-.0698.4316-.21s.209-.3828.334-.7285c.0049-.02.0098-.0337.0146-.041.0049-.0078.0098-.019.0156-.0337.0049-.0151.0098-.0288.0146-.0415s.0098-.0264.0146-.0415l-1.5537-3.8286h.5176l1.0439,2.6577c.04.105.1172.333.2324.6831.1309-.4253.208-.6704.2334-.7358l.9531-2.605h.4805l-1.5166,4.0015Z" fill="#002235"/>
      <path d="M88.9748,55.7531h-.5635l-.6455-1.6816h-2.4473l-.6533,1.6816h-.5479l2.1621-5.3604h.5635l2.1318,5.3604ZM86.5568,50.8733l-1.0811,2.7852h2.1328l-1.0518-2.7852Z" fill="#002235"/>
      <path d="M92.0822,55.4568c-.2832.2725-.6523.4092-1.1074.4092-.541,0-.9736-.1831-1.2988-.5483s-.4883-.8506-.4883-1.4561c0-.6309.1641-1.1353.4922-1.5132.3271-.3774.7637-.5664,1.3096-.5664.4453,0,.8066.1177,1.085.3525.2773.2354.4443.5605.499.9761h-.4805c-.125-.6255-.4902-.9385-1.0957-.9385-.4053,0-.7275.1489-.9648.4468-.2383.2979-.3564.6992-.3564,1.2051,0,.5054.1152.9067.3447,1.2046.2305.2979.541.4468.9316.4468.3252,0,.5898-.0962.7949-.2891.2061-.1924.333-.4644.3828-.8145h.4736c-.0654.4507-.2393.812-.5215,1.085Z" fill="#002235"/>
      <path d="M95.9826,55.4568c-.2832.2725-.6523.4092-1.1074.4092-.541,0-.9736-.1831-1.2988-.5483s-.4883-.8506-.4883-1.4561c0-.6309.1641-1.1353.4922-1.5132.3271-.3774.7637-.5664,1.3096-.5664.4453,0,.8066.1177,1.085.3525.2773.2354.4443.5605.499.9761h-.4805c-.125-.6255-.4902-.9385-1.0957-.9385-.4053,0-.7275.1489-.9648.4468-.2383.2979-.3564.6992-.3564,1.2051,0,.5054.1152.9067.3447,1.2046.2305.2979.541.4468.9316.4468.3252,0,.5898-.0962.7949-.2891.2061-.1924.333-.4644.3828-.8145h.4736c-.0654.4507-.2393.812-.5215,1.085Z" fill="#002235"/>
      <path d="M99.8254,55.509c-.2852.248-.6504.3716-1.0957.3716-.5352,0-.9648-.1826-1.2871-.5479-.3232-.3652-.4844-.8535-.4844-1.4639,0-.6108.1641-1.1099.4912-1.4976.3281-.3882.752-.582,1.2725-.582.5459,0,.9648.1929,1.2578.5781s.4395.8633.4395,1.4336v.1353h-2.9805c0,.4458.1084.8174.3262,1.1147.2178.2979.5439.4468.9795.4468.6357,0,1.0293-.3379,1.1787-1.0132h.458c-.085.4351-.2705.7769-.5557,1.0244ZM99.5783,52.5437c-.2207-.2427-.5107-.3638-.8711-.3638-.3906,0-.6865.1274-.8896.3828-.2031.2549-.3291.5854-.3789.9907h2.5068c-.0244-.4302-.1475-.7671-.3672-1.0098Z" fill="#002235"/>
      <path d="M103.3801,53.0207c-.0449-.5605-.3926-.8408-1.043-.8408-.2754,0-.4941.0571-.6572.1724s-.2441.2705-.2441.4653c0,.0952.0176.1777.0527.248.0352.0698.0752.1265.1201.1689s.124.0835.2363.1235.21.0713.293.0942c.083.0225.2168.0537.4014.0938.165.04.2979.0723.3984.0977.0996.0249.2236.0688.3711.1313s.2646.1299.3496.2026c.085.0723.1582.1699.2207.2925.0635.123.0947.2617.0947.417,0,.355-.1416.6416-.4248.8594-.2822.2178-.6514.3267-1.1074.3267-.4951,0-.8809-.1201-1.1562-.3604-.2744-.2402-.418-.5806-.4277-1.021h.458c0,.3203.1006.5654.3008.7358.2002.1699.4805.2549.8408.2549.3154,0,.5693-.0684.7617-.2061s.2891-.3193.2891-.5444c0-.1201-.0312-.2251-.0938-.3154-.0625-.0898-.1465-.1611-.252-.2139-.1045-.0527-.209-.0952-.3115-.1274-.1025-.0327-.2109-.0615-.3262-.0864-.0352-.0049-.0605-.0103-.0752-.0151-.0352-.0098-.1152-.0288-.2402-.0562-.125-.0278-.2129-.0479-.2627-.0601-.0498-.0127-.1299-.0361-.2402-.0713s-.1904-.0679-.2402-.0977c-.0498-.0303-.1143-.0728-.1914-.1279-.0781-.0547-.1348-.1138-.1729-.1763-.0371-.0625-.0703-.1362-.0977-.2212-.0273-.0854-.041-.1802-.041-.2856,0-.335.126-.6006.3789-.7954.2529-.1953.5996-.293,1.04-.293s.793.105,1.0586.3154c.2646.21.3975.5156.3975.916h-.458Z" fill="#002235"/>
      <path d="M106.9953,53.0207c-.0449-.5605-.3926-.8408-1.043-.8408-.2754,0-.4941.0571-.6572.1724s-.2441.2705-.2441.4653c0,.0952.0176.1777.0527.248.0352.0698.0752.1265.1201.1689s.124.0835.2363.1235.21.0713.293.0942c.083.0225.2168.0537.4014.0938.165.04.2979.0723.3984.0977.0996.0249.2236.0688.3711.1313s.2646.1299.3496.2026c.085.0723.1582.1699.2207.2925.0635.123.0947.2617.0947.417,0,.355-.1416.6416-.4248.8594-.2822.2178-.6514.3267-1.1074.3267-.4951,0-.8809-.1201-1.1562-.3604-.2744-.2402-.418-.5806-.4277-1.021h.458c0,.3203.1006.5654.3008.7358.2002.1699.4805.2549.8408.2549.3154,0,.5693-.0684.7617-.2061s.2891-.3193.2891-.5444c0-.1201-.0312-.2251-.0938-.3154-.0625-.0898-.1465-.1611-.252-.2139-.1045-.0527-.209-.0952-.3115-.1274-.1025-.0327-.2109-.0615-.3262-.0864-.0352-.0049-.0605-.0103-.0752-.0151-.0352-.0098-.1152-.0288-.2402-.0562-.125-.0278-.2129-.0479-.2627-.0601-.0498-.0127-.1299-.0361-.2402-.0713s-.1904-.0679-.2402-.0977c-.0498-.0303-.1143-.0728-.1914-.1279-.0781-.0547-.1348-.1138-.1729-.1763-.0371-.0625-.0703-.1362-.0977-.2212-.0273-.0854-.041-.1802-.041-.2856,0-.335.126-.6006.3789-.7954.2529-.1953.5996-.293,1.04-.293s.793.105,1.0586.3154c.2646.21.3975.5156.3975.916h-.458Z" fill="#002235"/>
      <path d="M111.9289,52.2771h-.7949v2.4478c0,.1299.002.2212.0068.2739.0049.0522.0215.1152.0488.1875.0273.0728.0762.1216.1465.1465s.165.0376.2852.0376c.0703,0,.1729-.0078.3076-.0225v.4053c-.1543.02-.292.0303-.4121.0303-.4658,0-.7334-.1479-.8037-.4434-.0303-.125-.0449-.4077-.0449-.8481v-2.2148h-.6836v-.3828h.6836v-1.1787h.4658v1.1787h.7949v.3828Z" fill="#002235"/>
      <path d="M115.5871,52.3371c.3281.3706.4912.8711.4912,1.5015,0,.626-.1621,1.1201-.4873,1.4829s-.7686.5444-1.3291.5444-1.0068-.1841-1.3398-.5518c-.333-.3682-.499-.8647-.499-1.4902,0-.6206.166-1.1162.499-1.4868.333-.3701.7793-.5552,1.3398-.5552.5557,0,.9971.1851,1.3252.5552ZM113.2707,52.6262c-.2451.2979-.3672.6973-.3672,1.1978,0,.5103.1211.9131.3633,1.2085.2432.2954.5771.4429,1.0029.4429.4102,0,.7354-.1475.9756-.4429s.3604-.6958.3604-1.2012-.1221-.9072-.3682-1.2051c-.2451-.2979-.5723-.4463-.9834-.4463-.4102,0-.7383.1484-.9834.4463Z" fill="#002235"/>
      <path d="M123.0353,51.0612c.4678.5205.7021,1.1987.7021,2.0342,0,.8311-.2334,1.5029-.6982,2.0156-.4658.5132-1.0762.7695-1.832.7695-.751,0-1.3564-.2573-1.8164-.7729-.4609-.5156-.6914-1.1914-.6914-2.0273,0-.8354.2314-1.5112.6943-2.0269.4629-.5151,1.0703-.7729,1.8213-.7729.7451,0,1.3525.2603,1.8203.7808ZM119.7619,51.3689c-.3682.4302-.5518.9961-.5518,1.6968,0,.7158.1826,1.29.5479,1.7227.3652.4331.8506.6494,1.457.6494.6055,0,1.0918-.2148,1.46-.6455s.5518-.9985.5518-1.7041-.1855-1.2764-.5557-1.7119c-.3701-.4351-.8584-.6528-1.4639-.6528-.5957,0-1.0771.2153-1.4453.6455Z" fill="#002235"/>
      <path d="M124.9035,52.6374c.2803-.5703.7402-.8555,1.3809-.8555.5254,0,.9473.1875,1.2656.563.3174.375.4766.873.4766,1.4937,0,.6108-.1582,1.1025-.4736,1.4756-.3145.3726-.7324.5591-1.2529.5591-.6514,0-1.1064-.2778-1.3672-.8335v2.1548h-.457v-5.3003h.4277v.7432ZM125.2678,52.615c-.2334.2954-.3496.7007-.3496,1.2163,0,.5054.1191.9058.3564,1.2012.2383.2954.5596.4429.9648.4429.3955,0,.7119-.1489.9502-.4468.2373-.2979.3564-.6943.3564-1.1899,0-.5054-.1191-.9097-.3564-1.2124-.2383-.3027-.5596-.4541-.9648-.4541s-.7246.1475-.957.4429Z" fill="#002235"/>
      <path d="M131.4221,55.509c-.2852.248-.6504.3716-1.0957.3716-.5352,0-.9648-.1826-1.2871-.5479-.3232-.3652-.4844-.8535-.4844-1.4639,0-.6108.1641-1.1099.4912-1.4976.3281-.3882.752-.582,1.2725-.582.5459,0,.9648.1929,1.2578.5781s.4395.8633.4395,1.4336v.1353h-2.9805c0,.4458.1084.8174.3262,1.1147.2178.2979.5439.4468.9795.4468.6357,0,1.0293-.3379,1.1787-1.0132h.458c-.085.4351-.2705.7769-.5557,1.0244ZM131.175,52.5437c-.2207-.2427-.5107-.3638-.8711-.3638-.3906,0-.6865.1274-.8896.3828-.2031.2549-.3291.5854-.3789.9907h2.5068c-.0244-.4302-.1475-.7671-.3672-1.0098Z" fill="#002235"/>
      <path d="M133.1076,52.6228c.1602-.2856.3467-.4956.5596-.6309s.4814-.2026.8066-.2026c.4004,0,.7236.1104.9688.3301.2451.2207.3682.5557.3682,1.0063v2.6274h-.4736v-2.4775c0-.7158-.3271-1.0732-.9834-1.0732-.3701,0-.665.1235-.8857.3716-.2197.2476-.3301.6118-.3301,1.0923v2.0869h-.4736v-3.8589h.4434v.7285Z" fill="#002235"/>
      <path d="M140.8117,50.4079c.8008,0,1.3984.2314,1.7939.6943s.5938,1.0898.5938,1.8809c0,.8105-.1934,1.4751-.5781,1.9932-.3857.5181-.9736.7769-1.7646.7769h-1.9814v-5.3452h1.9365ZM139.385,55.3176h1.3438c1.3066,0,1.96-.7681,1.96-2.3047,0-.6807-.1611-1.2124-.4844-1.5952s-.7871-.5742-1.3926-.5742h-1.4268v4.4741Z" fill="#002235"/>
      <path d="M147.3234,55.7307c-.1152.04-.2402.0601-.375.0601-.2051,0-.3408-.0625-.4053-.188-.0654-.125-.0977-.2974-.0977-.5176-.3262.5151-.8115.7729-1.457.7729-.3955,0-.7041-.0952-.9268-.2852s-.334-.4556-.334-.7959c0-.6958.4775-1.0933,1.4336-1.1934.0498-.0054.1201-.0112.21-.019.0908-.0073.1562-.0137.1992-.0186s.0977-.0112.165-.019c.0674-.0073.1182-.0137.1504-.0186s.0723-.0127.1201-.0225c.0479-.0103.085-.02.1123-.0303.0273-.0098.0566-.021.0869-.0337.0293-.0127.0576-.0264.082-.041.0898-.0605.1357-.1831.1357-.3682,0-.3052-.0859-.5205-.2559-.6455s-.4199-.1875-.751-.1875c-.3252,0-.5742.0737-.7461.2212-.1729.1475-.2744.3765-.3047.687h-.4502c.0195-.4155.165-.7358.4355-.9609s.6426-.3379,1.1182-.3379c.4404,0,.7871.0952,1.04.2852.2529.1904.3789.4658.3789.8262v2.1016c0,.1006.0029.1719.0078.2144s.0264.0825.0635.1201c.0381.0376.0986.0562.1846.0562.0645,0,.125-.0073.1797-.0225v.3604ZM146.2014,53.7751c-.1025.0322-.1963.0562-.2822.0713-.085.0151-.2295.0347-.4346.0601-.0508.0049-.0879.0098-.1133.0146-.1602.0205-.291.043-.3936.0679s-.2207.0664-.3535.124c-.1318.0571-.2324.1372-.2998.2402-.0674.1025-.1016.229-.1016.3789,0,.2251.0801.4043.2402.5366.1602.1328.375.1992.6455.1992.3652,0,.6758-.1089.9307-.3267.2559-.2178.3838-.5044.3838-.8599v-.6304c-.0459.0503-.1191.0913-.2217.124Z" fill="#002235"/>
      <path d="M149.3762,52.2771h-.7949v2.4478c0,.1299.002.2212.0068.2739.0049.0522.0215.1152.0488.1875.0273.0728.0762.1216.1465.1465s.165.0376.2852.0376c.0703,0,.1729-.0078.3076-.0225v.4053c-.1543.02-.292.0303-.4121.0303-.4658,0-.7334-.1479-.8037-.4434-.0303-.125-.0449-.4077-.0449-.8481v-2.2148h-.6836v-.3828h.6836v-1.1787h.4658v1.1787h.7949v.3828Z" fill="#002235"/>
      <path d="M153.4504,55.7307c-.1152.04-.2402.0601-.375.0601-.2051,0-.3408-.0625-.4053-.188-.0654-.125-.0977-.2974-.0977-.5176-.3262.5151-.8115.7729-1.457.7729-.3955,0-.7041-.0952-.9268-.2852s-.334-.4556-.334-.7959c0-.6958.4775-1.0933,1.4336-1.1934.0498-.0054.1201-.0112.21-.019.0908-.0073.1562-.0137.1992-.0186s.0977-.0112.165-.019c.0674-.0073.1182-.0137.1504-.0186s.0723-.0127.1201-.0225c.0479-.0103.085-.02.1123-.0303.0273-.0098.0566-.021.0869-.0337.0293-.0127.0576-.0264.082-.041.0898-.0605.1357-.1831.1357-.3682,0-.3052-.0859-.5205-.2559-.6455s-.4199-.1875-.751-.1875c-.3252,0-.5742.0737-.7461.2212-.1729.1475-.2744.3765-.3047.687h-.4502c.0195-.4155.165-.7358.4355-.9609s.6426-.3379,1.1182-.3379c.4404,0,.7871.0952,1.04.2852.2529.1904.3789.4658.3789.8262v2.1016c0,.1006.0029.1719.0078.2144s.0264.0825.0635.1201c.0381.0376.0986.0562.1846.0562.0645,0,.125-.0073.1797-.0225v.3604ZM152.3283,53.7751c-.1025.0322-.1963.0562-.2822.0713-.085.0151-.2295.0347-.4346.0601-.0508.0049-.0879.0098-.1133.0146-.1602.0205-.291.043-.3936.0679s-.2207.0664-.3535.124c-.1318.0571-.2324.1372-.2998.2402-.0674.1025-.1016.229-.1016.3789,0,.2251.0801.4043.2402.5366.1602.1328.375.1992.6455.1992.3652,0,.6758-.1089.9307-.3267.2559-.2178.3838-.5044.3838-.8599v-.6304c-.0459.0503-.1191.0913-.2217.124Z" fill="#002235"/>
    </g>
  </g>
  <g id="Layer_3">
    <rect x="25.9894" y=".05" width="212.2523" height="64.2512" fill="none" opacity=".01" stroke="#231f20" stroke-miterlimit="10" stroke-width=".1"/>
  </g>
</svg>