<?xml version="1.0" encoding="UTF-8"?>
<svg id="Layer_1" xmlns="http://www.w3.org/2000/svg" width="48.2658" height="33.9649" viewBox="0 0 48.2658 33.9649">
  <path d="M47.2727,5.2635c-.5959-2.0855-2.1848-3.7739-4.2704-4.2704-3.7739-.9931-18.8694-.9931-18.8694-.9931,0,0-15.0955,0-18.8694.9931C3.178,1.589,1.5889,3.178.9931,5.2635c-.9931,3.7739-.9931,11.7189-.9931,11.7189,0,0,0,7.945.9931,11.7189.5959,2.0856,2.1849,3.6746,4.2704,4.2705,3.7739.9931,18.8694.9931,18.8694.9931,0,0,15.0955,0,18.8694-.9931,2.0856-.5959,3.6746-2.1849,4.2704-4.2705.9931-3.7739.9931-11.7189.9931-11.7189,0,0,0-7.945-.9931-11.7189ZM19.1673,24.0336v-14.301l12.6127,7.1505s-12.6127,7.1505-12.6127,7.1505Z" fill="#002235"/>
</svg>