<?xml version="1.0" encoding="UTF-8"?>
<svg id="Layer_1" xmlns="http://www.w3.org/2000/svg" width="48.1" height="48.1" viewBox="0 0 48.1 48.1">
  <path d="M36.95,8.35c-1.6,0-2.9,1.3-2.9,2.9s1.3,2.9,2.9,2.9,2.9-1.3,2.9-2.9-1.3-2.9-2.9-2.9Z" fill="#002235"/>
  <path d="M47.95,14.15c-.2-3.8-1.1-7.3-3.9-10.1S37.85.35,33.95.15C29.95-.05,18.15-.05,14.15.15c-3.8.2-7.2,1.1-10.1,3.9C1.15,6.85.35,10.25.15,14.15-.05,18.15-.05,29.95.15,33.95c.2,3.8,1.1,7.3,3.9,10.1,2.8,2.8,6.2,3.7,10.1,3.9,4,.2,15.8.2,19.8,0,3.8-.2,7.3-1.1,10.1-3.9s3.7-6.2,3.9-10.1c.2-4,.2-15.8,0-19.8ZM42.85,38.15c-.8,2.1-2.5,3.7-4.6,4.6-3.2,1.3-10.7,1-14.1,1s-11,.3-14.1-1c-2.1-.8-3.7-2.5-4.6-4.6-1.3-3.2-1-10.7-1-14.1s-.3-11,1-14.1c.8-2.1,2.5-3.7,4.6-4.6,3.2-1.3,10.7-1,14.1-1s11-.3,14.1,1c2.1.8,3.7,2.5,4.6,4.6,1.3,3.2,1,10.7,1,14.1s.3,11-1,14.1Z" fill="#002235"/>
  <path d="M24.15,11.75c-6.8,0-12.3,5.5-12.3,12.3s5.5,12.3,12.3,12.3,12.3-5.5,12.3-12.3-5.5-12.3-12.3-12.3ZM24.15,32.05c-4.4,0-8-3.6-8-8s3.6-8,8-8,8,3.6,8,8-3.6,8-8,8Z" fill="#002235"/>
</svg>