<?xml version="1.0" encoding="UTF-8"?>
<svg id="Layer_1" xmlns="http://www.w3.org/2000/svg" width="48.0542" height="48.0543" viewBox="0 0 48.0542 48.0543">
  <rect x=".8042" y="15.884" width="9.9527" height="32.0697" fill="#002235"/>
  <path d="M5.7303,11.5611c-3.217,0-5.7303-2.6138-5.7303-5.8308S2.6138,0,5.7303,0c3.217,0,5.7303,2.6138,5.7303,5.7303,0,3.217-2.6138,5.8309-5.7303,5.8309h0Z" fill="#002235"/>
  <path d="M48.0542,48.0542l-.1005-.1005h-9.9527v-15.5824c0-3.7197,0-8.4447-5.1271-8.4447s-5.9314,4.0213-5.9314,8.2436v15.884h-9.9527V15.9845h9.5505v4.3229h.1005c1.3069-2.5133,4.6245-5.1271,9.45-5.1271,10.0532,0,11.9633,6.6351,11.9633,15.2809v17.5931h0Z" fill="#002235"/>
</svg>