<?xml version="1.0" encoding="UTF-8"?>
<svg id="Layer_4" xmlns="http://www.w3.org/2000/svg" viewBox="0 0 44.5926 37.8124">
  <path d="M17.514,33.7579h25.873c.6659,0,1.2056-.5398,1.2056-1.2056v-2.4113c0-.6659-.5398-1.2056-1.2056-1.2056h-21.2959" fill="#3bc2d2"/>
  <path d="M22.9851,26.5241h20.4019c.6659,0,1.2056-.5398,1.2056-1.2056v-2.4113c0-.6659-.5398-1.2056-1.2056-1.2056h-19.8462" fill="#3bc2d2"/>
  <path d="M23.6469,19.2902h19.7401c.6659,0,1.2056-.5398,1.2056-1.2056v-2.4113c0-.6659-.5398-1.2056-1.2056-1.2056h-19.6284" fill="#3bc2d2"/>
  <path d="M23.7675,12.0564h19.6185c.6659,0,1.2056-.5398,1.2056-1.2056l.001-2.4113c0-.6659-.5398-1.2056-1.2056-1.2056H12.4152c-.6659,0-1.2056.5398-1.2056,1.2056v2.6119" fill="#3bc2d2"/>
  <rect x="11.2095" width="33.3831" height="4.8226" rx="1.2056" ry="1.2056" fill="#3bc2d2"/>
  <path d="M22.5787,11.0514H2.0632c-.5909,0-1.0684.4819-1.0632,1.0727.1078,12.1267.5747,13.9594,1.1401,15.4939.5817,1.5786,1.2679,2.8415,2.6849,4.1928,1.3511,1.2883,3.3665,2.6569,7.0206,4.8501.3367.2021.7575.2021,1.0943,0,3.6541-2.1932,5.6696-3.5618,7.0206-4.8501,1.417-1.3513,2.1031-2.6142,2.6849-4.1928.5632-1.5284,1.0285-3.3527,1.1389-15.35.0061-.6701-.5355-1.2167-1.2055-1.2167h0Z" fill="#3bc2d2" stroke="#002235" stroke-miterlimit="10" stroke-width="2"/>
</svg>