<?xml version="1.0" encoding="UTF-8"?>
<svg id="Default" xmlns="http://www.w3.org/2000/svg" viewBox="0 0 46.1262 46.6946">
  <path d="M46.1259,21.4108l-.1668,6.2073c-.7603-.0205-1.5207-.0408-2.281-.0613.0305-1.1336.0609-2.2672.0914-3.4007-4.9157,4.7853-9.8313,9.5707-14.747,14.3559-3.6525-2.7267-7.305-5.4535-10.9575-8.1802-5.4854,5.4543-10.9707,10.9086-16.4561,16.3628-.5363-.5394-1.0726-1.0787-1.6089-1.6181,5.9507-5.917,11.9015-11.834,17.8523-17.7511,3.6581,2.731,7.3162,5.4619,10.9743,8.1928,4.4504-4.3325,8.9008-8.6649,13.3512-12.9972h-3.402v-2.2818h6.2095c.6421,0,1.1577.5297,1.1405,1.1716h0Z" fill="#3bc2d2"/>
  <path d="M7.4498,22.1509h-2.2818c-.6301,0-1.1409.5108-1.1409,1.1408v14.5628c1.5212-1.5126,3.0424-3.0252,4.5636-4.5378v-10.025c0-.6301-.5108-1.1408-1.1409-1.1408Z" fill="#3bc2d2"/>
  <path d="M34.8312,0h-2.2818c-.6301,0-1.1409.5108-1.1409,1.1408v28.6796c1.5212-1.4809,3.0424-2.9618,4.5636-4.4426V1.1408c0-.6301-.5108-1.1408-1.1409-1.1408Z" fill="#3bc2d2"/>
  <path d="M27.9858,22.1509h-2.2818c-.6301,0-1.1409.5108-1.1409,1.1408v6.196c1.5212,1.1357,3.0424,2.2713,4.5636,3.4069v-9.603c0-.6301-.5108-1.1408-1.1409-1.1408h0Z" fill="#3bc2d2"/>
  <path d="M21.1405,5.3101h-2.2818c-.6301,0-1.1409.5108-1.1409,1.1409v17.9265c1.5212,1.1356,3.0424,2.2713,4.5636,3.4069V6.451c0-.6301-.5108-1.1409-1.1409-1.1409Z" fill="#3bc2d2"/>
  <path d="M14.2951,13.5029h-2.2818c-.6301,0-1.1409.5108-1.1409,1.1409v16.4042c1.5212-1.5126,3.0424-3.0252,4.5636-4.5377v-11.8665c0-.6301-.5108-1.1409-1.1409-1.1409Z" fill="#3bc2d2"/>
</svg>