<?xml version="1.0" encoding="UTF-8"?>
<svg id="Layer_3" xmlns="http://www.w3.org/2000/svg" viewBox="0 0 45.4454 41.2416">
  <path d="M45.3939,21.6649c-.2335-1.5545-1.2386-2.8849-2.6701-3.5345s-3.0946-.5301-4.4184.3176c-1.6774-1.6369-3.355-3.2737-5.0324-4.9106,1.6447-1.6482,3.2893-3.2963,4.934-4.9444,2.0021,1.2448,4.6195.7897,6.0841-1.0577,1.4645-1.8473,1.3103-4.4996-.3585-6.1649-1.6687-1.6652-4.3212-1.8139-6.1656-.3455-1.8443,1.4684-2.2939,4.0868-1.0449,6.0863-1.6501,1.6536-3.3004,3.3074-4.9507,4.961-1.7179-1.6763-3.4358-3.3524-5.1536-5.0288.8012-1.3213.8917-2.9549.2415-4.3567S24.9036.299,23.3773.0572c-1.5262-.2419-3.0725.2924-4.1243,1.4244-1.0517,1.132-1.4706,2.7135-1.1171,4.2179-3.3035,1.632-6.6071,3.2642-9.9107,4.8962-1.2417-1.5138-3.3002-2.085-5.1444-1.4273S.0039,11.5708.0002,13.5286c-.0037,1.9579,1.2222,3.7073,3.0638,4.372s3.9024.1014,5.1498-1.4075c3.3474,1.6698,6.6949,3.3394,10.0421,5.0091-.1699.7111-.1694,1.4522.0016,2.1631-3.3493,1.6769-6.6987,3.3538-10.048,5.0306-.0617-.0743-.1255-.1465-.1916-.2169,1.6242-2.4363,3.2485-4.8725,4.8728-7.3089-.6307-.3146-1.2613-.6291-1.892-.9438-1.5754,2.363-3.1508,4.7259-4.7262,7.0889-1.7399-.6547-3.7025-.2075-4.987,1.1363C.001,29.7954-.3571,31.7761.3756,33.4847c.7328,1.7085,2.4146,2.8145,4.2736,2.8102,1.8589-.0042,3.5358-1.118,4.2608-2.8298,6.4977,1.132,12.9955,2.2639,19.4931,3.3958.0862,1.5477.9398,2.9502,2.2751,3.7377s2.9756.8558,4.3717.1823c1.3962-.6736,2.3636-2,2.5784-3.5353.2147-1.5352-.3516-3.0762-1.5093-4.1071,1.1484-2.1051,2.2967-4.2104,3.4449-6.3156,1.5145.4212,3.1393.0467,4.3166-.9949s1.7469-2.6087,1.5133-4.1632h.0001ZM9.1502,14.6156c.1681-.703.1695-1.4356.0041-2.1392,3.3037-1.632,6.6072-3.2641,9.9107-4.8962.0665.081.1355.1595.2073.236-1.5851,2.3775-3.1701,4.7549-4.755,7.1321.6307.3147,1.2614.6293,1.892.9438,1.5363-2.3042,3.0723-4.6083,4.6084-6.9123,1.3699.5155,2.9025.3543,4.1351-.435l5.1369,5.0124c-1.691,1.6946-3.382,3.3892-5.073,5.0836-1.9714-1.2257-4.5453-.8053-6.0243.9839-3.3474-1.6698-6.6947-3.3394-10.0421-5.0091h-.0001ZM28.7633,34.7943c-6.4977-1.132-12.9955-2.2639-19.4931-3.3959-.0156-.2804-.0559-.5539-.1215-.8269,3.3494-1.6769,6.6987-3.3538,10.0482-5.0307,1.3108,1.5809,3.5052,2.1118,5.3937,1.3045,1.6429,2.2439,3.2858,4.4878,4.9286,6.7317-.3189.3706-.5651.7669-.7558,1.2173ZM34.2776,32.1342c-1.0154-.2824-2.0967-.2106-3.0659.2036-1.6429-2.2439-3.2857-4.4878-4.9286-6.7316,1.3248-1.5392,1.4944-3.7611.4185-5.4836,1.6965-1.7001,3.3931-3.4001,5.0896-5.1003,1.6831,1.6423,3.3662,3.2846,5.0493,4.927-1.1599,1.9131-.7889,4.3815.8819,5.8693,0,0-3.4449,6.3156-3.4449,6.3156Z" fill="#3bc2d2"/>
</svg>