<?xml version="1.0" encoding="UTF-8"?>
<svg id="Layer_1" xmlns="http://www.w3.org/2000/svg" width="17.4607" height="25.0106" viewBox="0 0 17.4607 25.0106">
  <path d="M8.7303,0C3.9164,0,0,3.9163,0,8.7303c0,1.3389.2955,2.624.8823,3.8274.8073,1.6203,3.1702,5.6153,5.6724,9.8452l1.2185,2.0611c.1997.3386.5638.5464.9571.5464h0c.3932,0,.7572-.2079.9571-.5463l1.2177-2.06c2.4852-4.2007,4.8331-8.17,5.656-9.8122.0075-.0141.0153-.0287.0222-.0431.5819-1.1958.8774-2.4804.8774-3.8186,0-4.8139-3.9164-8.7303-8.7304-8.7303ZM8.7303,12.6936c-2.3549,0-4.271-1.9158-4.271-4.2706s1.9161-4.271,4.271-4.271,4.2706,1.9161,4.2706,4.271-1.9158,4.2706-4.2706,4.2706Z" fill="#0e2534"/>
</svg>