<?xml version="1.0" encoding="UTF-8"?>
<svg id="Layer_1" xmlns="http://www.w3.org/2000/svg" viewBox="0 0 212.9172 140.3223">
  <rect x=".05" y=".05" width="212.8172" height="140.2223" fill="none" opacity=".01" stroke="#231f20" stroke-miterlimit="10" stroke-width=".1"/>
  <path d="M132.8653,82.773l-26.5648-10.6259-26.5648,10.6259c-.6795.2364-1.2246,1.0416-1.1917,1.7603-.0329.7187.5123,1.5239,1.1917,1.7602l26.5648,10.6259,26.5648-10.6259c.6794-.2364,1.2246-1.0416,1.1917-1.7602.0329-.7187-.5123-1.5239-1.1917-1.7603Z" fill="#fff"/>
  <g>
    <path d="M137.2659,77.212v-33.7554s-26.1537-10.4615-26.1537-10.4615c-.5479-.2355-1.2818-.1564-1.767.1904-.5022.3217-.8481.9737-.833,1.5699v33.7554s26.1537,10.4615,26.1537,10.4615c.5479.2355,1.2818.1564,1.767-.1904.5022-.3217.8482-.9737.833-1.5699Z" fill="#2bc6d6"/>
    <path d="M104.0887,34.7554v33.7554s-26.1537,10.4615-26.1537,10.4615c-.5479.2355-1.2818.1564-1.767-.1904-.5022-.3217-.8481-.9737-.833-1.5699v-33.7554s26.1537-10.4615,26.1537-10.4615c.5479-.2355,1.2818-.1564,1.7669.1904.5022.3217.8482.9737.833,1.5699Z" fill="#2bc6d6"/>
  </g>
  <g>
    <line x1="104.0886" y1="68.5108" x2="75.335" y2="43.4567" fill="#002235" stroke="#002235" stroke-miterlimit="10" stroke-width=".4"/>
    <line x1="84.9196" y1="39.6229" x2="84.9196" y2="76.1784" fill="#002235" stroke="#002235" stroke-miterlimit="10" stroke-width=".4"/>
    <line x1="75.335" y1="55.6418" x2="104.0886" y2="44.1404" fill="#002235" stroke="#002235" stroke-miterlimit="10" stroke-width=".4"/>
    <line x1="75.335" y1="67.827" x2="104.0886" y2="56.3256" fill="#002235" stroke="#002235" stroke-miterlimit="10" stroke-width=".4"/>
    <line x1="94.5041" y1="35.789" x2="94.5041" y2="72.3446" fill="#002235" stroke="#002235" stroke-miterlimit="10" stroke-width=".4"/>
    <line x1="104.0886" y1="56.3256" x2="84.9196" y2="39.6229" fill="#002235" stroke="#002235" stroke-miterlimit="10" stroke-width=".4"/>
    <line x1="84.9196" y1="76.1784" x2="75.335" y2="67.827" fill="#002235" stroke="#002235" stroke-miterlimit="10" stroke-width=".4"/>
    <line x1="94.5041" y1="72.3446" x2="75.335" y2="55.6418" fill="#002235" stroke="#002235" stroke-miterlimit="10" stroke-width=".4"/>
    <line x1="104.0886" y1="44.1404" x2="94.5041" y2="35.789" fill="#002235" stroke="#002235" stroke-miterlimit="10" stroke-width=".4"/>
  </g>
  <g>
    <path d="M26.9042,108.9196h-6.3896v3.8545h5.9844v.8555h-5.9844v4.2295h6.4497v.8701h-7.4697v-10.6797h7.4097v.8701Z" fill="#fff"/>
    <path d="M34.9891,118.6842c-.23.0801-.48.1201-.75.1201-.4097,0-.6797-.125-.8096-.375-.1304-.25-.1953-.5957-.1953-1.0352-.6499,1.0293-1.6196,1.5449-2.9097,1.5449-.79,0-1.4077-.1904-1.8525-.5703s-.6675-.9102-.6675-1.5898c0-1.3896.9551-2.1846,2.8647-2.3848.1001-.0098.2402-.0225.4199-.0381.1802-.0146.3125-.0273.3975-.0371.0854-.0098.1953-.0225.3301-.0371.1353-.0156.2354-.0273.3003-.0381.0649-.0098.145-.0244.2397-.0449.0952-.0195.1699-.04.2251-.0596.0552-.0205.1123-.043.1724-.0674.0601-.0254.1152-.0527.165-.083.1802-.1201.27-.3652.27-.7344,0-.6104-.1699-1.04-.5098-1.29-.3403-.25-.8403-.375-1.5-.375-.6499,0-1.1475.1475-1.4927.4424-.3447.2949-.5474.752-.6074,1.3721h-.8999c.04-.8301.3301-1.4697.8701-1.9199s1.2847-.6748,2.2349-.6748c.8799,0,1.5723.1904,2.0771.5703.5054.3799.7578.9297.7578,1.6494v4.2002c0,.2002.0049.3428.0146.4277.0103.085.0527.165.1274.2393.0752.0752.1978.1133.3677.1133.1299,0,.25-.0156.3599-.0459v.7207ZM32.747,114.777c-.2051.0645-.3926.1123-.5625.1416-.1699.0303-.46.0703-.8701.1201-.1001.0107-.1748.0205-.2251.0303-.3198.04-.5825.085-.7871.1348-.2051.0508-.4399.1328-.7051.248-.2651.1143-.4648.2744-.6001.4795-.1348.2051-.2026.458-.2026.7578,0,.4502.1602.8076.48,1.0723.3203.2646.75.3975,1.29.3975.73,0,1.3501-.2178,1.8599-.6523.5103-.4346.7651-1.0078.7651-1.7178v-1.2598c-.0898.1006-.2373.1826-.4424.248Z" fill="#fff"/>
    <path d="M40.6444,113.2692c-.0903-1.1201-.7852-1.6797-2.085-1.6797-.5503,0-.9878.1143-1.3125.3447-.3252.2295-.4878.54-.4878.9297,0,.1904.0352.3555.105.4951.0703.1396.1504.2529.2402.3379s.2476.167.4727.2471c.2246.0801.4199.1426.585.1875.1646.0449.4321.1074.8022.1875.3301.0801.5952.1455.7949.1953.2002.0498.4478.1377.7427.2627s.5273.2598.6973.4043c.1699.1455.3174.3398.4424.585s.1875.5225.1875.833c0,.71-.2822,1.2822-.8472,1.7168-.5649.4355-1.3027.6533-2.2124.6533-.9902,0-1.7603-.2402-2.3101-.7207-.5498-.4795-.835-1.1602-.855-2.04h.915c0,.6406.1997,1.1299.6001,1.4707.3999.3398.96.5098,1.6797.5098.6299,0,1.1377-.1377,1.5225-.4131.3853-.2744.5776-.6367.5776-1.0869,0-.2402-.0625-.4502-.1875-.6299-.125-.1807-.2925-.3223-.5024-.4277-.21-.1045-.4175-.1904-.6226-.2549-.2051-.0654-.4224-.1221-.6523-.1729-.0703-.0098-.1201-.0195-.1504-.0293-.0698-.0205-.23-.0576-.48-.1133-.25-.0547-.4248-.0947-.5249-.1191-.1001-.0254-.2598-.0732-.48-.1426-.2197-.0703-.3799-.1357-.48-.1953-.1001-.0605-.2275-.1455-.3823-.2549-.1553-.1104-.27-.2275-.3452-.3525-.0747-.125-.1396-.2725-.1948-.4424s-.0825-.3604-.0825-.5703c0-.6699.2524-1.2002.7573-1.5898.5054-.3896,1.1978-.585,2.0776-.585s1.585.21,2.1147.6299c.5303.4199.7949,1.0303.7949,1.8301h-.9146Z" fill="#fff"/>
    <path d="M46.224,119.0143c-.3799,1.0195-.71,1.7148-.9897,2.085-.2798.3691-.71.5547-1.29.5547-.25,0-.5249-.0254-.8247-.0752v-.8252c.2798.0703.5049.1055.6748.1055.3799,0,.6675-.1406.8623-.4199.1953-.2803.4175-.7656.6675-1.4551.0103-.04.02-.0674.0303-.083.0098-.0146.02-.0371.0298-.0674.0103-.0293.02-.0576.0303-.082.0098-.0254.02-.0527.0298-.083l-3.105-7.6494h1.0352l2.085,5.3096c.0801.21.2349.665.4648,1.3652.2603-.8496.415-1.3398.4648-1.4697l1.9053-5.2051h.96l-3.0303,7.9951Z" fill="#fff"/>
    <path d="M63.0692,118.7292h-1.125l-1.29-3.3604h-4.8896l-1.3052,3.3604h-1.0947l4.3198-10.71h1.1245l4.2603,10.71ZM58.2391,108.9792l-2.1597,5.5645h4.2598l-2.1001-5.5645Z" fill="#fff"/>
    <path d="M69.286,118.1364c-.5649.5449-1.3022.8174-2.2124.8174-1.0801,0-1.9448-.3652-2.5947-1.0947-.6504-.7305-.9751-1.7002-.9751-2.9102,0-1.2598.3276-2.2676.9824-3.0225s1.5273-1.1318,2.6172-1.1318c.8901,0,1.6128.2344,2.1675.7051.5552.4697.8877,1.1191.9976,1.9492h-.96c-.25-1.25-.98-1.875-2.1899-1.875-.8101,0-1.4526.2979-1.9272.8926-.4751.5947-.7124,1.3975-.7124,2.4072,0,1.0107.23,1.8125.6899,2.4082.46.5947,1.0796.8916,1.8599.8916.6499,0,1.1797-.1924,1.5898-.5771s.665-.9277.7651-1.627h.9448c-.1299.8994-.4775,1.6221-1.0425,2.167Z" fill="#fff"/>
    <path d="M77.0863,118.1364c-.5649.5449-1.3022.8174-2.2124.8174-1.0801,0-1.9448-.3652-2.5947-1.0947-.6504-.7305-.9751-1.7002-.9751-2.9102,0-1.2598.3276-2.2676.9824-3.0225s1.5273-1.1318,2.6172-1.1318c.8901,0,1.6128.2344,2.1675.7051.5552.4697.8877,1.1191.9976,1.9492h-.96c-.25-1.25-.98-1.875-2.1899-1.875-.8101,0-1.4521.2979-1.9272.8926s-.7124,1.3975-.7124,2.4072c0,1.0107.23,1.8125.6899,2.4082.46.5947,1.0796.8916,1.8599.8916.6499,0,1.1797-.1924,1.5898-.5771s.665-.9277.7651-1.627h.9448c-.1299.8994-.4775,1.6221-1.0425,2.167Z" fill="#fff"/>
    <path d="M84.7743,118.2419c-.5703.4941-1.3003.7422-2.1899.7422-1.0703,0-1.9277-.3652-2.5728-1.0947-.645-.7305-.9673-1.7051-.9673-2.9248,0-1.2207.3276-2.2178.9824-2.9932.6548-.7744,1.5024-1.1621,2.5425-1.1621,1.0898,0,1.9272.3848,2.5122,1.1553.585.7695.8774,1.7246.8774,2.8643v.2705h-5.9546c0,.8896.2173,1.6318.6523,2.2275.4351.5947,1.0874.8926,1.9575.8926,1.27,0,2.0552-.6758,2.355-2.0254h.915c-.1699.8701-.54,1.5527-1.1099,2.0479ZM84.2792,112.3171c-.4399-.4854-1.02-.7275-1.7402-.7275-.7798,0-1.3721.2549-1.7773.7646-.4048.5098-.6572,1.1699-.7573,1.9795h5.0098c-.0498-.8594-.2949-1.5322-.7349-2.0166Z" fill="#fff"/>
    <path d="M91.8837,113.2692c-.0898-1.1201-.7847-1.6797-2.0845-1.6797-.5503,0-.9878.1143-1.3125.3447-.3252.2295-.4878.54-.4878.9297,0,.1904.0352.3555.105.4951.0703.1396.1504.2529.2402.3379s.2476.167.4727.2471c.2246.0801.4199.1426.585.1875.1646.0449.4321.1074.8022.1875.3301.0801.5947.1455.7949.1953s.4478.1377.7427.2627.5273.2598.6973.4043c.1699.1455.3174.3398.4424.585s.1875.5225.1875.833c0,.71-.2822,1.2822-.8472,1.7168-.5649.4355-1.3027.6533-2.2124.6533-.9902,0-1.7603-.2402-2.3101-.7207-.5498-.4795-.835-1.1602-.855-2.04h.915c0,.6406.1997,1.1299.6001,1.4707.3999.3398.96.5098,1.6797.5098.6299,0,1.1377-.1377,1.5225-.4131.3848-.2744.5776-.6367.5776-1.0869,0-.2402-.0625-.4502-.1875-.6299-.125-.1807-.2925-.3223-.5024-.4277-.21-.1045-.4175-.1904-.6226-.2549-.2051-.0654-.4224-.1221-.6523-.1729-.0703-.0098-.1201-.0195-.1504-.0293-.0698-.0205-.23-.0576-.48-.1133-.25-.0547-.4248-.0947-.5249-.1191-.1001-.0254-.2598-.0732-.48-.1426-.2197-.0703-.3799-.1357-.48-.1953-.1001-.0605-.2275-.1455-.3823-.2549-.1553-.1104-.27-.2275-.3452-.3525-.0747-.125-.1396-.2725-.1948-.4424s-.0825-.3604-.0825-.5703c0-.6699.2524-1.2002.7573-1.5898.5054-.3896,1.1978-.585,2.0776-.585s1.585.21,2.1147.6299c.5303.4199.7949,1.0303.7949,1.8301h-.915Z" fill="#fff"/>
    <path d="M99.1141,113.2692c-.0903-1.1201-.7852-1.6797-2.085-1.6797-.5503,0-.9878.1143-1.3125.3447-.3252.2295-.4878.54-.4878.9297,0,.1904.0352.3555.105.4951.0703.1396.1504.2529.2402.3379s.2476.167.4727.2471c.2246.0801.4199.1426.585.1875.1646.0449.4321.1074.8022.1875.3301.0801.5952.1455.7949.1953.2002.0498.4478.1377.7427.2627s.5273.2598.6973.4043c.1699.1455.3174.3398.4424.585s.1875.5225.1875.833c0,.71-.2822,1.2822-.8472,1.7168-.5649.4355-1.3027.6533-2.2124.6533-.9902,0-1.7603-.2402-2.3101-.7207-.5498-.4795-.835-1.1602-.855-2.04h.915c0,.6406.1997,1.1299.6001,1.4707.3999.3398.96.5098,1.6797.5098.6299,0,1.1377-.1377,1.5225-.4131.3853-.2744.5776-.6367.5776-1.0869,0-.2402-.0625-.4502-.1875-.6299-.125-.1807-.2925-.3223-.5024-.4277-.21-.1045-.4175-.1904-.6226-.2549-.2051-.0654-.4224-.1221-.6523-.1729-.0703-.0098-.1201-.0195-.1504-.0293-.0698-.0205-.23-.0576-.48-.1133-.25-.0547-.4248-.0947-.5249-.1191-.1001-.0254-.2598-.0732-.48-.1426-.2197-.0703-.3799-.1357-.48-.1953-.1001-.0605-.2275-.1455-.3823-.2549-.1553-.1104-.27-.2275-.3452-.3525-.0747-.125-.1396-.2725-.1948-.4424s-.0825-.3604-.0825-.5703c0-.6699.2524-1.2002.7573-1.5898.5054-.3896,1.1978-.585,2.0776-.585s1.585.21,2.1147.6299c.5303.4199.7949,1.0303.7949,1.8301h-.9146Z" fill="#fff"/>
    <path d="M108.9833,111.7839h-1.5894v4.8906c0,.2598.0054.4424.0151.5469.0098.1055.0425.2305.0977.375.0547.1455.1523.2422.292.293.1396.0498.3301.0742.5703.0742.1396,0,.3447-.0146.6143-.0449v.8105c-.3096.04-.585.0596-.8242.0596-.9302,0-1.4648-.2949-1.605-.8848-.0601-.25-.0898-.8154-.0898-1.6953v-4.4248h-1.3652v-.7646h1.3652v-2.3545h.9297v2.3545h1.5894v.7646Z" fill="#fff"/>
    <path d="M116.2958,111.904c.6553.7402.9824,1.7402.9824,3,0,1.25-.3252,2.2373-.9746,2.9629-.6504.7246-1.5352,1.0869-2.6553,1.0869s-2.0127-.3672-2.6777-1.1025c-.665-.7344-.9971-1.7275-.9971-2.9775,0-1.2393.332-2.2295.9971-2.9697.665-.7393,1.5576-1.1094,2.6777-1.1094,1.1104,0,1.9922.3701,2.6475,1.1094ZM111.6688,112.4821c-.4902.5947-.7354,1.3916-.7354,2.3916,0,1.0205.2422,1.8252.7275,2.415s1.1523.8848,2.002.8848c.8203,0,1.4707-.2949,1.9502-.8848.4805-.5898.7197-1.3896.7197-2.3994s-.2451-1.8125-.7344-2.4072c-.4902-.5957-1.1455-.8926-1.9648-.8926-.8203,0-1.4756.2969-1.9648.8926Z" fill="#fff"/>
    <path d="M131.1903,109.3542c.9355,1.04,1.4023,2.3955,1.4023,4.0654,0,1.6592-.4648,3.002-1.3945,4.0273-.9297,1.0244-2.1494,1.5371-3.6602,1.5371-1.5,0-2.71-.5146-3.6299-1.5449s-1.3799-2.3799-1.3799-4.0498.4629-3.0205,1.3877-4.0498c.9248-1.0303,2.1377-1.5449,3.6377-1.5449,1.4893,0,2.7021.5195,3.6367,1.5596ZM124.6513,109.9694c-.7354.8594-1.1025,1.9902-1.1025,3.3896,0,1.4297.3652,2.5771,1.0947,3.4424s1.7002,1.2979,2.9102,1.2979,2.1826-.4307,2.917-1.29c.7354-.8604,1.1025-1.9951,1.1025-3.4053s-.3701-2.5498-1.1104-3.4199c-.7393-.8701-1.7148-1.3047-2.9248-1.3047-1.1895,0-2.1523.4297-2.8867,1.29Z" fill="#fff"/>
    <path d="M134.9335,112.5046c.5596-1.1406,1.4795-1.71,2.7598-1.71,1.0498,0,1.8926.375,2.5273,1.125s.9521,1.7441.9521,2.9844c0,1.2197-.3145,2.2021-.9443,2.9473s-1.4648,1.1182-2.5049,1.1182c-1.2998,0-2.21-.5557-2.7305-1.665v4.3047h-.915v-10.5898h.8555v1.4854ZM135.661,112.4596c-.4648.5898-.6973,1.3994-.6973,2.4297,0,1.0098.2373,1.8096.7119,2.3994.4756.5898,1.1172.8848,1.9277.8848.79,0,1.4219-.2969,1.8975-.8916.4746-.5957.7119-1.3877.7119-2.3779,0-1.0098-.2373-1.8174-.7119-2.4219-.4756-.6055-1.1172-.9082-1.9277-.9082-.8096,0-1.4473.2949-1.9121.8857Z" fill="#fff"/>
    <path d="M147.9677,118.2419c-.5703.4941-1.2998.7422-2.1895.7422-1.0703,0-1.9277-.3652-2.5732-1.0947-.6445-.7305-.9668-1.7051-.9668-2.9248,0-1.2207.3271-2.2178.9824-2.9932.6543-.7744,1.502-1.1621,2.542-1.1621,1.0898,0,1.9277.3848,2.5127,1.1553.585.7695.877,1.7246.877,2.8643v.2705h-5.9541c0,.8896.2168,1.6318.6523,2.2275.4346.5947,1.0869.8926,1.957.8926,1.2705,0,2.0557-.6758,2.3555-2.0254h.915c-.1699.8701-.54,1.5527-1.1104,2.0479ZM147.4725,112.3171c-.4395-.4854-1.0195-.7275-1.7402-.7275-.7793,0-1.3721.2549-1.7773.7646-.4043.5098-.6572,1.1699-.7568,1.9795h5.0098c-.0498-.8594-.2949-1.5322-.7354-2.0166Z" fill="#fff"/>
    <path d="M151.3436,112.4743c.3193-.5703.6924-.9902,1.1172-1.2598.4248-.2705.9619-.4053,1.6123-.4053.7998,0,1.4453.2197,1.9346.6602.4902.4395.7354,1.1094.7354,2.0098v5.25h-.9453v-4.9502c0-1.4297-.6543-2.1445-1.9648-2.1445-.7402,0-1.3301.2471-1.7695.7422-.4404.4951-.6602,1.2227-.6602,2.1826v4.1699h-.9453v-7.71h.8857v1.4551Z" fill="#fff"/>
    <path d="M166.747,108.0495c1.6006,0,2.7949.4619,3.585,1.3877.79.9248,1.1855,2.1768,1.1855,3.7568,0,1.6201-.3848,2.9473-1.1553,3.9824-.7695,1.0352-1.9443,1.5527-3.5244,1.5527h-3.96v-10.6797h3.8691ZM163.8973,117.859h2.6855c2.6094,0,3.9141-1.5352,3.9141-4.6045,0-1.3604-.3223-2.4229-.9668-3.1875-.6455-.7656-1.5732-1.1475-2.7832-1.1475h-2.8496v8.9395Z" fill="#fff"/>
    <path d="M179.7675,118.6842c-.2305.0801-.4805.1201-.75.1201-.4102,0-.6797-.125-.8096-.375-.1309-.25-.1953-.5957-.1953-1.0352-.6504,1.0293-1.6201,1.5449-2.9102,1.5449-.79,0-1.4072-.1904-1.8525-.5703-.4443-.3799-.667-.9102-.667-1.5898,0-1.3896.9551-2.1846,2.8643-2.3848.1006-.0098.2402-.0225.4199-.0381.1807-.0146.3125-.0273.3975-.0371.0859-.0098.1953-.0225.3301-.0371.1357-.0156.2354-.0273.3008-.0381.0645-.0098.1445-.0244.2393-.0449.0957-.0195.1699-.04.2256-.0596.0547-.0205.1123-.043.1719-.0674.0605-.0254.1152-.0527.165-.083.1807-.1201.2705-.3652.2705-.7344,0-.6104-.1699-1.04-.5098-1.29-.3408-.25-.8408-.375-1.5-.375-.6504,0-1.1475.1475-1.4932.4424-.3447.2949-.5469.752-.6074,1.3721h-.8994c.04-.8301.3301-1.4697.8701-1.9199s1.2842-.6748,2.2344-.6748c.8799,0,1.5723.1904,2.0771.5703.5059.3799.7578.9297.7578,1.6494v4.2002c0,.2002.0049.3428.0146.4277.0107.085.0527.165.1279.2393.0752.0752.1973.1133.3672.1133.1299,0,.25-.0156.3604-.0459v.7207ZM177.5253,114.777c-.2051.0645-.3926.1123-.5625.1416-.1699.0303-.46.0703-.8701.1201-.1006.0107-.1748.0205-.2256.0303-.3193.04-.582.085-.7871.1348-.2051.0508-.4395.1328-.7051.248-.2646.1143-.4648.2744-.5996.4795s-.2031.458-.2031.7578c0,.4502.1602.8076.4805,1.0723s.75.3975,1.29.3975c.7295,0,1.3496-.2178,1.8594-.6523.5107-.4346.7656-1.0078.7656-1.7178v-1.2598c-.0898.1006-.2373.1826-.4424.248Z" fill="#fff"/>
    <path d="M183.8778,111.7839h-1.5898v4.8906c0,.2598.0049.4424.0146.5469.0098.1055.043.2305.0977.375.0547.1455.1523.2422.293.293.1396.0498.3301.0742.5693.0742.1406,0,.3457-.0146.6152-.0449v.8105c-.3096.04-.585.0596-.8252.0596-.9297,0-1.4648-.2949-1.6045-.8848-.0605-.25-.0898-.8154-.0898-1.6953v-4.4248h-1.3652v-.7646h1.3652v-2.3545h.9297v2.3545h1.5898v.7646Z" fill="#fff"/>
    <path d="M192.0223,118.6842c-.2295.0801-.4795.1201-.75.1201-.4092,0-.6797-.125-.8096-.375s-.1953-.5957-.1953-1.0352c-.6494,1.0293-1.6191,1.5449-2.9092,1.5449-.79,0-1.4082-.1904-1.8525-.5703-.4453-.3799-.668-.9102-.668-1.5898,0-1.3896.9551-2.1846,2.8652-2.3848.0996-.0098.2402-.0225.4199-.0381.1797-.0146.3125-.0273.3975-.0371s.1953-.0225.3301-.0371c.1348-.0156.2354-.0273.2998-.0381.0654-.0098.1455-.0244.2402-.0449.0947-.0195.1699-.04.2246-.0596.0557-.0205.1123-.043.1729-.0674.0596-.0254.1152-.0527.165-.083.1797-.1201.2695-.3652.2695-.7344,0-.6104-.1699-1.04-.5098-1.29s-.8398-.375-1.5-.375c-.6494,0-1.1475.1475-1.4922.4424s-.5479.752-.6074,1.3721h-.9004c.04-.8301.3301-1.4697.8701-1.9199s1.2852-.6748,2.2354-.6748c.8799,0,1.5723.1904,2.0771.5703s.7578.9297.7578,1.6494v4.2002c0,.2002.0049.3428.0146.4277s.0527.165.127.2393c.0752.0752.1982.1133.3682.1133.1299,0,.25-.0156.3594-.0459v.7207ZM189.7802,114.777c-.2051.0645-.3926.1123-.5625.1416-.1699.0303-.46.0703-.8701.1201-.0996.0107-.1748.0205-.2246.0303-.3203.04-.582.085-.7871.1348-.2051.0508-.4404.1328-.7051.248-.2656.1143-.4648.2744-.6006.4795-.1348.2051-.2021.458-.2021.7578,0,.4502.1602.8076.4795,1.0723.3203.2646.75.3975,1.29.3975.7305,0,1.3506-.2178,1.8604-.6523s.7646-1.0078.7646-1.7178v-1.2598c-.0898.1006-.2373.1826-.4424.248Z" fill="#fff"/>
  </g>
</svg>