<?xml version="1.0" encoding="UTF-8"?>
<svg id="Layer_1" xmlns="http://www.w3.org/2000/svg" viewBox="0 0 124.1254 128.118">
  <path d="M115.3233,99.8252l-53.1296-21.2518-53.1296,21.2518c-1.3589.4728-2.4492,2.0832-2.3835,3.5205-.0657,1.4373,1.0245,3.0477,2.3835,3.5204l53.1296,21.2519,53.1296-21.2519c1.3589-.4727,2.4492-2.0831,2.3835-3.5204.0657-1.4373-1.0246-3.0477-2.3835-3.5205h0Z" fill="#fff"/>
  <g>
    <path d="M124.1245,88.7033V21.1926L71.8172.2697c-1.0958-.471-2.5636-.3129-3.5339.3807-1.0043.6433-1.6963,1.9474-1.666,3.1398v67.5107l52.3073,20.9229c1.0958.471,2.5636.3129,3.5339-.3807,1.0044-.6433,1.6964-1.9474,1.666-3.1398h0Z" fill="#2bc6d6"/>
    <path d="M57.77,3.7901v67.5107L5.4626,92.2237c-1.0958.471-2.5636.3129-3.5339-.3807-1.0043-.6433-1.6963-1.9474-1.666-3.1398V21.1925L52.5701.2696c1.0958-.471,2.5636-.3129,3.5339.3807,1.0044.6433,1.6964,1.9474,1.666,3.1398Z" fill="#2bc6d6"/>
  </g>
  <g>
    <line x1="57.77" y1="71.3009" x2=".2628" y2="21.1926" fill="none" stroke="#002235" stroke-miterlimit="10" stroke-width=".8"/>
    <line x1="19.4318" y1="13.525" x2="19.4318" y2="86.6361" fill="none" stroke="#002235" stroke-miterlimit="10" stroke-width=".8"/>
    <line x1=".2628" y1="45.5629" x2="57.77" y2="22.5601" fill="none" stroke="#002235" stroke-miterlimit="10" stroke-width=".8"/>
    <line x1=".2628" y1="69.9334" x2="57.77" y2="46.9305" fill="none" stroke="#002235" stroke-miterlimit="10" stroke-width=".8"/>
    <line x1="38.6009" y1="5.8573" x2="38.6009" y2="78.9685" fill="none" stroke="#002235" stroke-miterlimit="10" stroke-width=".8"/>
    <line x1="57.77" y1="46.9305" x2="19.4318" y2="13.525" fill="none" stroke="#002235" stroke-miterlimit="10" stroke-width=".8"/>
    <line x1="19.4318" y1="86.6361" x2=".2628" y2="69.9334" fill="none" stroke="#002235" stroke-miterlimit="10" stroke-width=".8"/>
    <line x1="38.6009" y1="78.9685" x2=".2628" y2="45.5629" fill="none" stroke="#002235" stroke-miterlimit="10" stroke-width=".8"/>
    <line x1="57.77" y1="22.5601" x2="38.6009" y2="5.8573" fill="none" stroke="#002235" stroke-miterlimit="10" stroke-width=".8"/>
  </g>
</svg>